<?xml version="1.0" encoding="UTF-8"?>
<svg id="Iconos" xmlns="http://www.w3.org/2000/svg" viewBox="0 0 50 50">
  <defs>
    <style>
      .cls-1 {
        fill: #263a4e;
      }
    </style>
  </defs>
  <path class="cls-1" d="M49.35,23.25c-.44-.52-10.93-12.66-24.35-12.66S1.09,22.73.65,23.25c-.86,1.02-.86,2.49,0,3.51.44.52,10.93,12.66,24.35,12.66s23.91-12.15,24.35-12.67c.86-1.02.86-2.49,0-3.5ZM29.1,17.88c.9-.49,2.16.07,2.81,1.26.65,1.19.44,2.55-.46,3.05-.9.49-2.16-.07-2.81-1.26-.65-1.19-.44-2.55.46-3.05ZM25,35.02c-9.37,0-17.26-7.2-19.99-10.02,1.84-1.9,6.04-5.8,11.46-8.13-1.06,1.61-1.68,3.53-1.68,5.6,0,5.64,4.57,10.21,10.21,10.21s10.21-4.57,10.21-10.21c0-2.07-.62-3.99-1.68-5.6,5.42,2.33,9.61,6.23,11.46,8.13-2.73,2.82-10.62,10.02-19.99,10.02Z"/>
</svg>