<svg id="uuid-3f60240a-25d3-4ad4-9556-644d8a11536f" xmlns="http://www.w3.org/2000/svg" viewBox="0 0 50 50"><defs fill="#000000"><style>.uuid-6c62095d-05e8-4594-a4f6-104bb93033f4{fill:#e85945;}</style></defs><path class="uuid-6c62095d-05e8-4594-a4f6-104bb93033f4" d="M35.62,14.38c-5.85-5.84-15.38-5.84-21.23,0-5.84,5.85-5.84,15.38,0,21.23,5.85,5.84,15.38,5.84,21.23,0,5.84-5.85,5.84-15.38,0-21.23ZM30.77,31.35c0,.63-.52,1.15-1.16,1.15h-9.24c-.63,0-1.15-.52-1.15-1.15v-9.82h11.55v9.82ZM31.63,20.39h-13.28v-.87c0-.48.39-.87.87-.87h3.46v-.28c0-.48.39-.87.87-.87h2.88c.48,0,.87.39.87.87v.28h3.46c.48,0,.86.39.86.87v.87ZM27.88,30.77c.32,0,.58-.26.58-.58v-6.34c0-.32-.26-.58-.58-.58s-.57.26-.57.58v6.34c0,.32.25.58.57.58ZM25,30.77c.32,0,.58-.26.58-.58v-6.34c0-.32-.26-.58-.58-.58s-.58.26-.58.58v6.34c0,.32.26.58.58.58ZM22.11,30.77c.32,0,.58-.26.58-.58v-6.34c0-.32-.26-.58-.58-.58s-.57.26-.57.58v6.34c0,.32.26.58.57.58Z" fill="#000000"/></svg>