<?xml version="1.0" encoding="UTF-8"?>
<svg id="Iconos" xmlns="http://www.w3.org/2000/svg" viewBox="0 0 50 50">
  <defs>
    <style>
      .cls-1 {
        fill: #263a4e;
      }
    </style>
  </defs>
  <path class="cls-1" d="M42.7,7.3C32.94-2.43,17.06-2.43,7.3,7.3c-9.74,9.76-9.74,25.63,0,35.39,9.76,9.74,25.63,9.74,35.39,0,9.74-9.76,9.74-25.63,0-35.39ZM35.36,32.62c0,2.7-2.2,4.89-4.89,4.89h-13.04c-2.68,0-4.89-2.18-4.89-4.89v-12.93c0-2.7,2.2-4.89,4.89-4.89h9.44c.6,0,1.07.48,1.07,1.07s-.47,1.08-1.07,1.08h-9.44c-1.5,0-2.73,1.22-2.73,2.74v12.93c0,1.52,1.23,2.74,2.73,2.74h13.04c1.5,0,2.74-1.22,2.74-2.74v-9.12c0-.6.48-1.08,1.07-1.08s1.08.48,1.08,1.08v9.12ZM36.64,17.75l-11.15,12.2c-.12.09-.24.17-.35.25l-3.79,1.65c-.2.08-.4.13-.6.13-.48,0-.93-.23-1.22-.63-.27-.38-.35-.88-.2-1.33l1.33-3.97.21-.35,11.14-12.19c.58-.65,1.43-1.02,2.3-1.02.78,0,1.53.28,2.1.82l.03.03c1.27,1.15,1.35,3.14.2,4.4Z"/>
</svg>