<?xml version="1.0" encoding="UTF-8"?>
<svg id="Iconos" xmlns="http://www.w3.org/2000/svg" viewBox="0 0 50 50">
  <defs>
    <style>
      .cls-1 {
        fill: #263a4e;
      }
    </style>
  </defs>
  <path class="cls-1" d="M42.7,7.3C32.94-2.43,17.06-2.43,7.3,7.3c-9.74,9.76-9.74,25.63,0,35.39,9.76,9.74,25.63,9.74,35.39,0,9.74-9.76,9.74-25.63,0-35.39ZM34.62,35.59c0,1.05-.87,1.92-1.93,1.92h-15.39c-1.05,0-1.92-.87-1.92-1.92v-16.36h19.25v16.36ZM36.06,17.31H13.93v-1.45c0-.8.65-1.45,1.45-1.45h5.77v-.47c0-.8.65-1.45,1.45-1.45h4.8c.8,0,1.45.65,1.45,1.45v.47h5.77c.8,0,1.43.65,1.43,1.45v1.45ZM29.8,34.62c.53,0,.97-.43.97-.97v-10.57c0-.53-.43-.97-.97-.97s-.95.43-.95.97v10.57c0,.53.42.97.95.97ZM25,34.62c.53,0,.97-.43.97-.97v-10.57c0-.53-.43-.97-.97-.97s-.97.43-.97.97v10.57c0,.53.43.97.97.97ZM20.18,34.62c.53,0,.97-.43.97-.97v-10.57c0-.53-.43-.97-.97-.97s-.95.43-.95.97v10.57c0,.53.43.97.95.97Z"/>
</svg>