<?xml version="1.0" encoding="UTF-8"?><svg id="uuid-d6110ca0-8db8-4e9f-ba7e-4f20e845ab54" xmlns="http://www.w3.org/2000/svg" viewBox="0 0 50 50"><defs><style>.uuid-3e19ccf3-6e62-4ddb-9cb2-ffe1310cdce6{fill:#263a4e;}</style></defs><path class="uuid-3e19ccf3-6e62-4ddb-9cb2-ffe1310cdce6" d="M21.82,22.32h5.37c.28,0,.5-.22.5-.5v-3.43h-6.37v3.43c0,.28.23.5.5.5ZM25.74,19.62c0-.39.32-.72.72-.72s.72.33.72.72v1.47c0,.4-.32.72-.72.72s-.72-.32-.72-.72v-1.47Z"/><path class="uuid-3e19ccf3-6e62-4ddb-9cb2-ffe1310cdce6" d="M28.17,26.7h-6.35c-.27,0-.5.22-.5.49v4.41h7.35v-4.41c0-.27-.22-.49-.5-.49Z"/><path class="uuid-3e19ccf3-6e62-4ddb-9cb2-ffe1310cdce6" d="M29.14,21.82c0,1.07-.87,1.95-1.95,1.95h-5.37c-1.07,0-1.94-.88-1.94-1.95v-3.43h-.99c-.27,0-.5.23-.5.5v12.21c0,.28.23.5.5.5h.99v-4.41c0-1.07.87-1.94,1.94-1.94h6.35c1.07,0,1.94.87,1.94,1.94v4.41h.99c.28,0,.5-.22.5-.5v-10.2l-2.46-2.46v3.38Z"/><path class="uuid-3e19ccf3-6e62-4ddb-9cb2-ffe1310cdce6" d="M25,10c-8.29,0-15,6.71-15,15s6.71,15,15,15,15-6.72,15-15-6.72-15-15-15ZM33.04,31.1c0,1.07-.87,1.95-1.94,1.95h-12.21c-1.07,0-1.94-.88-1.94-1.95v-12.21c0-1.07.87-1.94,1.94-1.94h10.5c.19,0,.38.07.51.21l2.93,2.93c.14.14.21.32.21.51v10.5Z"/><path class="uuid-3e19ccf3-6e62-4ddb-9cb2-ffe1310cdce6" d="M21.82,22.32h5.37c.28,0,.5-.22.5-.5v-3.43h-6.37v3.43c0,.28.23.5.5.5ZM25.74,19.62c0-.39.32-.72.72-.72s.72.33.72.72v1.47c0,.4-.32.72-.72.72s-.72-.32-.72-.72v-1.47Z"/><path class="uuid-3e19ccf3-6e62-4ddb-9cb2-ffe1310cdce6" d="M28.17,26.7h-6.35c-.27,0-.5.22-.5.49v4.41h7.35v-4.41c0-.27-.22-.49-.5-.49Z"/><path class="uuid-3e19ccf3-6e62-4ddb-9cb2-ffe1310cdce6" d="M29.14,21.82c0,1.07-.87,1.95-1.95,1.95h-5.37c-1.07,0-1.94-.88-1.94-1.95v-3.43h-.99c-.27,0-.5.23-.5.5v12.21c0,.28.23.5.5.5h.99v-4.41c0-1.07.87-1.94,1.94-1.94h6.35c1.07,0,1.94.87,1.94,1.94v4.41h.99c.28,0,.5-.22.5-.5v-10.2l-2.46-2.46v3.38Z"/><path class="uuid-3e19ccf3-6e62-4ddb-9cb2-ffe1310cdce6" d="M25,10c-8.29,0-15,6.71-15,15s6.71,15,15,15,15-6.72,15-15-6.72-15-15-15ZM33.04,31.1c0,1.07-.87,1.95-1.94,1.95h-12.21c-1.07,0-1.94-.88-1.94-1.95v-12.21c0-1.07.87-1.94,1.94-1.94h10.5c.19,0,.38.07.51.21l2.93,2.93c.14.14.21.32.21.51v10.5Z"/></svg>