<?xml version="1.0" encoding="UTF-8"?>
<svg id="Iconos" xmlns="http://www.w3.org/2000/svg" viewBox="0 0 50 50">
  <defs>
    <style>
      .cls-1 {
        fill: #263a4e;
      }
    </style>
  </defs>
  <path class="cls-1" d="M25,0C11.21,0,0,11.25,0,24.99s11.21,25.01,25,25.01,25-11.23,25-25.01S38.79,0,25,0ZM38.64,24.86c-.25.29-6.12,7.09-13.64,7.09s-13.39-6.8-13.64-7.09c-.48-.57-.48-1.39,0-1.96.25-.29,6.12-7.09,13.64-7.09s13.39,6.8,13.64,7.09c.48.57.48,1.39,0,1.96Z"/>
  <path class="cls-1" d="M28.61,22.31c.51-.28.62-1.04.26-1.71s-1.07-.98-1.57-.71c-.51.28-.62,1.04-.26,1.71.36.67,1.07.98,1.57.71Z"/>
  <path class="cls-1" d="M29.78,19.33c.59.9.94,1.98.94,3.13,0,3.16-2.56,5.72-5.72,5.72s-5.72-2.56-5.72-5.72c0-1.16.35-2.23.94-3.13-3.03,1.31-5.38,3.49-6.42,4.55,1.53,1.58,5.95,5.61,11.19,5.61s9.67-4.03,11.19-5.61c-1.03-1.07-3.38-3.25-6.42-4.55Z"/>
</svg>