<?xml version="1.0" encoding="UTF-8"?>
<svg id="Iconos" xmlns="http://www.w3.org/2000/svg" viewBox="0 0 50 50">
  <defs>
    <style>
      .cls-1 {
        fill: #263a4e;
      }
    </style>
  </defs>
  <path class="cls-1" d="M21.54,11.17c-5.72,0-10.37,4.65-10.37,10.37s4.65,10.37,10.37,10.37,10.37-4.65,10.37-10.37-4.65-10.37-10.37-10.37ZM18.46,26.39h-3.63v-6.51h3.63v6.51ZM22.86,26.39h-3.64v-8.68h3.64v8.68ZM27.12,26.39h-3.48v-10.85h3.48v10.85Z"/>
  <path class="cls-1" d="M25.02,0C11.25,0,0,11.25,0,24.99s11.25,25.01,25.02,25.01,24.98-11.23,24.98-25.01S38.75,0,25.02,0ZM41.19,41.19c-.27.27-.62.41-.98.41s-.71-.14-.98-.41l-9.44-9.44c-2.26,1.83-5.13,2.93-8.25,2.93-7.24,0-13.13-5.89-13.13-13.13s5.89-13.13,13.13-13.13,13.13,5.89,13.13,13.13c0,3.12-1.1,5.99-2.93,8.25l9.44,9.44c.54.54.54,1.41,0,1.96Z"/>
</svg>