<?xml version="1.0" encoding="UTF-8"?>
<svg id="Iconos" xmlns="http://www.w3.org/2000/svg" viewBox="0 0 50 50">
  <defs>
    <style>
      .cls-1 {
        fill: #263a4e;
      }
    </style>
  </defs>
  <path class="cls-1" d="M30.86,19.88l-.54.54c.25.64.39,1.35.39,2.1,0,3.16-2.55,5.71-5.71,5.71-.75,0-1.45-.14-2.1-.39l-1.19,1.19c1.05.31,2.15.51,3.29.51,5.25,0,9.67-4.02,11.19-5.61-.89-.93-2.83-2.74-5.33-4.05Z"/>
  <path class="cls-1" d="M25.03,0C11.25,0,0,11.25,0,24.99s11.25,25.01,25.03,25.01,24.97-11.23,24.97-25.01S38.76,0,25.03,0ZM11.36,24.91c-.48-.56-.48-1.39,0-1.96.25-.29,6.13-7.09,13.64-7.09,1.62,0,3.17.31,4.61.82l-9.21,9.2c-.71-.94-1.11-2.1-1.11-3.37,0-1.17.34-2.24.93-3.14-3.03,1.31-5.37,3.5-6.41,4.56.84.88,2.55,2.49,4.81,3.75l-1.79,1.78c-3.22-1.96-5.32-4.38-5.46-4.55ZM38.64,24.91c-.25.29-6.12,7.09-13.64,7.09-1.86,0-3.62-.42-5.21-1.05l-3,3c-.2.2-.47.3-.73.3s-.54-.1-.75-.3c-.13-.14-.22-.3-.26-.47-.1-.35-.01-.73.26-1.01l2.46-2.46,1.82-1.82,1.52-1.52,9.56-9.56,3.27-3.27c.28-.27.66-.37,1.01-.27.17.05.34.13.47.27.41.41.41,1.07,0,1.48l-2.76,2.78c3.51,2,5.82,4.68,5.97,4.86.48.58.48,1.4,0,1.96Z"/>
</svg>