<?xml version="1.0" encoding="UTF-8"?>
<svg id="Iconos" xmlns="http://www.w3.org/2000/svg" viewBox="0 0 50 50">
  <defs>
    <style>
      .cls-1 {
        fill: #263a4e;
      }
    </style>
  </defs>
  <path class="cls-1" d="M42.69,7.31c-9.75-9.75-25.62-9.75-35.37,0-9.75,9.75-9.75,25.62,0,35.37,9.75,9.75,25.62,9.75,35.37,0,9.75-9.75,9.75-25.62,0-35.37ZM24.99,39.51c-.79.01-1.53-.31-2.1-.87-.57-.57-.87-1.3-.87-2.1v-8.56s-8.57-.01-8.57-.01c-1.58,0-2.97-1.39-2.97-2.97,0-.8.32-1.54.87-2.1s1.31-.88,2.11-.88h8.56s0-8.56,0-8.56c0-1.65,1.33-2.98,2.98-2.98,1.64.01,2.97,1.34,2.97,2.97v8.58s8.57-.01,8.57-.01c.79-.01,1.53.35,2.08.9.54.54.91,1.29.9,2.08,0,1.65-1.33,2.98-2.98,2.98h-8.56s0,8.56,0,8.56c0,.8-.31,1.56-.87,2.12s-1.31.86-2.11.86Z"/>
</svg>