<?xml version="1.0" encoding="UTF-8"?>
<svg id="Iconos" xmlns="http://www.w3.org/2000/svg" viewBox="0 0 50 50">
  <defs>
    <style>
      .cls-1 {
        fill: #263a4e;
      }
    </style>
  </defs>
  <g>
    <path class="cls-1" d="M21.64,28.68v10.16c0,1.23.97,2.19,2.16,2.19h14.7v5.14c0,2.12-1.71,3.83-3.83,3.83H5.12c-2.12,0-3.83-1.71-3.83-3.83V3.83C1.29,1.71,3,0,5.12,0h20.5c-.04.19-.07.41-.07.63v10.6c0,1.34,1.08,2.46,2.42,2.46h9.97c.19,0,.37-.04.56-.07v12.87h-14.7c-1.19,0-2.16,1-2.16,2.19Z"/>
    <path class="cls-1" d="M27.39.64v10.6c0,.31.25.57.57.57h9.96c.5,0,.75-.59.41-.95L28.37.26c-.35-.37-.98-.13-.98.39Z"/>
  </g>
  <g>
    <path class="cls-1" d="M28.1,33.63l-2.19-4.09h2.12l.73,1.59c.19.39.37.82.61,1.35h.05c.19-.53.37-.96.54-1.35l.67-1.59h2.03l-2.19,4.18,2.33,4.25h-2.12l-.83-1.72c-.21-.44-.41-.87-.63-1.39h-.05c-.2.52-.39.95-.58,1.39l-.79,1.72h-2.03l2.33-4.34Z"/>
    <path class="cls-1" d="M35.28,29.54h1.91v6.83h3.33v1.6h-5.24v-8.43Z"/>
    <path class="cls-1" d="M42.41,36.91l1.09-1.31c.6.52,1.38.88,2.07.88.8,0,1.19-.31,1.19-.81,0-.53-.48-.7-1.22-1l-1.1-.47c-.87-.36-1.7-1.07-1.7-2.3,0-1.4,1.25-2.51,3-2.51.97,0,1.99.38,2.71,1.1l-.96,1.2c-.56-.43-1.08-.66-1.75-.66s-1.08.27-1.08.76c0,.52.55.71,1.29,1l1.07.43c1.03.42,1.67,1.1,1.67,2.29,0,1.4-1.17,2.61-3.18,2.61-1.1,0-2.26-.42-3.12-1.22Z"/>
  </g>
</svg>