<?xml version="1.0" encoding="UTF-8"?>
<svg id="Iconos" xmlns="http://www.w3.org/2000/svg" viewBox="0 0 50 50">
  <defs>
    <style>
      .cls-1 {
        fill: #263a4e;
      }
    </style>
  </defs>
  <g>
    <path class="cls-1" d="M21.05,28.68v10.16c0,1.23.97,2.19,2.16,2.19h14.7v5.14c0,2.12-1.71,3.83-3.83,3.83H4.54c-2.12,0-3.83-1.71-3.83-3.83V3.83C.7,1.71,2.42,0,4.54,0h20.5c-.04.19-.07.41-.07.63v10.6c0,1.34,1.08,2.46,2.42,2.46h9.97c.19,0,.37-.04.56-.07v12.87h-14.7c-1.19,0-2.16,1-2.16,2.19Z"/>
    <path class="cls-1" d="M26.81.64v10.6c0,.31.25.57.57.57h9.96c.5,0,.75-.59.41-.95L27.79.26c-.35-.37-.98-.13-.98.39Z"/>
  </g>
  <g>
    <path class="cls-1" d="M25.58,33.81c0-2.8,1.85-4.42,3.98-4.42,1.09,0,1.97.51,2.54,1.09l-1.01,1.22c-.42-.39-.88-.67-1.49-.67-1.16,0-2.07,1.02-2.07,2.71s.81,2.74,2.04,2.74c.69,0,1.24-.34,1.65-.79l1,1.2c-.7.81-1.63,1.24-2.72,1.24-2.14,0-3.92-1.48-3.92-4.32Z"/>
    <path class="cls-1" d="M33.93,36.91l1.09-1.31c.6.52,1.38.88,2.07.88.8,0,1.19-.31,1.19-.81,0-.53-.48-.7-1.22-1l-1.1-.47c-.87-.36-1.7-1.07-1.7-2.3,0-1.4,1.25-2.51,3-2.51.97,0,1.99.38,2.71,1.1l-.96,1.2c-.56-.43-1.08-.66-1.75-.66s-1.08.27-1.08.76c0,.52.55.71,1.29,1l1.07.43c1.03.42,1.67,1.1,1.67,2.29,0,1.4-1.17,2.61-3.18,2.61-1.1,0-2.26-.42-3.12-1.22Z"/>
    <path class="cls-1" d="M41.91,29.54h2.02l1.02,3.93c.25.92.42,1.77.68,2.7h.05c.26-.93.44-1.78.68-2.7l1-3.93h1.95l-2.54,8.43h-2.29l-2.55-8.43Z"/>
  </g>
</svg>