<?xml version="1.0" encoding="UTF-8"?>
<svg id="Iconos" xmlns="http://www.w3.org/2000/svg" viewBox="0 0 50 50">
  <defs>
    <style>
      .cls-1 {
        fill: #263a4e;
      }
    </style>
  </defs>
  <g>
    <path class="cls-1" d="M23.13,33.32c0-2.55,1.69-4.03,3.63-4.03.99,0,1.79.47,2.31,1l-.92,1.11c-.39-.36-.8-.61-1.36-.61-1.05,0-1.89.93-1.89,2.47s.74,2.5,1.86,2.5c.63,0,1.13-.31,1.5-.72l.92,1.09c-.64.74-1.49,1.13-2.48,1.13-1.95,0-3.58-1.35-3.58-3.94Z"/>
    <path class="cls-1" d="M29.47,33.24c0-2.51,1.42-3.95,3.49-3.95s3.49,1.45,3.49,3.95-1.42,4.02-3.49,4.02-3.49-1.51-3.49-4.02ZM34.67,33.24c0-1.54-.66-2.45-1.71-2.45s-1.71.91-1.71,2.45.66,2.52,1.71,2.52,1.71-.98,1.71-2.52Z"/>
    <path class="cls-1" d="M37.81,29.43h2.64c1.69,0,3.05.6,3.05,2.47s-1.38,2.61-3.01,2.61h-.95v2.61h-1.74v-7.68ZM40.39,33.13c.96,0,1.41-.43,1.41-1.23s-.51-1.09-1.45-1.09h-.8v2.32h.85Z"/>
    <path class="cls-1" d="M45.95,34.38l-2.32-4.94h1.86l.69,1.77c.21.58.41,1.11.63,1.7h.05c.22-.6.44-1.13.65-1.7l.69-1.77h1.81l-2.31,4.94v2.74h-1.74v-2.74Z"/>
  </g>
  <g>
    <path class="cls-1" d="M19.23,28.48v9.6c0,1.16.91,2.07,2.04,2.07h13.89v4.85c0,2-1.62,3.62-3.62,3.62H3.62c-2,0-3.62-1.62-3.62-3.62V5C0,2.99,1.62,1.38,3.62,1.38h19.37c-.04.18-.07.39-.07.6v10.02c0,1.27,1.02,2.32,2.28,2.32h9.42c.18,0,.35-.04.53-.07v12.16h-13.89c-1.12,0-2.04.95-2.04,2.07Z"/>
    <path class="cls-1" d="M24.67,1.99v10.02c0,.3.24.54.54.54h9.41c.47,0,.71-.56.39-.9L25.59,1.62c-.33-.35-.93-.12-.93.37Z"/>
  </g>
</svg>