<?xml version="1.0" encoding="UTF-8"?>
<svg id="Iconos" xmlns="http://www.w3.org/2000/svg" viewBox="0 0 50 50">
  <defs>
    <style>
      .cls-1 {
        fill: #263a4e;
      }
    </style>
  </defs>
  <g>
    <path class="cls-1" d="M21.15,28.68v10.16c0,1.23.97,2.19,2.16,2.19h14.7v5.14c0,2.12-1.71,3.83-3.83,3.83H4.64c-2.12,0-3.83-1.71-3.83-3.83V3.83C.8,1.71,2.52,0,4.64,0h20.5c-.04.19-.07.41-.07.63v10.6c0,1.34,1.08,2.46,2.42,2.46h9.97c.19,0,.37-.04.56-.07v12.87h-14.7c-1.19,0-2.16,1-2.16,2.19Z"/>
    <path class="cls-1" d="M26.91.64v10.6c0,.31.25.57.57.57h9.96c.5,0,.75-.59.41-.95L27.89.26c-.35-.37-.98-.13-.98.39Z"/>
  </g>
  <g>
    <path class="cls-1" d="M25.28,29.7h2.9c1.86,0,3.35.66,3.35,2.71s-1.51,2.86-3.3,2.86h-1.04v2.86h-1.91v-8.43ZM28.12,33.75c1.05,0,1.54-.47,1.54-1.34s-.56-1.2-1.6-1.2h-.88v2.54h.93Z"/>
    <path class="cls-1" d="M34.33,29.7h2.38c2.58,0,4.23,1.28,4.23,4.18s-1.66,4.25-4.13,4.25h-2.49v-8.43ZM36.59,36.59c1.43,0,2.4-.7,2.4-2.72s-.97-2.64-2.4-2.64h-.36v5.36h.36Z"/>
    <path class="cls-1" d="M43.87,29.7h5.32v1.6h-3.42v1.96h2.92v1.6h-2.92v3.28h-1.91v-8.43Z"/>
  </g>
</svg>