<?xml version="1.0" encoding="UTF-8"?>
<svg id="Iconos" xmlns="http://www.w3.org/2000/svg" viewBox="0 0 50 50">
  <defs>
    <style>
      .cls-1 {
        fill: #fff;
      }
    </style>
  </defs>
  <path class="cls-1" d="M20.06,1.49c0,.24.35,0,.4.16-.55,2.64-1.06,5.3-.7,8.68.52,4.92,3.05,7.39,5.03,10.1,1.08-3.21,2.56-5.85,4.5-8.36,1.84-2.36,4.05-4.56,3.77-9.11-.02-.37-.13-.76-.12-1.16.25,0,.38-.15.63-.16,1.29,5.06-.76,8.52-2.74,11.49-.76,1.15-1.52,2.51-2.17,3.93-.66,1.43-1.34,3.02-1.54,4.62-.12.97.05,2.04.6,2.54,1.27.03,2.04-.81,3.06-1.41.83-.5,1.71-.92,2.43-1.31,4.73-2.61,8.01-7.27,9.67-13.14.22.06.44.13.65.21-.87,4.97-2.95,8.59-5.53,11.66,2.53,1.52,7.12.47,9.52-1.01.51-.31,1.29-.9,1.79-1.33.1-.08.53-.57.69-.04.13.44-1.08,1.37-1.42,1.68-1.7,1.49-3.89,2.66-6.4,2.96-.65.08-1.46.03-1.96.06-4.67.28-8.28,1.8-10.41,4.98-1.09,1.63-1.54,3.75-1.52,6.52,0,1.33.03,2.71,0,4.1-.03,1.29-.2,2.61-.21,3.87-.01,2.22.82,3.46,2.25,3.97-4.09.39-6.64,2.21-10.82,2.5,2.13-1.35,1.88-5.81,2.87-8.82.34-1.04.69-2.19.58-3.4-.14-1.51.4-.99.7-2.25.92-4-.74-6.93-2.92-8.4-1.6-1.08-3.47-2.63-5.89-2.28-1.36.2-2.68.75-4.32.81-4.11.15-7.51-1.31-10.05-3.62-.16-.14-.51-.31-.48-.64.15-.72.88.11,1.25.35,2.97,1.95,8.16,3.32,12.41,1.27-2.98-2.5-5.63-5.47-7.32-9.78.19-.13.39-.26.62-.34,2.3,4.46,5.64,7.95,10.02,9.68.73.29,1.48.53,2.21.85,1.03.45,1.92,1.19,3.15.91.29-1.02-.27-1.83-.69-2.47-1.34-2.04-2.51-3.87-3.13-7.04-.88-4.47-.08-8.57.81-11.68.15,0,.29-.02.44-.03"/>
</svg>