<?xml version="1.0" encoding="UTF-8"?>
<svg id="Logo" xmlns="http://www.w3.org/2000/svg" viewBox="0 0 320.92 151.28">
  <defs>
    <style>
      .cls-1 {
        fill: #486a41;
      }

      .cls-2 {
        fill: #393835;
      }

      .cls-3 {
        fill: #465d40;
      }

      .cls-4 {
        fill: #5f5e5e;
        fill-rule: evenodd;
      }

      .cls-5 {
        fill: #414b3d;
      }

      .cls-6 {
        fill: #4b7940;
      }
    </style>
  </defs>
  <path class="cls-6" d="M105.57,112.12c-.2.59-.34,1.16-.42,1.73l-6.97,22.8-15.31-.06-15.24-51.47h16.48c1.17,4.39,2.38,8.82,3.62,13.29,1.24,4.47,2.42,8.95,3.55,13.42l.2.78.19-.65.52-1.96c.09-.26.15-.48.2-.65.04-.17.07-.3.07-.39l6.32-23.85h14.14l6.84,24.24c.09.35.22.81.39,1.37.17.57.3,1.02.39,1.37l.19.52.13-.45c1.17-4.56,2.32-9.05,3.45-13.46,1.13-4.41,2.28-8.93,3.45-13.58h16.03l-14.4,51.47h-15.44l-6.84-22.74c-.09-.48-.21-.96-.36-1.43-.15-.48-.32-.96-.49-1.43l-.13-.52c-.18.52-.36,1.08-.55,1.66"/>
  <path class="cls-1" d="M72.97,129.06c-.22-.28-.32-.77-.32-1.59v-9.4h3.79l-2.22-7.57h-1.57v-5.29l-.74-2.79-9.2,2.75v5.34h-4.26v7.57h4.26v10.21c0,3.1.54,5.38,1.84,6.83,1.3,1.46,3.37,2.18,6.31,2.18.32,0,.72,0,1.25-.02.54-.02,1.08-.04,1.65-.07.57-.03,1.17-.06,1.71-.09.54-.03.95-.08,1.43-.14v-7.54h-2.91c-.47,0-.81-.07-1.03-.36"/>
  <path class="cls-1" d="M157.73,136.91c-6.82,0-11.88-1.53-15.18-4.59-3.3-3.06-4.95-7.7-4.95-13.91s1.65-10.85,4.95-13.91c3.3-3.06,8.38-4.59,15.25-4.59,13.42,0,20.13,6.17,20.13,18.5,0,6.21-1.72,10.85-5.15,13.91-3.43,3.06-8.45,4.59-15.05,4.59M157.79,109.15c-.91,0-1.76.14-2.54.42-.78.28-1.46.78-2.02,1.5-.57.72-1,1.66-1.3,2.83-.3,1.17-.46,2.67-.46,4.5s.16,3.33.49,4.53c.33,1.2.76,2.13,1.3,2.8.54.67,1.19,1.15,1.95,1.43.76.28,1.6.42,2.51.42s1.76-.14,2.54-.42c.78-.28,1.45-.77,2.02-1.47.57-.69,1.01-1.64,1.34-2.83.33-1.19.49-2.68.49-4.46s-.16-3.33-.49-4.53c-.33-1.19-.76-2.14-1.3-2.83-.55-.69-1.21-1.18-1.99-1.47-.78-.28-1.63-.42-2.54-.42"/>
  <path class="cls-2" d="M275.2,122.01c-8.08,0-14.63,6.56-14.63,14.63s6.55,14.63,14.63,14.63,14.63-6.55,14.63-14.63-6.56-14.63-14.63-14.63ZM275.47,134.8h-.29c.02-.13.02-.24.02-.36,0-.79-.19-1.41-.56-1.84-.38-.42-.87-.64-1.48-.64-.67,0-1.3.25-1.88.73-.58.49-1.1,1.33-1.55,2.51-.45,1.19-.67,2.23-.67,3.14,0,.8.19,1.46.57,1.96.39.51.9.77,1.56.77,1.29,0,2.35-.93,3.19-2.78h.31l-.94,3.04h-.29c0-.29-.02-.6-.07-.94-.67.66-1.45.98-2.32.98-1,0-1.81-.36-2.39-1.09-.59-.73-.88-1.55-.88-2.48,0-1.48.54-2.88,1.6-4.19,1.07-1.31,2.27-1.96,3.61-1.96.57,0,1.04.12,1.43.36.39.25.68.61.88,1.1.21-.35.37-.71.48-1.08h.3l-.63,2.73ZM282.95,139.5c-1.02,1.26-2.14,1.89-3.35,1.89-.9,0-1.65-.32-2.24-.98-.6-.65-.91-1.58-.91-2.77,0-.88.26-1.82.79-2.83.53-1.01,1.18-1.78,1.96-2.32.79-.54,1.54-.8,2.27-.8.39,0,.81.1,1.27.3.47.2.87.6,1.22,1.2.34.6.51,1.33.51,2.19,0,1.49-.51,2.87-1.53,4.13ZM281.46,132.01c-.64,0-1.24.3-1.81.92-.57.61-1.04,1.47-1.41,2.56-.36,1.1-.55,2.05-.55,2.85,0,.65.07,1.16.19,1.51.13.36.33.65.63.88.3.23.66.36,1.07.36.65,0,1.25-.32,1.81-.96.56-.64,1.02-1.53,1.38-2.69.36-1.14.54-2.12.54-2.94s-.17-1.45-.52-1.87c-.35-.42-.79-.63-1.34-.63Z"/>
  <path class="cls-5" d="M248.71,78.28c-1.15.39-2.27.9-3.37,1.53v22.89c-1.3-.87-2.78-1.53-4.43-1.99-1.65-.46-3.37-.68-5.15-.68-2.08,0-4.09.3-6.03.91-1.93.61-3.63,1.63-5.08,3.06-1.46,1.43-2.63,3.32-3.52,5.67-.89,2.35-1.34,5.24-1.34,8.67,0,3.21.37,5.98,1.11,8.31.74,2.32,1.81,4.25,3.23,5.77,1.41,1.52,3.1,2.64,5.08,3.36,1.98.72,4.2,1.07,6.68,1.07,2,0,3.83-.26,5.51-.78,1.67-.52,3.05-1.15,4.14-1.89v2.41h13.55v-60.52c-3.38.16-6.77,1-10.38,2.22M245.31,121.7c-.07,1.11-.27,2.12-.62,3.03-.35.91-.92,1.66-1.73,2.25-.8.59-1.92.88-3.36.88-.91,0-1.72-.14-2.44-.42-.71-.28-1.33-.78-1.86-1.5-.52-.72-.92-1.67-1.2-2.87-.28-1.19-.42-2.72-.42-4.59,0-3.48.51-5.91,1.53-7.3,1.02-1.39,2.51-2.08,4.46-2.08,1.65,0,2.95.44,3.91,1.3.96.87,1.52,2.21,1.69,4.04.04.52.08,1.11.1,1.76.02.65.03,1.41.03,2.28,0,1.04-.03,2.12-.1,3.22"/>
  <path class="cls-5" d="M26.34,130.17h-11.96l-2.28,6.83H0l13.95-37.49h12.91l13.86,37.49h-12l-2.37-6.83ZM20.74,113.28c-.13-.38-.24-.69-.33-.95l-.05-.28-.09.24c-.06.28-.16.61-.29.97-.13.36-.21.69-.24.97l-2.47,7.78h6.22l-2.52-7.78c-.03-.25-.11-.57-.24-.95"/>
  <path class="cls-3" d="M56.55,110.5c-1.93,0-3.51.17-4.91.61-1.41.44-2.64,1.11-3.58,2.13v-2.73h-10.41v16.72l3.78,9.77h6.63v-15.12c0-.6.34-1.16.64-1.69.3-.52.64-.97,1.12-1.35.48-.38,1.04-.68,1.76-.9.71-.22,1.56-.33,2.57-.33.41,0,1.09.07,1.85.21.76.14,1.52.29,1.99.45v-7.76h-1.44Z"/>
  <path class="cls-4" d="M287.78,7c-.49.49.71.69.49,1.14-6.47,4.22-12.86,8.58-18.97,16.13-8.9,11-8.77,21.11-10.26,30.62,8.68-4.32,17.01-6.67,26.01-7.79,8.51-1.06,17.41-1.04,26.05-10.8.7-.79,1.27-1.79,2.1-2.58.53.49,1.07.46,1.6.95-7.63,12.84-18.76,15.7-28.8,17.71-3.86.77-8.15,2.02-12.33,3.56-4.23,1.56-8.83,3.41-12.46,6.24-2.2,1.72-4.02,4.24-3.92,6.34,2.5,2.63,5.76,2.5,9.04,3.33,2.69.68,5.32,1.61,7.56,2.26,14.84,4.3,30.9,1.5,46.13-7.02.32.58.61,1.15.9,1.73-11.8,8.3-23.34,11.39-34.78,12.4,2.04,8.2,13.46,15.36,21.29,17.22,1.67.4,4.43.77,6.31.92.36.03,2.22-.08,1.47,1.3-.62,1.14-4.95.6-6.27.52-6.45-.41-13.26-2.48-18.94-6.97-1.46-1.15-3-2.89-4.09-3.85-10.01-8.87-20.4-13.11-31.12-10.98-5.52,1.09-10.7,4.48-16.27,10.12-2.67,2.7-5.42,5.55-8.29,8.31-2.67,2.56-5.68,4.86-8.25,7.41-4.52,4.48-5.34,8.66-3.46,12.58-9.06-7.48-17.91-8.97-26.95-16.82,7.04,1.57,15.55-7.94,23.64-12.03,2.79-1.41,5.84-3.04,8.05-5.71,2.77-3.34,2.8-1.19,5.96-3.13,9.95-6.24,12.51-15.51,11.08-22.88-1.05-5.41-1.72-12.34-7.3-16.51-3.15-2.36-6.95-3.9-10.39-7.1-8.62-8.02-12.54-17.84-13.01-27.63-.03-.6-.39-1.65.33-2.28,1.77-1.16,1.56,2.01,1.81,3.24,2.06,9.95,9.81,23.22,22.53,27.67-.95-11.09-.31-22.45,4.97-34.6.65.14,1.3.26,1.94.56-4.38,13.68-4.68,27.5.69,39.85.89,2.05,1.92,4.05,2.77,6.19,1.18,2.99,1.47,6.3,4.53,8.22,2.63-1.48,3.15-4.25,3.6-6.39,1.43-6.83,2.76-12.9,7.9-20.56,7.26-10.81,17.17-17.49,25.28-21.99.32.28.63.56.95.84"/>
  <path class="cls-2" d="M287.78,7c-.49.49.71.69.49,1.14-6.47,4.22-12.86,8.58-18.97,16.13-8.9,11-8.77,21.11-10.26,30.62,8.68-4.32,17.01-6.67,26.01-7.79,8.51-1.06,17.41-1.04,26.05-10.8.7-.79,1.27-1.79,2.1-2.58.53.49,1.07.46,1.6.95-7.63,12.84-18.76,15.7-28.8,17.71-3.86.77-8.15,2.02-12.33,3.56-4.23,1.56-8.83,3.41-12.46,6.24-2.2,1.72-4.02,4.24-3.92,6.34,2.5,2.63,5.76,2.5,9.04,3.33,2.69.68,5.32,1.61,7.56,2.26,14.84,4.3,30.9,1.5,46.13-7.02.32.58.61,1.15.9,1.73-11.8,8.3-23.34,11.39-34.78,12.4,2.04,8.2,13.46,15.36,21.29,17.22,1.67.4,4.43.77,6.31.92.36.03,2.22-.08,1.47,1.3-.62,1.14-4.95.6-6.27.52-6.45-.41-13.26-2.48-18.94-6.97-1.46-1.15-3-2.89-4.09-3.85-10.01-8.87-20.4-13.11-31.12-10.98-5.52,1.09-10.7,4.48-16.27,10.12-2.67,2.7-5.42,5.55-8.29,8.31-2.67,2.56-5.68,4.86-8.25,7.41-4.52,4.48-5.34,8.66-3.46,12.58-9.06-7.48-17.91-8.97-26.95-16.82,7.04,1.57,15.55-7.94,23.64-12.03,2.79-1.41,5.84-3.04,8.05-5.71,2.77-3.34,2.8-1.19,5.96-3.13,9.95-6.24,12.51-15.51,11.08-22.88-1.05-5.41-1.72-12.34-7.3-16.51-3.15-2.36-6.95-3.9-10.39-7.1-8.62-8.02-12.54-17.84-13.01-27.63-.03-.6-.39-1.65.33-2.28,1.77-1.16,1.56,2.01,1.81,3.24,2.06,9.95,9.81,23.22,22.53,27.67-.95-11.09-.31-22.45,4.97-34.6.65.14,1.3.26,1.94.56-4.38,13.68-4.68,27.5.69,39.85.89,2.05,1.92,4.05,2.77,6.19,1.18,2.99,1.47,6.3,4.53,8.22,2.63-1.48,3.15-4.25,3.6-6.39,1.43-6.83,2.76-12.9,7.9-20.56,7.26-10.81,17.17-17.49,25.28-21.99.32.28.63.56.95.84"/>
  <path class="cls-3" d="M199.08,136.65c-6.82,0-11.88-1.53-15.18-4.59-3.3-3.06-4.95-7.7-4.95-13.91s1.65-10.85,4.95-13.91c3.3-3.06,8.38-4.59,15.25-4.59,13.42,0,20.13,6.17,20.13,18.5,0,6.21-1.71,10.85-5.15,13.91-3.43,3.06-8.45,4.59-15.05,4.59M199.15,108.89c-.91,0-1.76.14-2.54.42-.78.28-1.46.78-2.02,1.5-.57.72-1,1.66-1.3,2.83-.3,1.17-.45,2.67-.45,4.5s.16,3.33.49,4.53c.32,1.2.76,2.13,1.3,2.8.54.67,1.19,1.15,1.96,1.43.76.28,1.59.42,2.51.42s1.76-.14,2.54-.42c.78-.28,1.45-.77,2.02-1.47.56-.69,1.01-1.64,1.34-2.83.33-1.2.49-2.68.49-4.46s-.16-3.33-.49-4.53c-.33-1.19-.76-2.14-1.3-2.83-.55-.69-1.21-1.18-1.99-1.47-.78-.28-1.63-.42-2.54-.42"/>
</svg>