<?xml version="1.0" encoding="UTF-8"?>
<svg id="Logo" xmlns="http://www.w3.org/2000/svg" viewBox="0 0 143.03 134.48">
  <defs>
    <style>
      .cls-1 {
        fill: #fff;
      }
    </style>
  </defs>
  <path class="cls-1" d="M57.38,0c0,.69.99,0,1.15.46-1.59,7.56-3.03,15.16-2.01,24.82,1.48,14.07,8.72,21.13,14.4,28.9,3.08-9.19,7.31-16.75,12.89-23.9,5.27-6.76,11.58-13.05,10.79-26.05-.06-1.06-.36-2.16-.34-3.31.72-.03,1.09-.43,1.8-.46,3.69,14.47-2.16,24.37-7.84,32.88-2.18,3.28-4.34,7.19-6.2,11.24-1.89,4.09-3.83,8.65-4.4,13.23-.34,2.77.16,5.84,1.71,7.25,3.63.09,5.84-2.31,8.75-4.03,2.38-1.42,4.89-2.62,6.94-3.75,13.53-7.46,22.91-20.79,27.66-37.59.63.18,1.25.38,1.87.59-2.48,14.21-8.45,24.56-15.83,33.37,7.24,4.36,20.38,1.34,27.23-2.88,1.46-.9,3.68-2.58,5.11-3.81.27-.23,1.51-1.63,1.96-.12.37,1.24-3.08,3.93-4.06,4.8-4.85,4.28-11.13,7.62-18.32,8.47-1.85.22-4.17.08-5.61.17-13.35.81-23.69,5.15-29.77,14.24-3.13,4.67-4.39,10.73-4.35,18.66.02,3.8.09,7.75.01,11.74-.08,3.7-.58,7.46-.59,11.07-.03,6.36,2.35,9.9,6.45,11.35-11.69,1.12-19.01,6.32-30.95,7.16,6.09-3.87,5.38-16.61,8.21-25.22.98-2.98,1.98-6.28,1.66-9.73-.4-4.32,1.14-2.82,2-6.43,2.62-11.45-2.12-19.82-8.34-24.02-4.57-3.08-9.94-7.51-16.84-6.51-3.9.56-7.67,2.16-12.37,2.33-11.77.42-21.48-3.75-28.74-10.34-.44-.4-1.45-.89-1.38-1.84.43-2.07,2.52.32,3.57,1.01,8.49,5.58,23.36,9.49,35.5,3.63-8.51-7.17-16.09-15.65-20.95-27.98.56-.36,1.1-.74,1.77-.98,6.58,12.77,16.13,22.75,28.66,27.69,2.08.82,4.23,1.5,6.33,2.42,2.94,1.28,5.49,3.42,9.01,2.61.82-2.91-.78-5.24-1.97-7.06-3.82-5.84-7.17-11.07-8.95-20.13-2.51-12.78-.22-24.51,2.33-33.42.42-.03.84-.05,1.26-.08"/>
</svg>