<?xml version="1.0" encoding="UTF-8"?>
<svg id="Iconos" xmlns="http://www.w3.org/2000/svg" viewBox="0 0 50 50">
  <defs>
    <style>
      .cls-1 {
        fill: #263a4e;
      }
    </style>
  </defs>
  <path class="cls-1" d="M47.24,16.92l-13.15-1.91c-.13-.02-.25-.11-.31-.23l-5.88-11.92c-.78-1.59-2.72-2.25-4.32-1.47-.63.31-1.15.83-1.46,1.47l-5.88,11.92c-.06.12-.18.21-.31.23l-13.15,1.91c-.85.12-1.61.57-2.12,1.26-.52.69-.73,1.54-.61,2.39.1.7.44,1.35.94,1.85l9.52,9.28c.1.1.14.24.12.37l-2.25,13.1c-.15.85.05,1.7.54,2.41.5.7,1.24,1.17,2.09,1.32.7.12,1.42,0,2.05-.32l11.76-6.19c.12-.06.27-.06.39,0l11.76,6.18c.47.25.98.37,1.5.37.32,0,.64-.05.96-.15.82-.26,1.5-.82,1.9-1.58.33-.63.45-1.35.33-2.05l-2.25-13.09c-.02-.13.02-.27.12-.37l9.52-9.28c1.27-1.24,1.3-3.29.06-4.56-.49-.51-1.15-.84-1.85-.94ZM13.38,32.54c.18-1.05-.17-2.11-.93-2.86L2.94,20.41c-.16-.16-.17-.42,0-.59.06-.06.15-.11.24-.12l13.15-1.91c1.05-.15,1.96-.81,2.43-1.76l5.88-11.92c.05-.1.13-.17.24-.21.1-.04.21-.03.32.02.08.04.15.11.19.19l5.88,11.92c.47.95,1.38,1.61,2.43,1.77l13.15,1.91c.11.02.21.07.27.16.07.09.09.2.08.31-.01.09-.06.17-.12.24l-9.52,9.28c-.76.74-1.11,1.81-.93,2.85h0s2.25,13.1,2.25,13.1c.04.23-.11.44-.34.48-.09.01-.18,0-.26-.04l-11.76-6.18c-.47-.25-.99-.37-1.5-.37s-1.03.12-1.5.37l-11.76,6.18c-.2.11-.46.03-.56-.17-.04-.08-.06-.18-.04-.27l2.25-13.1Z"/>
  <path class="cls-1" d="M18.19,36.3h14.42c.77,0,1.4-.63,1.4-1.4v-1.58c0-3.05-1.68-5.81-4.32-7.23,2.05-2.13,2.25-5.51.35-7.87-2.06-2.56-5.82-2.96-8.38-.9-2.56,2.06-2.96,5.82-.9,8.37.11.14.23.27.35.4-2.65,1.42-4.32,4.19-4.32,7.24v1.58c0,.77.63,1.4,1.41,1.4ZM25.4,25.1c-1.74,0-3.15-1.41-3.15-3.15,0-1.73,1.42-3.14,3.15-3.15,1.73,0,3.15,1.41,3.15,3.15s-1.41,3.15-3.15,3.15ZM25,27.91h.79c2.98,0,5.4,2.43,5.41,5.41v.17h-11.61v-.17c0-2.98,2.43-5.4,5.41-5.41Z"/>
</svg>