<?xml version="1.0" encoding="UTF-8"?>
<svg id="Iconos" xmlns="http://www.w3.org/2000/svg" viewBox="0 0 50.5 50.5">
  <defs>
    <style>
      .cls-1 {
        fill: #263a4e;
      }
    </style>
  </defs>
  <path class="cls-1" d="M4.41,20.5h0c.28,0,.56-.11.76-.32l3.33-3.33c.42-.42.42-1.11,0-1.54s-1.11-.42-1.54,0l-3.33,3.33c-.2.2-.32.48-.32.77s.12.57.32.77c.2.2.48.31.76.31Z"/>
  <path class="cls-1" d="M11.98,15.31L3.65,23.65c-.2.2-.32.48-.32.77s.12.57.32.77c.2.2.48.31.76.31h0c.28,0,.56-.11.76-.32l8.33-8.33c.42-.42.42-1.11,0-1.54s-1.11-.42-1.54,0Z"/>
  <path class="cls-1" d="M47.75,0h-21.67c-1.52,0-2.75,1.23-2.75,2.75v8.92H4.42c-2.44,0-4.42,1.98-4.42,4.42v21.67c0,2.44,1.98,4.42,4.42,4.42h8.92v2.83h-2.25c-1.52,0-2.75,1.23-2.75,2.75s1.23,2.75,2.75,2.75h36.67c1.52,0,2.75-1.23,2.75-2.75V2.75c0-1.52-1.23-2.75-2.75-2.75ZM2.17,16.08c0-1.24,1.01-2.25,2.25-2.25h30c1.24,0,2.25,1.01,2.25,2.25v19.75H2.17v-19.75ZM4.42,40c-1.16,0-2.11-.88-2.24-2h34.47c-.12,1.12-1.08,2-2.24,2H4.42ZM23.33,42.17v2.83h-7.83v-2.83h7.83ZM27.75,48.33H11.08c-.32,0-.58-.26-.58-.58s.26-.58.58-.58h16.67c.32,0,.58.26.58.58s-.26.58-.58.58ZM48.33,47.75c0,.32-.26.58-.58.58h-17.32c.16-.75,0-1.54-.44-2.17-.51-.73-1.35-1.16-2.24-1.17h-2.25v-2.83h8.92c2.44,0,4.42-1.98,4.42-4.42v-21.67c0-2.44-1.98-4.42-4.42-4.42h-8.92V2.75c0-.32.26-.58.58-.58h21.67c.32,0,.58.26.58.58v45Z"/>
  <path class="cls-1" d="M45.25,4.17h-16.67c-1.06,0-1.92.86-1.92,1.92v1.67c0,1.06.86,1.92,1.92,1.92h16.67c1.06,0,1.92-.86,1.92-1.92v-1.67c0-1.06-.86-1.92-1.92-1.92ZM45,7.5h-16.17v-1.17h16.17v1.17Z"/>
  <path class="cls-1" d="M43.58,17.17c1.52,0,2.75-1.23,2.75-2.75s-1.23-2.75-2.75-2.75-2.75,1.23-2.75,2.75,1.23,2.75,2.75,2.75ZM43.58,13.83c.32,0,.58.26.58.58s-.26.58-.58.58-.58-.26-.58-.58.26-.58.58-.58Z"/>
  <path class="cls-1" d="M46.33,21.08c0-1.52-1.23-2.75-2.75-2.75s-2.75,1.23-2.75,2.75,1.23,2.75,2.75,2.75,2.75-1.23,2.75-2.75ZM43,21.08c0-.32.26-.58.58-.58s.58.26.58.58-.26.58-.58.58-.58-.26-.58-.58Z"/>
  <path class="cls-1" d="M32.75,43.33c-.6,0-1.08.49-1.08,1.08v1.67c0,.6.49,1.08,1.08,1.08s1.08-.49,1.08-1.08v-1.67c0-.6-.49-1.08-1.08-1.08Z"/>
  <path class="cls-1" d="M36.08,43.33c-.6,0-1.08.49-1.08,1.08v1.67c0,.6.49,1.08,1.08,1.08s1.08-.49,1.08-1.08v-1.67c0-.6-.49-1.08-1.08-1.08Z"/>
  <path class="cls-1" d="M39.42,43.33c-.6,0-1.08.49-1.08,1.08v1.67c0,.6.49,1.08,1.08,1.08s1.08-.49,1.08-1.08v-1.67c0-.6-.49-1.08-1.08-1.08Z"/>
  <path class="cls-1" d="M42.75,43.33c-.6,0-1.08.49-1.08,1.08v1.67c0,.6.49,1.08,1.08,1.08s1.08-.49,1.08-1.08v-1.67c0-.6-.49-1.08-1.08-1.08Z"/>
  <path class="cls-1" d="M46.08,43.33c-.6,0-1.08.49-1.08,1.08v1.67c0,.6.49,1.08,1.08,1.08s1.08-.49,1.08-1.08v-1.67c0-.6-.49-1.08-1.08-1.08Z"/>
</svg>