<?xml version="1.0" encoding="UTF-8"?>
<svg id="Iconos" xmlns="http://www.w3.org/2000/svg" viewBox="0 0 50 50">
  <defs>
    <style>
      .cls-1 {
        fill: #263a4e;
      }
    </style>
  </defs>
  <path class="cls-1" d="M39.36,31.79c-2.73,0-5.34,1.25-7.07,3.37l-12.81-6.55c.17-.71.26-1.44.26-2.17,0-1.04-.17-2.05-.52-3.02l13.48-8.1c1.72,1.85,4.13,2.9,6.66,2.9,5.02,0,9.11-4.09,9.11-9.11S44.38,0,39.36,0s-9.11,4.09-9.11,9.11c0,.99.16,1.97.47,2.9l-13.52,8.12c-1.72-1.79-4.09-2.81-6.57-2.81-5.02,0-9.11,4.09-9.11,9.11s4.09,9.11,9.11,9.11c2.78,0,5.43-1.29,7.15-3.47l12.76,6.52c-.2.75-.29,1.52-.29,2.3,0,5.02,4.09,9.11,9.11,9.11s9.11-4.09,9.11-9.11-4.09-9.11-9.11-9.11ZM39.36,46.15c-2.9,0-5.25-2.36-5.25-5.25s2.36-5.25,5.25-5.25,5.25,2.36,5.25,5.25-2.36,5.25-5.25,5.25ZM39.36,3.85c2.9,0,5.25,2.36,5.25,5.25s-2.36,5.25-5.25,5.25-5.25-2.36-5.25-5.25,2.36-5.25,5.25-5.25ZM10.64,31.69c-2.9,0-5.25-2.36-5.25-5.25s2.36-5.25,5.25-5.25,5.25,2.36,5.25,5.25-2.36,5.25-5.25,5.25Z"/>
</svg>