<?xml version="1.0" encoding="UTF-8"?>
<svg id="Iconos" xmlns="http://www.w3.org/2000/svg" viewBox="0 0 50 50">
  <defs>
    <style>
      .cls-1 {
        fill: #263a4e;
      }
    </style>
  </defs>
  <path class="cls-1" d="M7.94,12.13L0,37.4h5.84l1.56-6.02h7.7l1.56,6.02h6.05l-7.94-25.27h-6.83ZM8.55,26.94l.61-2.34c.7-2.53,1.38-5.48,1.99-8.15h.16c.67,2.64,1.35,5.62,2.05,8.15l.6,2.34h-5.41Z"/>
  <path class="cls-1" d="M31.59,17.7c-3.02,0-5.77,1.04-8.22,2.53l2.03,3.74c1.87-1.06,3.48-1.74,5.09-1.74,2.09,0,2.93,1.1,3.04,2.78-7.61.8-10.83,3-10.83,7.05,0,3.24,2.23,5.8,5.73,5.8,2.16,0,3.98-1.01,5.6-2.43h.14l.41,1.97h4.65v-11c0-5.89-2.72-8.7-7.64-8.7ZM33.54,31.81c-1.01,1.01-1.88,1.65-3.17,1.65-1.35,0-2.21-.61-2.21-1.85,0-1.45,1.32-2.61,5.37-3.16v3.36Z"/>
  <polygon class="cls-1" points="50 16.06 50 12.28 40.42 12.28 40.42 16.06 43.32 16.06 43.32 33.64 40.69 33.64 40.69 37.42 50 37.42 50 33.64 47.1 33.64 47.1 16.06 50 16.06"/>
</svg>