<?xml version="1.0" encoding="UTF-8"?>
<svg id="Iconos" xmlns="http://www.w3.org/2000/svg" viewBox="0 0 50 50">
  <defs>
    <style>
      .cls-1 {
        fill: #263a4e;
      }
    </style>
  </defs>
  <path class="cls-1" d="M8.82,25.99c-.06.35-.09.74-.09,1.18v.49h16.91v-.49c0-.45-.03-.83-.09-1.17-.24-1.82-1.06-3.48-2.38-4.82-.72-.72-1.54-1.28-2.43-1.69.98-.96,1.54-2.29,1.54-3.65,0-2.81-2.29-5.09-5.1-5.09s-5.09,2.28-5.09,5.09c0,1.37.57,2.7,1.54,3.65-.89.41-1.7.98-2.43,1.69-1.32,1.32-2.15,2.99-2.39,4.8ZM17.18,18.72c-1.58,0-2.87-1.29-2.87-2.88s1.29-2.87,2.87-2.87,2.88,1.29,2.88,2.87-1.29,2.88-2.88,2.88ZM11.16,25.58c.71-2.71,3.17-4.64,6.02-4.64s5.32,1.93,6.02,4.64h-12.05Z"/>
  <path class="cls-1" d="M26.85,34.93H9.77c-.6,0-1.09.49-1.09,1.09s.49,1.09,1.09,1.09h17.08c.6,0,1.09-.49,1.09-1.09s-.49-1.09-1.09-1.09Z"/>
  <path class="cls-1" d="M26.85,30.14H9.77c-.6,0-1.09.49-1.09,1.09s.49,1.09,1.09,1.09h17.08c.6,0,1.09-.49,1.09-1.09s-.49-1.09-1.09-1.09Z"/>
  <path class="cls-1" d="M9.77,39.73c-.6,0-1.09.49-1.09,1.09s.49,1.09,1.09,1.09h12.1c.6,0,1.09-.49,1.09-1.09s-.49-1.09-1.09-1.09h-12.1Z"/>
  <path class="cls-1" d="M43.61,36.28h-1.08v-1.18c0-3.31-2.69-6-6-6s-6,2.69-6,6v1.18h-1.08c-.6,0-1.09.49-1.09,1.09v11.54c0,.6.49,1.09,1.09,1.09h14.15c.6,0,1.09-.49,1.09-1.09v-11.54c0-.6-.49-1.09-1.09-1.09ZM36.54,31.28c2.11,0,3.82,1.71,3.82,3.82v1.18h-7.64v-1.18c0-2.11,1.71-3.82,3.82-3.82ZM42.52,38.46v9.37h-11.98v-9.37h11.98Z"/>
  <path class="cls-1" d="M34.36,45.13c0,.93.76,1.69,1.69,1.69h.99c.93,0,1.69-.76,1.69-1.69v-1.66c.37-.48.57-1.07.57-1.67,0-1.52-1.23-2.75-2.75-2.75s-2.75,1.23-2.75,2.75c0,.62.21,1.22.58,1.63v1.69ZM35.91,42.33c-.12-.15-.19-.34-.19-.53,0-.45.37-.82.82-.82s.82.37.82.82c0,.24-.1.42-.19.53-.25.29-.37.64-.37,1v1.56s-.5,0-.5,0v-1.54c0-.36-.13-.71-.38-1.01Z"/>
  <path class="cls-1" d="M43.61,3.57h-11.34v-.09c0-1.92-1.56-3.48-3.48-3.48h-7.59c-1.92,0-3.48,1.56-3.48,3.48v.09H6.39c-.6,0-1.09.49-1.09,1.09v43.22c0,.6.49,1.09,1.09,1.09h19.36c.6,0,1.09-.49,1.09-1.09s-.49-1.09-1.09-1.09H7.48V5.74h10.28c.21,1.72,1.68,3.06,3.45,3.06h7.59c1.76,0,3.24-1.34,3.45-3.06h10.28v26.14c0,.6.49,1.09,1.09,1.09s1.09-.49,1.09-1.09V4.66c0-.6-.49-1.09-1.09-1.09ZM28.8,6.63h-7.59c-.72,0-1.3-.58-1.3-1.3v-1.85c0-.72.58-1.3,1.3-1.3h7.59c.72,0,1.3.58,1.3,1.3v1.85c0,.72-.58,1.3-1.3,1.3Z"/>
  <path class="cls-1" d="M33.54,15.23c-.52,0-.95.43-.95.95,0,2.63-.74,5.2-2.13,7.41-.14.22-.18.47-.12.72.06.25.21.46.42.59.15.1.33.15.51.15.33,0,.63-.17.81-.44,1.59-2.52,2.42-5.43,2.42-8.42,0-.52-.43-.95-.95-.95Z"/>
  <path class="cls-1" d="M34.51,25.17c.13.07.28.1.43.1.36,0,.69-.2.85-.52.54-1.07.97-2.2,1.3-3.35.14-.5-.15-1.03-.66-1.17-.24-.07-.5-.04-.72.09-.22.12-.38.33-.45.57-.29,1.04-.69,2.05-1.17,3.01-.23.47-.04,1.04.42,1.28Z"/>
  <path class="cls-1" d="M38.51,22.54c.12.22.33.38.57.45.09.02.17.04.26.04.42,0,.8-.28.91-.69.57-1.99.86-4.07.86-6.16,0-1.33-.35-2.64-1.01-3.79-.66-1.15-1.62-2.11-2.77-2.77s-2.46-1.01-3.79-1.01-2.64.35-3.79,1.01c-.45.26-.61.84-.35,1.3.26.45.84.61,1.3.35.86-.5,1.84-.76,2.83-.76.99,0,1.97.26,2.83.76.86.5,1.58,1.22,2.08,2.08.5.86.76,1.84.76,2.84,0,1.92-.26,3.82-.78,5.64-.07.24-.04.5.08.72Z"/>
  <path class="cls-1" d="M28.29,12.05c-.45-.26-1.04-.11-1.3.35-.66,1.15-1.01,2.46-1.01,3.79,0,1.12-.25,2.19-.73,3.2-.11.23-.13.49-.04.73.08.24.25.43.48.54.13.06.27.1.41.1.36,0,.7-.21.86-.54.61-1.26.92-2.62.92-4.03,0-1,.26-1.98.76-2.83.26-.45.11-1.04-.35-1.3Z"/>
  <path class="cls-1" d="M27.65,21.85l-.05.07c-.27.45-.12,1.03.33,1.3.15.09.32.14.49.14.33,0,.65-.18.82-.46l.04-.06c1.25-2,1.92-4.3,1.91-6.65,0-.63.25-1.22.69-1.67s1.04-.69,1.67-.69,1.22.25,1.67.69.69,1.04.69,1.67c0,.78-.05,1.58-.16,2.35-.03.25.03.5.19.7s.38.33.63.37c.52.07,1-.29,1.07-.81.12-.86.18-1.74.18-2.61,0-1.14-.44-2.21-1.25-3.01-.8-.8-1.87-1.25-3.01-1.25s-2.21.44-3.01,1.25-1.25,1.88-1.25,3.01c0,2-.56,3.95-1.63,5.67Z"/>
</svg>