<?xml version="1.0" encoding="UTF-8"?>
<svg id="Iconos" xmlns="http://www.w3.org/2000/svg" viewBox="0 0 50 50">
  <defs>
    <style>
      .cls-1 {
        fill: #263a4e;
      }
    </style>
  </defs>
  <path class="cls-1" d="M44.41,27.5h-15.25c-.92,0-1.67.75-1.67,1.67v15.25c0,3.08,2.5,5.58,5.58,5.58h11.33c3.08,0,5.58-2.5,5.58-5.58v-11.33c0-3.08-2.5-5.58-5.58-5.58ZM46.66,44.42c0,1.25-1,2.25-2.25,2.25h-11.33c-1.25,0-2.25-1-2.25-2.25v-13.58h13.58c1.25,0,2.25,1,2.25,2.25v11.33Z"/>
  <path class="cls-1" d="M20.83,27.5H5.59C2.5,27.5,0,30,0,33.09v11.33c0,3.08,2.5,5.58,5.58,5.58h11.33c3.08,0,5.58-2.5,5.58-5.58v-15.25c0-.92-.75-1.67-1.67-1.67ZM19.17,44.42c0,1.25-1,2.25-2.25,2.25H5.59c-1.25,0-2.25-1-2.25-2.25v-11.33c0-1.25,1-2.25,2.25-2.25h13.58v13.58Z"/>
  <path class="cls-1" d="M44.41,0h-11.33c-3.08,0-5.58,2.5-5.58,5.58v15.25c0,.92.75,1.67,1.67,1.67h15.25c3.08,0,5.58-2.5,5.58-5.58V5.59C50,2.51,47.5,0,44.41,0ZM46.66,16.92c0,1.25-1,2.25-2.25,2.25h-13.58V5.59c0-1.25,1-2.25,2.25-2.25h11.33c1.25,0,2.25,1,2.25,2.25v11.33Z"/>
  <path class="cls-1" d="M5.6,22.5h15.25c.9,0,1.64-.74,1.64-1.67V5.59c0-3.08-2.47-5.59-5.55-5.59H5.6C2.49,0,.02,2.5.02,5.59v11.33c0,3.08,2.47,5.59,5.59,5.59Z"/>
</svg>