<?xml version="1.0" encoding="UTF-8"?>
<svg id="Iconos" xmlns="http://www.w3.org/2000/svg" viewBox="0 0 50 50">
  <defs>
    <style>
      .cls-1 {
        fill: #263a4e;
      }
    </style>
  </defs>
  <path class="cls-1" d="M30.86,0H10.35C7.93,0,5.96,1.97,5.96,4.39v41.21c0,2.42,1.97,4.39,4.39,4.39h29.3c2.42,0,4.39-1.97,4.39-4.39V13.18c0-.4-.17-.77-.43-1.04L31.89.43C31.62.16,31.25,0,30.86,0ZM41.11,45.61c0,.81-.66,1.46-1.46,1.46H10.35c-.81,0-1.46-.66-1.46-1.46V4.39c0-.81.66-1.46,1.46-1.46h19.04v7.32c0,2.42,1.97,4.39,4.39,4.39h7.32v30.96ZM32.32,5l6.72,6.72h-5.25c-.81,0-1.46-.66-1.46-1.46v-5.25Z"/>
  <path class="cls-1" d="M16.21,20.7c-.81,0-1.46.66-1.46,1.46s.65,1.46,1.46,1.46h17.58c.81,0,1.46-.65,1.46-1.46s-.66-1.46-1.46-1.46h-17.58Z"/>
  <path class="cls-1" d="M33.79,26.56h-17.58c-.81,0-1.46.66-1.46,1.46s.65,1.46,1.46,1.46h17.58c.81,0,1.46-.65,1.46-1.46s-.66-1.46-1.46-1.46Z"/>
  <path class="cls-1" d="M33.79,32.42h-17.58c-.81,0-1.46.66-1.46,1.46s.65,1.46,1.46,1.46h17.58c.81,0,1.46-.65,1.46-1.46s-.66-1.46-1.46-1.46Z"/>
  <path class="cls-1" d="M27.93,38.28h-11.72c-.81,0-1.46.66-1.46,1.46s.65,1.46,1.46,1.46h11.72c.81,0,1.46-.65,1.46-1.46s-.66-1.46-1.46-1.46Z"/>
</svg>