<?xml version="1.0" encoding="UTF-8"?><svg id="uuid-44c4ddc8-2889-45b2-9962-60eee6027bf6" xmlns="http://www.w3.org/2000/svg" viewBox="0 0 50 50"><defs><style>.uuid-45b99732-adc9-475e-b434-4db9914d0374{fill:#263a4e;}.uuid-45b99732-adc9-475e-b434-4db9914d0374,.uuid-b91e0da8-c3a6-45d4-953f-2134ff8c2edc{fill-rule:evenodd;}.uuid-b91e0da8-c3a6-45d4-953f-2134ff8c2edc{fill:#c0cb08;}</style></defs><path class="uuid-b91e0da8-c3a6-45d4-953f-2134ff8c2edc" d="M25,10c8.28,0,15,6.72,15,15,0,4.3-1.81,8.17-4.7,10.9-.49.47-1.02.9-1.57,1.3-2.46,1.76-5.47,2.8-8.73,2.8s-6.27-1.04-8.73-2.8c-.55-.4-1.08-.83-1.57-1.3-2.89-2.73-4.7-6.61-4.7-10.9,0-8.28,6.72-15,15-15h0ZM25,16.64c3.35,0,6.07,2.72,6.07,6.07,0,1.88-.86,3.56-2.2,4.68,2.7,1.09,4.84,3.28,5.85,6.02,1.95-2.26,3.14-5.2,3.14-8.42,0-7.1-5.76-12.86-12.86-12.86s-12.86,5.76-12.86,12.86c0,3.22,1.18,6.16,3.14,8.42,1.01-2.74,3.15-4.94,5.85-6.03-1.34-1.11-2.2-2.79-2.2-4.68,0-3.35,2.72-6.07,6.07-6.07h0Z"/><path class="uuid-45b99732-adc9-475e-b434-4db9914d0374" d="M25,10c8.28,0,15,6.72,15,15,0,4.3-1.81,8.17-4.7,10.9-.49.47-1.02.9-1.57,1.3-2.46,1.76-5.47,2.8-8.73,2.8s-6.27-1.04-8.73-2.8c-.55-.4-1.08-.83-1.57-1.3-2.89-2.73-4.7-6.61-4.7-10.9,0-8.28,6.72-15,15-15h0ZM25,26.64c2.17,0,3.93-1.76,3.93-3.93s-1.76-3.93-3.93-3.93-3.93,1.76-3.93,3.93,1.76,3.93,3.93,3.93ZM25,16.64c3.35,0,6.07,2.72,6.07,6.07,0,1.88-.86,3.56-2.2,4.68,2.7,1.09,4.84,3.28,5.85,6.02,1.95-2.26,3.14-5.2,3.14-8.42,0-7.1-5.76-12.86-12.86-12.86s-12.86,5.76-12.86,12.86c0,3.22,1.18,6.16,3.14,8.42,1.01-2.74,3.15-4.94,5.85-6.03-1.34-1.11-2.2-2.79-2.2-4.68,0-3.35,2.72-6.07,6.07-6.07h0ZM25,37.86c3.02,0,5.79-1.04,7.99-2.78-.87-3.61-4.11-6.29-7.99-6.29s-7.12,2.68-7.99,6.29c2.19,1.74,4.97,2.78,7.99,2.78Z"/></svg>