<?xml version="1.0" encoding="UTF-8"?>
<svg id="Iconos" xmlns="http://www.w3.org/2000/svg" viewBox="0 0 50 50">
  <defs>
    <style>
      .cls-1 {
        fill: #263a4e;
      }
    </style>
  </defs>
  <path class="cls-1" d="M34.73,26.98c.02-.1.03-.2.05-.3.03-.17.06-.33.08-.5.01-.11.02-.21.03-.32.01-.16.03-.32.04-.48,0-.02,0-.04,0-.06,0-.11,0-.22,0-.33,0-.11,0-.21,0-.32,0-.02,0-.04,0-.06,0-.16-.02-.33-.04-.49,0-.1-.01-.21-.03-.31-.02-.17-.05-.34-.08-.52-.02-.09-.03-.18-.05-.28-.05-.23-.11-.47-.17-.7,0-.03-.01-.05-.02-.08,0,0,0,0,0,0-.07-.26-.16-.51-.25-.76,0,0,0,0,0-.01-.02-.05-.04-.1-.07-.15-.08-.19-.16-.38-.24-.57-.04-.09-.09-.17-.14-.26-.08-.15-.15-.3-.23-.44-.06-.1-.12-.19-.18-.29-.07-.1-.13-.21-.2-.32,0-.01-.02-.03-.03-.04-.18-.26-.36-.51-.56-.75-.07-.09-.16-.16-.24-.24-.17-.19-.34-.36-.52-.53-.21-.2-.42-.39-.64-.57-.09-.07-.17-.16-.26-.24-.88-.66-1.86-1.17-2.9-1.51-.99-.32-2.02-.49-3.07-.49s-2.07.16-3.07.49c-1.05.34-2.02.85-2.9,1.51-.09.07-.17.16-.26.24-.22.18-.44.37-.64.57-.18.17-.35.35-.52.53-.08.08-.16.16-.24.24-.2.24-.39.49-.56.75,0,.01-.02.02-.03.04-.07.1-.13.2-.19.31-.06.1-.13.2-.19.31-.08.14-.15.27-.22.41-.05.1-.1.19-.15.29-.08.17-.15.33-.22.5-.03.07-.06.14-.09.22,0,0,0,.01,0,.02-.09.25-.18.5-.25.76h0c-.02.07-.03.13-.05.2-.05.19-.1.38-.14.58-.02.1-.03.2-.05.3-.03.17-.06.33-.08.5-.01.1-.02.21-.03.31-.01.16-.03.32-.04.49,0,.02,0,.04,0,.06,0,.11,0,.22,0,.32s0,.22,0,.32c0,.02,0,.04,0,.06,0,.16.02.33.04.49,0,.1.01.21.03.31.02.17.05.34.08.52.02.09.03.18.05.28.05.23.1.45.17.68,0,.03.01.07.02.1,0,0,0,0,0,0,.07.26.16.51.25.76,0,0,0,0,0,.01.02.05.05.11.07.16.08.19.15.38.24.56.04.09.09.18.14.27.08.15.15.29.23.44.06.1.12.2.18.29.07.11.13.21.2.32,0,.01.02.03.03.04.18.26.36.51.56.75.07.09.16.16.24.24.17.19.34.36.52.53.21.2.42.39.64.57.09.07.17.16.26.24.88.66,1.86,1.17,2.9,1.51.56.18,1.13.31,1.71.39,0,0,.02,0,.03,0,.04,0,.08,0,.12,0,.4.05.8.08,1.21.08h0c.4,0,.81-.03,1.2-.08.04,0,.08,0,.12,0,0,0,.02,0,.03,0,.58-.08,1.15-.21,1.71-.39.79-.25,1.53-.61,2.23-1.05h0c.23-.15.45-.3.67-.46.09-.07.17-.16.26-.24.22-.18.44-.37.64-.57.18-.17.35-.35.52-.53.08-.08.16-.16.24-.24.2-.24.39-.49.56-.75,0-.01.02-.02.03-.04.07-.1.13-.2.19-.31.06-.1.13-.2.19-.31.08-.13.15-.27.22-.41.05-.1.11-.2.15-.3.08-.16.15-.33.21-.5.03-.07.07-.14.09-.22,0,0,0-.01,0-.02.09-.25.18-.5.25-.76h0c.02-.07.03-.14.05-.2.05-.19.1-.38.14-.58ZM27.35,32.23c-1.52.49-3.17.49-4.69,0-.71-.23-1.36-.57-1.97-1-.16-.11-.31-.22-.45-.34-.17-.14-.34-.29-.49-.44-.14-.13-.27-.26-.39-.4-.14-.16-.27-.33-.4-.5-.13-.17-.25-.34-.37-.52-.1-.16-.19-.32-.28-.49-.1-.19-.2-.39-.29-.6-.07-.17-.14-.35-.2-.53-.07-.21-.13-.42-.18-.63-.04-.18-.08-.37-.11-.56-.04-.22-.06-.44-.08-.66-.01-.19-.03-.38-.03-.57s.01-.38.03-.57c.02-.22.04-.44.08-.66.03-.19.07-.37.11-.56.05-.21.11-.42.18-.63.06-.18.13-.36.2-.53.09-.2.18-.4.28-.6.09-.17.18-.33.28-.49.11-.18.24-.35.37-.52.13-.17.26-.34.4-.5.13-.14.26-.27.4-.41.16-.15.32-.3.49-.44.15-.12.3-.23.45-.34.61-.42,1.26-.77,1.97-1,1.52-.49,3.17-.49,4.69,0,.71.23,1.36.57,1.97,1,.15.11.31.22.45.34.17.14.34.29.49.44.14.13.27.26.39.4.14.16.27.33.4.5.13.17.25.34.37.52.1.16.19.32.28.49.1.2.2.39.29.6.07.17.14.35.2.53.07.21.13.42.18.63.04.18.08.37.11.56.04.22.06.44.08.66.01.19.03.38.03.57s-.01.38-.03.57c-.02.22-.04.44-.08.66-.03.19-.07.37-.11.55-.05.21-.11.42-.18.63-.06.18-.13.36-.2.53-.09.2-.18.4-.29.6-.09.17-.18.33-.28.49-.11.18-.24.35-.37.52-.13.17-.26.34-.4.49-.13.14-.26.28-.4.41-.16.15-.32.3-.49.44-.15.12-.3.23-.45.34-.61.42-1.26.77-1.97,1Z"/>
  <path class="cls-1" d="M49.98,22.28c-.28-2.56-.95-5.06-1.99-7.42-.4-.91-1.17-1.61-2.12-1.92s-1.98-.2-2.84.3l-1.02.59c-.25.14-.54.19-.82.13-.28-.06-.53-.22-.7-.45-1.13-1.52-2.48-2.87-4-4-.23-.17-.39-.42-.45-.7-.06-.28-.01-.57.13-.82l.59-1.02c.5-.86.6-1.9.3-2.84-.31-.94-1.01-1.72-1.92-2.12C32.78.97,30.28.3,27.72.02c-.99-.11-1.98.21-2.72.88-.74.66-1.16,1.62-1.16,2.61v1.18c0,.29-.1.56-.3.78-.19.21-.45.35-.74.38-1.89.22-3.72.71-5.47,1.46-.26.11-.56.13-.83.04-.27-.09-.5-.28-.65-.53l-.59-1.02c-.5-.86-1.34-1.47-2.31-1.68s-1.99.01-2.79.6c-2.08,1.52-3.91,3.35-5.43,5.43-.59.8-.81,1.82-.6,2.79s.82,1.82,1.68,2.31l1.02.59c.25.14.44.37.53.65.09.27.08.57-.04.83-.75,1.74-1.25,3.58-1.46,5.47-.03.29-.17.55-.38.74-.21.19-.49.3-.78.3h-1.18c-.99,0-1.95.42-2.61,1.17S-.09,26.73.02,27.72c.28,2.56.95,5.06,1.99,7.42.4.91,1.17,1.61,2.12,1.92.94.31,1.98.2,2.84-.3l1.02-.59c.25-.14.54-.19.82-.13.28.06.53.22.7.45,1.13,1.52,2.48,2.87,4,4,.23.17.39.42.45.7s.01.57-.13.82l-.59,1.02c-.5.86-.6,1.9-.3,2.84.31.95,1.01,1.72,1.92,2.12,2.36,1.04,4.86,1.71,7.42,1.99.13.01.25.02.38.02.86,0,1.7-.32,2.34-.9.74-.66,1.16-1.62,1.16-2.61v-1.18c0-.29.1-.56.3-.78.19-.21.45-.35.74-.38,1.89-.22,3.73-.71,5.47-1.46.26-.11.56-.13.83-.04.27.09.5.28.65.53l.59,1.02c.5.86,1.34,1.47,2.31,1.68s1.99-.01,2.79-.6c2.08-1.52,3.91-3.35,5.43-5.43.59-.8.81-1.82.6-2.79-.2-.97-.82-1.82-1.68-2.31l-1.02-.59c-.25-.14-.44-.37-.53-.65-.09-.27-.08-.57.04-.83.75-1.74,1.25-3.58,1.46-5.47.03-.29.17-.55.38-.74s.49-.3.78-.3h1.18c.99,0,1.95-.42,2.61-1.16.66-.74.98-1.73.88-2.72ZM47.36,23.44c-.22.25-.54.39-.87.39h-1.18c-.86,0-1.69.32-2.33.89s-1.05,1.36-1.15,2.22c-.19,1.66-.62,3.27-1.29,4.8-.34.79-.38,1.68-.11,2.49.27.82.83,1.51,1.58,1.94l1.02.59c.29.17.49.45.56.77.07.32,0,.66-.2.93h0c-1.38,1.89-3.04,3.55-4.93,4.93-.27.2-.61.27-.93.2-.32-.07-.6-.27-.77-.56l-.59-1.02c-.43-.75-1.12-1.31-1.94-1.58-.82-.27-1.7-.23-2.49.11-1.53.66-3.15,1.1-4.8,1.29-.86.1-1.64.51-2.22,1.15-.57.64-.89,1.47-.89,2.33v1.18c0,.33-.14.65-.39.87-.25.22-.58.33-.91.29-2.33-.25-4.59-.86-6.73-1.8-.3-.13-.54-.39-.64-.71-.1-.32-.07-.66.1-.95l.59-1.02c.43-.75.57-1.62.4-2.47-.17-.84-.65-1.59-1.34-2.1-1.34-.99-2.52-2.18-3.52-3.52-.51-.69-1.26-1.17-2.1-1.34-.24-.05-.48-.07-.71-.07-.61,0-1.21.16-1.75.47l-1.02.59c-.29.17-.63.2-.95.1-.31-.1-.57-.34-.71-.64-.94-2.14-1.55-4.41-1.8-6.73-.04-.33.07-.66.29-.91.22-.25.54-.39.87-.39h1.18c.86,0,1.69-.32,2.33-.89.64-.57,1.05-1.36,1.15-2.22.19-1.66.62-3.27,1.29-4.8.34-.79.38-1.68.11-2.49-.27-.82-.83-1.51-1.58-1.94l-1.02-.59c-.29-.17-.49-.45-.56-.77-.07-.32,0-.66.2-.93,1.38-1.89,3.04-3.55,4.93-4.93.27-.2.61-.27.93-.2.32.07.61.27.77.56l.59,1.02c.43.75,1.12,1.31,1.94,1.58.82.27,1.7.23,2.49-.11,1.53-.66,3.15-1.1,4.8-1.29.86-.1,1.64-.51,2.22-1.15.57-.64.89-1.47.89-2.33v-1.18c0-.33.14-.65.39-.87.25-.22.58-.33.91-.29,2.33.25,4.59.86,6.73,1.8.3.13.54.39.64.71s.07.66-.1.95l-.59,1.02c-.43.75-.57,1.62-.4,2.46.17.84.65,1.59,1.34,2.1,1.34.99,2.52,2.18,3.52,3.52.51.69,1.26,1.17,2.1,1.34s1.72.03,2.47-.4l1.02-.59c.29-.17.63-.2.95-.1s.57.34.71.64c.94,2.14,1.55,4.41,1.8,6.73.04.33-.07.66-.29.91Z"/>
</svg>