<?xml version="1.0" encoding="UTF-8"?>
<svg id="Iconos" xmlns="http://www.w3.org/2000/svg" viewBox="0 0 50 50">
  <defs>
    <style>
      .cls-1 {
        fill: #263a4e;
      }
    </style>
  </defs>
  <path class="cls-1" d="M48.61,20.98L28.2,4.42c-1.86-1.51-4.55-1.51-6.41,0L1.39,20.98c-1.61,1.3-1.85,3.67-.55,5.28l1.68,2.07c.96,1.18,2.5,1.63,3.88,1.26v13.74h-.51c-.94,0-1.69.76-1.69,1.69s.76,1.69,1.69,1.69h38.23c.94,0,1.69-.76,1.69-1.69s-.76-1.69-1.69-1.69h-.52v-11.11h0v-2.62c.31.08.63.13.96.13.13,0,.26,0,.4-.02,1-.1,1.89-.59,2.53-1.37l1.68-2.07c1.3-1.61,1.06-3.97-.55-5.28ZM29.09,43.32h-8.19v-1.39c0-2.26,1.84-4.1,4.1-4.1s4.1,1.84,4.1,4.1v1.39ZM40.21,43.32h-7.73v-1.39c0-4.13-3.36-7.48-7.48-7.48s-7.48,3.36-7.48,7.48v1.39h-7.73v-16.06l15.21-12.34,15.21,12.34v16.06ZM46.53,24.12l-1.68,2.07c-.08.1-.18.12-.24.13s-.17,0-.27-.08h0s-18.28-14.82-18.28-14.82c-.62-.51-1.51-.51-2.14,0L7.02,25.14h0s-1.36,1.1-1.36,1.1c-.1.08-.2.08-.27.08-.07,0-.17-.04-.24-.13l-1.68-2.07c-.08-.1-.09-.2-.08-.27,0-.07.04-.17.13-.24L23.93,7.05c.31-.25.69-.38,1.07-.38s.76.12,1.07.38l20.41,16.56c.1.08.13.18.13.24,0,.07,0,.17-.08.27Z"/>
  <path class="cls-1" d="M19.21,25.23c-.94,0-1.69.76-1.69,1.69s.76,1.69,1.69,1.69h11.58c.94,0,1.69-.76,1.69-1.69s-.76-1.69-1.69-1.69h-11.58Z"/>
</svg>