<?xml version="1.0" encoding="UTF-8"?>
<svg id="Iconos" xmlns="http://www.w3.org/2000/svg" viewBox="0 0 50 50">
  <defs>
    <style>
      .cls-1 {
        fill: #263a4e;
      }
    </style>
  </defs>
  <path class="cls-1" d="M36.71,18.93c1.13-.89,1.88-2.25,1.88-3.8,0-2.34-1.67-4.3-3.89-4.74.76-1.13,1.32-2.33,1.59-3.53.48-2.14.02-4.1-1.25-5.36C34.04.5,32.76.02,31.27,0c-2.38.03-4.73,1.46-6.27,2.74C23.46,1.46,21.11.04,18.73,0c-1.49,0-2.77.5-3.77,1.5-1.27,1.27-1.72,3.23-1.25,5.36.27,1.2.83,2.4,1.59,3.53-2.21.44-3.89,2.4-3.89,4.74,0,1.55.74,2.91,1.88,3.8-5.6,4.41-9.06,11.77-8.46,18.59.97,11.18,11.98,12.48,20.17,12.48s19.21-1.29,20.17-12.48c.59-6.82-2.87-14.18-8.46-18.59ZM17.09,3.64c.43-.43.96-.62,1.59-.61,1.71.03,3.92,1.43,5.22,2.81.57.61,1.63.61,2.2,0,1.3-1.38,3.51-2.79,5.22-2.81.65,0,1.16.19,1.59.61.71.72.58,1.92.43,2.57-.3,1.35-1.17,2.83-2.38,4.04-.02.02-.04.03-.06.06h-11.8s-.04-.04-.07-.06c-1.21-1.21-2.08-2.68-2.38-4.03-.15-.65-.28-1.86.43-2.57ZM16.25,13.32h17.5c1,0,1.82.81,1.82,1.81s-.81,1.81-1.82,1.81h-17.5c-1,0-1.82-.81-1.82-1.81s.81-1.81,1.82-1.81ZM42.16,37.26c-.58,6.72-5.87,9.72-17.16,9.72s-16.58-3-17.16-9.72c-.57-6.61,3.32-13.82,9.29-17.29h15.76c5.96,3.48,9.85,10.69,9.28,17.29Z"/>
  <path class="cls-1" d="M25.33,32c-1.99-.45-1.98-.9-1.98-.91.06-.87,2.01-1.06,2.81-1.09.07.77.72,1.37,1.5,1.37.83,0,1.51-.68,1.51-1.51,0-.78-.32-1.54-.88-2.08-.49-.47-1.11-.73-1.77-.78v-.15c0-.83-.68-1.51-1.51-1.51s-1.51.68-1.51,1.51v.55c-2.51.77-3.08,2.41-3.16,3.49-.14,2.01,1.32,3.38,4.33,4.06,1.87.42,2.01.9,2.01.91-.02.78-1.82,1.06-2.82,1.14-.05-.79-.71-1.41-1.51-1.41s-1.51.68-1.51,1.51c0,.79.31,1.52.88,2.07.48.47,1.12.74,1.79.79v.15c0,.83.68,1.51,1.51,1.51s1.51-.68,1.51-1.51v-.54c2.74-.84,3.15-2.72,3.18-3.63.05-1.94-1.42-3.26-4.36-3.93Z"/>
</svg>