<?xml version="1.0" encoding="UTF-8"?>
<svg id="Iconos" xmlns="http://www.w3.org/2000/svg" viewBox="0 0 50 50">
  <defs>
    <style>
      .cls-1 {
        fill: #263a4e;
      }
    </style>
  </defs>
  <path class="cls-1" d="M45.61,5.96h-29.49c-2.42,0-4.39,1.97-4.39,4.39s1.97,4.39,4.39,4.39h29.49c2.42,0,4.39-1.97,4.39-4.39s-1.97-4.39-4.39-4.39ZM45.61,11.82h-29.49c-.81,0-1.46-.66-1.46-1.46s.66-1.46,1.46-1.46h29.49c.81,0,1.46.66,1.46,1.46s-.66,1.46-1.46,1.46Z"/>
  <path class="cls-1" d="M45.61,20.61h-29.49c-2.42,0-4.39,1.97-4.39,4.39s1.97,4.39,4.39,4.39h29.49c2.42,0,4.39-1.97,4.39-4.39s-1.97-4.39-4.39-4.39ZM45.61,26.46h-29.49c-.81,0-1.46-.66-1.46-1.46s.66-1.46,1.46-1.46h29.49c.81,0,1.46.66,1.46,1.46s-.66,1.46-1.46,1.46Z"/>
  <path class="cls-1" d="M45.61,35.25h-29.49c-2.42,0-4.39,1.97-4.39,4.39s1.97,4.39,4.39,4.39h29.49c2.42,0,4.39-1.97,4.39-4.39s-1.97-4.39-4.39-4.39ZM45.61,41.11h-29.49c-.81,0-1.46-.66-1.46-1.46s.66-1.46,1.46-1.46h29.49c.81,0,1.46.66,1.46,1.46s-.66,1.46-1.46,1.46Z"/>
  <path class="cls-1" d="M4.39,5.96C1.97,5.96,0,7.93,0,10.35s1.97,4.39,4.39,4.39,4.39-1.97,4.39-4.39-1.97-4.39-4.39-4.39ZM4.39,11.82c-.81,0-1.46-.66-1.46-1.46s.66-1.46,1.46-1.46,1.46.66,1.46,1.46-.66,1.46-1.46,1.46Z"/>
  <path class="cls-1" d="M4.39,20.61c-2.42,0-4.39,1.97-4.39,4.39s1.97,4.39,4.39,4.39,4.39-1.97,4.39-4.39-1.97-4.39-4.39-4.39ZM4.39,26.46c-.81,0-1.46-.66-1.46-1.46s.66-1.46,1.46-1.46,1.46.66,1.46,1.46-.66,1.46-1.46,1.46Z"/>
  <path class="cls-1" d="M4.39,35.25c-2.42,0-4.39,1.97-4.39,4.39s1.97,4.39,4.39,4.39,4.39-1.97,4.39-4.39-1.97-4.39-4.39-4.39ZM4.39,41.11c-.81,0-1.46-.66-1.46-1.46s.66-1.46,1.46-1.46,1.46.66,1.46,1.46-.66,1.46-1.46,1.46Z"/>
</svg>