<?xml version="1.0" encoding="UTF-8"?>
<svg id="Iconos" xmlns="http://www.w3.org/2000/svg" viewBox="0 0 50 50">
  <defs>
    <style>
      .cls-1 {
        fill: #263a4e;
      }
    </style>
  </defs>
  <path class="cls-1" d="M1.61,46.91h29.31c.91,0,1.61-.7,1.61-1.58,0-.54-.03-1.07-.08-1.61-.32-3.03-1.42-5.8-3.14-8.11h19.08c.91,0,1.61-.7,1.61-1.58,0-.56-.03-1.07-.08-1.61-.62-6.23-4.75-11.41-10.39-13.61,1.91-1.61,3.14-4.05,3.14-6.79,0-4.94-4-8.94-8.94-8.94s-8.91,4-8.91,8.94c0,2.74,1.21,5.18,3.14,6.79-1.13.45-2.23,1.02-3.22,1.69-1.18-3.54-4.54-6.09-8.48-6.09-4.91,0-8.91,3.97-8.91,8.91,0,2.74,1.21,5.18,3.14,6.82C4.86,32.31.67,37.52.08,43.75c-.05.51-.08,1.07-.08,1.58,0,.89.72,1.58,1.61,1.58ZM33.74,6.28c3.17,0,5.74,2.58,5.74,5.74s-2.58,5.72-5.74,5.72-5.74-2.55-5.74-5.72,2.58-5.74,5.74-5.74ZM33.74,20.96c6.63,0,12.18,5.02,12.96,11.46h-20.56c-1.24-.94-2.6-1.72-4.08-2.28,1.69-1.45,2.87-3.57,3.09-5.93,2.31-2.01,5.29-3.25,8.59-3.25ZM16.26,17.58c3.01,0,5.48,2.34,5.69,5.29.03.16.03.29.03.46,0,2.41-1.48,4.48-3.57,5.31-.67.27-1.39.43-2.15.43-3.17,0-5.74-2.58-5.74-5.74s2.58-5.74,5.74-5.74ZM16.26,32.26c.43,0,.89.03,1.32.05,2.82.29,5.39,1.5,7.41,3.3,2.28,2.07,3.86,4.91,4.24,8.11H3.3c.8-6.44,6.33-11.46,12.96-11.46Z"/>
</svg>