<?xml version="1.0" encoding="UTF-8"?>
<svg id="Iconos" xmlns="http://www.w3.org/2000/svg" viewBox="0 0 50 50">
  <defs>
    <style>
      .cls-1 {
        fill: #263a4e;
      }
    </style>
  </defs>
  <path class="cls-1" d="M45.16,14.52h-12.9V6.31c.34-.12.65-.3.91-.56.46-.46.71-1.07.71-1.71v-1.61C33.87,1.08,32.79,0,31.45,0H8.87C7.54,0,6.45,1.09,6.45,2.42v1.61c0,1.05.68,1.94,1.61,2.27v23.04l-3.23,1.61v17.43h-1.61v1.61h43.55v-1.61h-1.61V14.52ZM43.55,48.39h-4.84v-6.45h-4.84v-1.61h8.06v-6.45h-14.43l-1.7-.72v-17.02h17.74v32.26ZM29.03,48.39h-3.23v-6.45h3.23v6.45ZM24.19,40.32v8.06h-3.23v-8.06h-6.45v8.06h-1.61v-18.94l19.35,8.19v10.76h-1.61v-8.06h-6.45ZM19.35,48.39h-3.23v-6.45h3.23v6.45ZM31.32,35.48h9v3.23h-6.45v-2.15l-2.55-1.08ZM33.87,43.55h3.23v4.84h-3.23v-4.84ZM8.06,2.42c0-.44.36-.81.81-.81h22.58c.44,0,.81.36.81.81v1.61c0,.22-.08.42-.24.57-.15.15-.35.24-.57.24H8.87c-.45,0-.81-.36-.81-.81v-1.61ZM9.68,6.45h20.97v8.06h-6.45v17.95l-12.12-5.13-2.39,1.2V6.45ZM6.45,31.95l4.84-2.42v18.86h-4.84v-16.44Z"/>
  <path class="cls-1" d="M14.21,33.23l.63-1.49,1.61.68-.63,1.49-1.61-.68Z"/>
  <path class="cls-1" d="M17.51,34.63l.63-1.49,8.8,3.73-.63,1.49-8.8-3.73Z"/>
  <path class="cls-1" d="M16.13,14.52h-4.84v4.84h4.84v-4.84ZM14.52,17.74h-1.61v-1.61h1.61v1.61Z"/>
  <path class="cls-1" d="M16.13,8.06h-4.84v4.84h4.84v-4.84ZM14.52,11.29h-1.61v-1.61h1.61v1.61Z"/>
  <path class="cls-1" d="M22.58,14.52h-4.84v4.84h4.84v-4.84ZM20.97,17.74h-1.61v-1.61h1.61v1.61Z"/>
  <path class="cls-1" d="M22.58,8.06h-4.84v4.84h4.84v-4.84ZM20.97,11.29h-1.61v-1.61h1.61v1.61Z"/>
  <path class="cls-1" d="M29.03,8.06h-4.84v4.84h4.84v-4.84ZM27.42,11.29h-1.61v-1.61h1.61v1.61Z"/>
  <path class="cls-1" d="M16.13,20.97h-4.84v4.84h4.84v-4.84ZM14.52,24.19h-1.61v-1.61h1.61v1.61Z"/>
  <path class="cls-1" d="M22.58,20.97h-4.84v4.84h4.84v-4.84ZM20.97,24.19h-1.61v-1.61h1.61v1.61Z"/>
  <path class="cls-1" d="M41.94,17.74h-14.52v6.45h14.52v-6.45ZM40.32,22.58h-11.29v-3.23h11.29v3.23Z"/>
  <path class="cls-1" d="M41.94,25.81h-14.52v6.45h14.52v-6.45ZM40.32,30.65h-11.29v-3.23h11.29v3.23Z"/>
</svg>