<?xml version="1.0" encoding="UTF-8"?>
<svg id="Iconos" xmlns="http://www.w3.org/2000/svg" viewBox="0 0 50 50">
  <defs>
    <style>
      .cls-1 {
        fill: #263a4e;
      }
    </style>
  </defs>
  <path class="cls-1" d="M49.95,32.82c-.22-2.07-.97-3.96-2.14-5.53-.62-.82-1.36-1.56-2.16-2.18-.84-.64-1.78-1.17-2.78-1.56,1.15-.99,1.96-2.44,2.11-4.05.02-.2.04-.4.04-.61,0-.68-.11-1.32-.31-1.92-.81-2.42-3.1-4.16-5.79-4.16-3.35,0-6.08,2.71-6.08,6.08,0,1.87.82,3.54,2.14,4.65-1.67.64-3.17,1.68-4.34,3.01-.53-.33-1.08-.61-1.67-.82,1.15-.99,1.96-2.44,2.11-4.05.02-.2.04-.4.04-.6,0-.68-.11-1.32-.31-1.92-.81-2.42-3.1-4.16-5.79-4.16-3.35,0-6.08,2.71-6.08,6.08,0,1.87.82,3.53,2.14,4.65-.59.22-1.14.49-1.67.82-.48-.53-.99-1.01-1.56-1.45-.84-.64-1.78-1.17-2.78-1.56,1.15-.99,1.96-2.44,2.11-4.05.02-.2.04-.4.04-.61,0-.68-.11-1.32-.31-1.92-.81-2.42-3.1-4.16-5.79-4.16-3.35,0-6.08,2.71-6.08,6.08,0,1.87.82,3.54,2.14,4.65C3.31,25.04.46,28.59.05,32.84c-.04.35-.05.73-.05,1.08,0,.6.49,1.08,1.1,1.08h12.86v.02c-.04.35-.05.73-.05,1.08,0,.6.49,1.08,1.1,1.08h20c.62,0,1.1-.48,1.1-1.08,0-.37-.02-.73-.05-1.1h12.86c.62,0,1.1-.48,1.1-1.08,0-.37-.02-.73-.05-1.1ZM38.9,14.98c2.05,0,3.74,1.59,3.88,3.61.02.11.02.2.02.31,0,1.65-1.01,3.06-2.44,3.63-.46.18-.95.29-1.46.29-2.16,0-3.92-1.76-3.92-3.92s1.76-3.92,3.92-3.92ZM25,17.16c2.05,0,3.74,1.59,3.88,3.61.02.11.02.2.02.31,0,1.65-1.01,3.06-2.44,3.62-.46.18-.95.29-1.47.29-2.16,0-3.92-1.76-3.92-3.92s1.76-3.92,3.92-3.92ZM11.1,14.98c2.05,0,3.74,1.59,3.88,3.61.02.11.02.2.02.31,0,1.65-1.01,3.06-2.44,3.63-.46.18-.95.29-1.47.29-2.16,0-3.92-1.76-3.92-3.92s1.76-3.92,3.92-3.92ZM2.25,32.82c.55-4.4,4.32-7.82,8.85-7.82.29,0,.6.02.9.04,1.92.2,3.68,1.03,5.05,2.25.2.18.38.37.57.57-1.48,1.32-2.62,3.02-3.22,4.96H2.25ZM16.15,35c.09-.75.29-1.48.57-2.18.48-1.23,1.23-2.31,2.18-3.2.53-.51,1.14-.95,1.78-1.3,1.28-.71,2.77-1.14,4.32-1.14.29,0,.6.02.9.04,1.23.13,2.4.51,3.42,1.12.59.31,1.14.7,1.63,1.14.05.04.09.09.15.15.95.88,1.7,1.98,2.18,3.2.29.7.48,1.43.57,2.18h-17.69ZM35.6,32.82c-.38-1.21-.95-2.34-1.7-3.35-.46-.6-.97-1.15-1.52-1.63,1.63-1.74,3.96-2.84,6.52-2.84.29,0,.6.02.9.04,1.92.2,3.68,1.03,5.05,2.25,1.56,1.41,2.64,3.35,2.89,5.53h-12.14Z"/>
</svg>