<?xml version="1.0" encoding="UTF-8"?>
<svg id="Iconos" xmlns="http://www.w3.org/2000/svg" viewBox="0 0 50 50">
  <defs>
    <style>
      .cls-1 {
        fill: #263a4e;
      }
    </style>
  </defs>
  <path class="cls-1" d="M23.63,23.54c0-.81-.66-1.47-1.46-1.47h-11.82c-.81,0-1.46.66-1.46,1.47s.66,1.46,1.46,1.46h11.82c.81,0,1.46-.66,1.46-1.46Z"/>
  <path class="cls-1" d="M16.21,27.93h-5.87c-.81,0-1.46.66-1.46,1.46s.66,1.47,1.46,1.47h5.87c.81,0,1.46-.66,1.46-1.47s-.66-1.46-1.46-1.46Z"/>
  <path class="cls-1" d="M16.21,33.78h-5.87c-.81,0-1.46.66-1.46,1.46s.66,1.46,1.46,1.46h5.87c.81,0,1.46-.66,1.46-1.46s-.66-1.46-1.46-1.46Z"/>
  <path class="cls-1" d="M14.78,14.75h2.89v2.89c0,.81.66,1.46,1.46,1.46s1.46-.66,1.46-1.46v-2.89h2.89c.81,0,1.46-.66,1.46-1.47s-.66-1.46-1.46-1.46h-2.89v-2.89c0-.81-.66-1.47-1.46-1.47s-1.46.66-1.46,1.47v2.89h-2.89c-.81,0-1.46.66-1.46,1.46s.66,1.47,1.46,1.47Z"/>
  <path class="cls-1" d="M35.24,23.7v-3.1h10.36c.81,0,1.46-.66,1.46-1.46V7.38c0-4.05-3.29-7.38-7.38-7.38H10.25C6.22,0,2.93,3.29,2.93,7.32v41.19c0,1.32,1.62,1.96,2.52,1.01l1.87-1.96,1.98,1.98c.57.57,1.5.57,2.07,0l1.88-1.88,1.9,1.88c.57.57,1.49.57,2.06,0l1.92-1.91,1.93,1.91c.57.57,1.49.57,2.06,0l2.49-2.47c2.26,1.83,5.14,2.92,8.27,2.92,7.27,0,13.18-5.91,13.18-13.18,0-6.81-5.19-12.43-11.83-13.11ZM35.24,7.38c0-2.45,1.99-4.45,4.45-4.45s4.45,1.99,4.45,4.45v10.3h-8.89V7.38ZM22.1,46.45l-1.93-1.91c-.57-.57-1.49-.57-2.06,0l-1.92,1.91-1.9-1.88c-.57-.57-1.5-.57-2.07,0l-1.87,1.87-2-2c-.6-.6-1.54-.56-2.09.02l-.39.4V7.32c0-2.42,1.97-4.39,4.39-4.39h23.55c-.94,1.24-1.5,2.78-1.5,4.45v16.35c-6.53.78-11.61,6.35-11.61,13.09,0,3.09,1.07,5.93,2.85,8.18l-1.46,1.45ZM33.88,47.07c-5.65,0-10.25-4.6-10.25-10.25s4.6-10.25,10.25-10.25,10.25,4.6,10.25,10.25-4.6,10.25-10.25,10.25Z"/>
  <path class="cls-1" d="M33.17,34.25c-.07-.13.01-.41.23-.56.32-.22,1.07-.13,1.31.1.59.55,1.52.51,2.07-.08.55-.59.51-1.52-.08-2.07-.39-.36-.87-.62-1.4-.79-.01-.8-.66-1.44-1.46-1.44s-1.46.66-1.46,1.46v.07c-1.87.77-2.7,3.02-1.75,4.73.66,1.2,1.81,1.65,2.72,2.01.61.24,1.62.6,1.55,1.25-.03.3-.28.62-.59.77-.49.23-1.47.08-2.07-.31-.68-.44-1.58-.25-2.03.42-.44.68-.25,1.59.42,2.03.48.32,1.09.57,1.75.73v.02c0,.81.66,1.47,1.46,1.47s1.46-.66,1.46-1.47v-.14c2.67-1.02,3.55-4.54,1.04-6.5-1.22-.95-2.85-1.15-3.16-1.71Z"/>
</svg>