<?xml version="1.0" encoding="UTF-8"?>
<svg id="Iconos" xmlns="http://www.w3.org/2000/svg" viewBox="0 0 50 50">
  <defs>
    <style>
      .cls-1 {
        fill: #263a4e;
      }
    </style>
  </defs>
  <path class="cls-1" d="M20.86,19.27v-.02c-.07-3.85-3.22-6.93-7.05-6.93-.04,0-.09,0-.13,0-3.82.07-6.86,3.11-6.93,6.95.03,1.89.8,3.64,2.16,4.95,1.33,1.28,3.06,1.98,4.9,1.98.04,0,.09,0,.13,0,3.82-.07,6.86-3.11,6.93-6.93ZM16.97,22.46c-.88.84-2.08,1.3-3.26,1.27-2.45-.05-4.42-2.01-4.47-4.46.03-1.22.53-2.35,1.41-3.19.88-.84,1.97-1.31,3.26-1.27,2.46.05,4.42,2.02,4.47,4.45-.03,1.22-.52,2.36-1.41,3.2Z"/>
  <path class="cls-1" d="M50,10.59s0-.06,0-.08c-.03-.28-.15-.54-.36-.79L40.45.55c-.14-.15-.31-.26-.45-.29-.2-.09-.29-.13-17.88-.09-4.12,0-8.02.02-8.33,0-.34,0-.65.13-.88.37-.24.24-.36.55-.36.89v4.07c-.8.14-1.44.79-1.55,1.63,0,.07-.01.15-.01.22v.68c-.12.03-.24.06-.36.09-.35-.64-.8-1.23-1.46-1.45-.46-.14-.94-.08-1.46.21-.16.1-.34.19-.54.3-.76.4-1.71.91-1.97,1.77-.13.45-.06.92.21,1.41l.33.58c-.09.09-.18.17-.27.27l-.59-.33c-.48-.26-.94-.33-1.38-.2-.87.26-1.39,1.2-1.8,1.97-.1.19-.2.37-.32.56-.26.51-.32,1-.17,1.46.21.65.79,1.09,1.44,1.45-.03.11-.06.22-.09.33-.72-.01-1.46.07-1.98.54-.35.32-.54.77-.57,1.35v.57c-.03,1.16-.05,2.08.59,2.68.42.39,1.02.56,1.96.54.03.11.06.23.1.34l-.58.35c-.47.28-.77.65-.88,1.11-.21.89.36,1.81.83,2.55.11.18.21.34.31.53.3.48.68.77,1.15.87.69.15,1.38-.15,2.01-.52.08.08.16.16.24.24-.48.76-.65,1.39-.52,1.95.2.89,1.07,1.37,2.08,1.92l.46.25c.5.26.98.31,1.44.17.66-.22,1.11-.81,1.45-1.44.12.03.24.06.36.09v.68c0,.51.21.98.57,1.33.28.27.62.45.99.51v15.6c.01.68.57,1.22,1.24,1.22h34.94c.68,0,1.23-.55,1.23-1.13q.01-.06.01-14.28c0-10.44,0-23.42,0-23.84ZM40.81,4.43l4.93,4.92h-4.93v-4.92ZM14.12,30.46s0,.05,0,.08h-.65s0-.05,0-.07c.04-.74.1-2.11-1.09-2.22-.03,0-.06,0-.09,0-.21,0-.59-.12-.94-.25-.7-.26-1.75-.66-2.4.28l-.53.92-.55-.33s.04-.06.06-.1c.39-.6,1.11-1.71.08-2.48-.22-.11-.46-.41-.7-.69-.49-.6-1.16-1.41-2.21-.95l-.93.52-.32-.55s.03-.02.05-.03c.66-.33,1.88-.94,1.36-2.14-.14-.21-.2-.59-.27-.96-.13-.76-.3-1.8-1.45-1.93h-1.06v-.61h1.11c1.09-.11,1.27-1.16,1.4-1.92.06-.37.13-.76.31-1.05.48-1.11-.75-1.73-1.41-2.06-.02,0-.03-.02-.05-.03l.32-.56s.07.04.1.06c.61.39,1.76,1.12,2.48.08.1-.21.4-.45.68-.68.61-.49,1.43-1.17.97-2.22l-.53-.92.55-.31.55.93c.61.93,1.68.52,2.39.26.35-.13.73-.26,1.02-.25,1.2-.11,1.13-1.49,1.09-2.23,0-.03,0-.05,0-.08h.65s0,.06,0,.09c-.04.74-.11,2.11,1.17,2.22.24-.02.58.12.93.25.71.27,1.79.67,2.41-.28l.54-.91.55.31s-.03.05-.05.07c-.39.61-1.12,1.74-.19,2.44.52.42.99.89,1.39,1.37.69,1,1.84.26,2.46-.14.03-.02.06-.04.08-.05l.32.56s-.03.02-.05.03c-.66.33-1.88.94-1.36,2.14.14.21.2.59.27.96.13.77.31,1.82,1.45,1.92h1.06v.62h-1.12c-1.08.13-1.25,1.16-1.38,1.91-.06.37-.13.76-.32,1.06-.48,1.11.75,1.73,1.41,2.06.02,0,.03.02.05.03l-.32.55-.95-.54c-1.01-.47-1.69.36-2.19.97-.24.29-.48.58-.78.74-.95.71-.22,1.84.17,2.45.02.03.04.06.05.08l-.56.33-.56-.96c-.63-.91-1.68-.52-2.37-.25-.35.13-.72.27-1.02.25-1.2.1-1.13,1.47-1.1,2.21ZM15.05,47.36v-14.33c.3-.05.59-.18.84-.37.4-.31.66-.76.72-1.28,0-.07.01-.13.01-.2v-.67c.12-.03.23-.06.35-.09.35.63.79,1.23,1.45,1.44.45.15.94.1,1.47-.17l.53-.3c.96-.53,1.78-1,1.98-1.84.13-.56-.03-1.17-.52-1.96.08-.08.16-.16.24-.24.58.35,1.29.68,1.99.52.46-.1.84-.4,1.16-.91.09-.16.2-.33.31-.51.47-.74,1.04-1.66.83-2.54-.11-.45-.41-.83-.89-1.11l-.57-.34c.03-.12.06-.23.09-.35.72.02,1.45-.06,1.97-.53.35-.32.54-.77.57-1.35v-.58c.03-1.16.05-2.08-.59-2.68-.42-.39-1.04-.56-1.96-.53-.03-.11-.06-.21-.09-.32.81-.44,1.27-.9,1.43-1.45.25-.86-.26-1.69-.86-2.66l-.26-.42c-.27-.48-.64-.77-1.1-.89-.7-.17-1.46.15-2.05.5-.08-.08-.16-.16-.24-.24.51-.85,1.1-2.19-.36-3.15l-.52-.3c-.99-.59-1.77-1.06-2.6-.8-.54.17-.99.61-1.43,1.42-.11-.03-.23-.06-.34-.09v-.69c-.02-.92-.69-1.68-1.57-1.84v-2.83h23.26v7.94c0,.69.55,1.25,1.24,1.26h7.95v35.5s-32.45,0-32.45,0Z"/>
  <path class="cls-1" d="M43.12,27.66c-.06-.06-.13-.12-.2-.17-.08-.07-.17-.14-.18-.14-.05-.07-.12-.13-.2-.18-3.34-2.76-7.14-3.48-10.73-2.05-3.79,1.52-6.64,5.28-7.11,9.37-.45,3.9,1.27,7.42,4.84,9.91,1.83,1.19,3.88,1.77,5.92,1.77,3.54,0,7.01-1.73,9.08-4.9,2.79-4.27,2.2-9.98-1.4-13.59,0,0,0,0-.01-.01ZM36.72,27.1c1.17.17,2.28.59,3.28,1.24l-2.3,2.61c-.31-.16-.64-.29-.97-.38v-3.47ZM37.17,33.59c.44.48.67,1.1.65,1.76-.03.65-.3,1.25-.78,1.7-.94.87-2.36.87-3.3,0,0,0-.02-.01-.03-.02-.43-.46-.66-1.06-.65-1.7,0-.65.27-1.26.74-1.72.95-.93,2.45-.93,3.38-.03ZM29.91,41.54c-3.24-2.94-3.69-7.94-.93-11.41.19-.24.39-.47.61-.68,1.26-1.26,2.89-2.08,4.64-2.34v3.48c-1.12.3-2.1.98-2.77,1.95-.75,1.08-1.04,2.4-.81,3.69.16.89.57,1.74,1.18,2.42l-1.92,2.9ZM40.31,42.13c-2.46,1.75-5.59,2.03-8.31.79l1.9-2.91c1.76.59,3.74.13,5.06-1.18l2.99,1.75c-.47.59-1.02,1.11-1.64,1.55ZM43.21,38.41l-2.98-1.74c.38-1.38.14-2.88-.65-4.07l2.29-2.59c1.94,2.33,2.46,5.59,1.34,8.4Z"/>
</svg>