<?xml version="1.0" encoding="UTF-8"?>
<svg id="Iconos" xmlns="http://www.w3.org/2000/svg" viewBox="0 0 50 50">
  <defs>
    <style>
      .cls-1 {
        fill: #263a4e;
      }
    </style>
  </defs>
  <path class="cls-1" d="M18.53,13.83c.12.25.16.47.12.73l-.2,1.75c-.19,1.5.64,2.9,2.04,3.5l.76.34-2.46,5.26c-.2.43-.14.92.15,1.28.3.38.75.55,1.2.48l2.45-.43,1.23,2.14c.25.39.65.62,1.08.62h.08c.48-.04.91-.34,1.08-.75l2.45-5.23.62-.19c.26-.07.5-.07.76,0l.63.19,2.44,5.22c.18.44.59.72,1.13.76.46,0,.87-.24,1.09-.63l1.25-2.13,2.42.43c.46.08.93-.11,1.23-.49.28-.4.32-.89.11-1.27l-2.44-5.26.76-.34c1.39-.6,2.2-2.01,2.02-3.5l-.2-1.75c-.03-.3.01-.51.14-.74l.77-1.58c.7-1.36.42-2.96-.69-3.97l-1.29-1.2c-.19-.19-.31-.4-.38-.66l-.4-1.69c-.31-1.47-1.55-2.52-3.09-2.62l-1.75-.09c-.3-.03-.5-.1-.71-.26l-1.41-1.06c-1.2-.92-2.83-.92-4.06,0l-1.41,1.07c-.2.15-.4.23-.67.25l-1.76.09c-1.52.09-2.77,1.14-3.11,2.61l-.4,1.69c-.08.27-.16.48-.38.67l-1.26,1.2c-1.1,1.01-1.39,2.6-.73,3.97l.81,1.58ZM24.83,26.42l-.8-1.34c-.17-.34-.52-.55-.9-.55-.06,0-.13,0-.19.02l-1.57.28,1.58-3.38.67,1.03c.56.82,1.4,1.36,2.36,1.5l-1.14,2.45ZM36.05,24.54c-.44-.08-.88.12-1.11.52l-.78,1.35-1.14-2.45c.97-.15,1.8-.68,2.34-1.5l.66-1.02,1.58,3.38-1.54-.28ZM19.88,9.8l1.27-1.21c.51-.48.82-1.02.98-1.7l.4-1.7c.14-.58.6-.96,1.2-.98l1.75-.12c.66-.03,1.26-.25,1.83-.66l1.41-1.06c.47-.35,1.08-.35,1.55,0l1.41,1.06c.54.41,1.14.63,1.83.66l1.76.12c.6.03,1.05.4,1.16.98l.4,1.69c.16.68.47,1.22.98,1.7l1.29,1.21c.43.41.53,1,.26,1.53l-.78,1.55c-.32.65-.44,1.28-.34,1.92l.2,1.75c.07.59-.23,1.1-.78,1.34l-1.62.69c-.65.29-1.15.72-1.47,1.25l-.98,1.47c-.33.5-.9.71-1.45.55l-1.68-.52c-.39-.11-.69-.15-.97-.15-.31,0-.63.05-.98.16l-1.69.52c-.57.16-1.13-.05-1.46-.54l-.95-1.47c-.37-.55-.86-.96-1.51-1.26l-1.61-.69c-.55-.24-.85-.75-.78-1.34l.23-1.76c.07-.69-.05-1.32-.35-1.92l-.8-1.54c-.27-.56-.16-1.13.28-1.53Z"/>
  <path class="cls-1" d="M46.18,32.45h0c-.46-.76-2.31-2.98-6.99-.25l-7.77,4.52c-.11.07-.21.13-.32.18,0-.03.02-.06.02-.09.46-1.7-.53-3.45-2.25-3.99l-.13-.04c-1.98-.34-3.98-1.04-5.59-1.61l-.54-.19c-.52-.19-1.02-.37-1.46-.53l-.25-.09c-2.07-.66-3.91.12-5.6,1.06l-5.43,3.16-.24-.42c-.29-.51-.77-.87-1.34-1.02-.58-.15-1.17-.08-1.67.22l-2.17,1.23c-.52.29-.9.77-1.06,1.35-.15.57-.08,1.16.21,1.66l6.41,11.3c.27.51.74.88,1.32,1.05l.08.02c.18.03.35.05.53.05.36,0,.73-.09,1.05-.27l2.21-1.23c.5-.31.87-.78,1.04-1.36.14-.59.06-1.16-.23-1.64l-.6-1.1.85-.5,9.81,2.63c.61.16,1.18.24,1.71.24,1.14,0,2.25-.32,3.29-.95l14.09-8.67c1.44-.9,1.9-3.14.98-4.71ZM11.99,47.89l-.04-.06h-.07l-6.39-11.31.04-.09h0s2.2-1.26,2.2-1.26l6.48,11.41-2.22,1.3ZM44.07,35.34l-14.09,8.67c-1.02.64-2.15.79-3.34.46l-10.19-2.72c-.1-.03-.19-.04-.29-.04-.19,0-.37.05-.52.15l-1.24.7-3.46-6.14,5.46-3.16c1.23-.72,2.54-1.31,3.85-.89.26.1.54.2.85.31.24.09.51.18.8.28l.11.04c1.78.64,4,1.44,6.28,1.87.61.21.95.79.81,1.37-.06.22-.24.92-1.38.79-1.25-.27-2.38-.58-3.41-.88-.53-.15-1.06-.29-1.61-.44-.28-.08-.56-.05-.8.09-.24.14-.42.36-.5.64-.08.28-.04.59.11.84.14.24.37.4.62.45.56.15,1.08.29,1.6.44,1.19.36,2.23.65,3.36.87l.51.12c.24.04.48.09.74.13,1.51.24,2.88,0,4.18-.74l7.77-4.51c2-1.18,3.56-1.38,4.08-.52.34.6.19,1.51-.28,1.81Z"/>
  <path class="cls-1" d="M29.49,19.77c4.29,0,7.77-3.48,7.77-7.77s-3.49-7.77-7.77-7.77-7.77,3.49-7.77,7.77,3.49,7.77,7.77,7.77ZM29.49,6.31c3.12,0,5.66,2.55,5.66,5.69s-2.54,5.69-5.66,5.69-5.69-2.55-5.69-5.69,2.55-5.69,5.69-5.69Z"/>
</svg>