<?xml version="1.0" encoding="UTF-8"?>
<svg id="Iconos" xmlns="http://www.w3.org/2000/svg" viewBox="0 0 50 50">
  <defs>
    <style>
      .cls-1 {
        fill: #263a4e;
      }
    </style>
  </defs>
  <path class="cls-1" d="M25.01,0C15.01,0,5.97,5.96,2.03,15.16c-.19.45-.37.91-.54,1.37-.15.43-.3.86-.43,1.29s-.25.86-.35,1.3-.2.87-.28,1.31-.15.87-.21,1.31-.1.87-.14,1.31-.06.87-.07,1.31-.01.87,0,1.3.03.86.07,1.3.08.86.14,1.29.12.85.2,1.27.17.84.27,1.26.21.83.33,1.24.25.82.39,1.22.29.8.45,1.2.33.79.51,1.17.37.77.57,1.15.41.75.63,1.12.45.73.69,1.08.49.71.74,1.05.52.68.8,1.01.56.66.85.97.6.63.91.93.63.6.96.89.67.57,1.01.84.7.54,1.06.79.73.5,1.11.74.77.46,1.16.68.8.43,1.2.62.83.39,1.25.56c.1.04.19.08.29.12,2.99,1.21,6.18,1.83,9.4,1.83,13.8,0,25-11.19,25-25C50,11.2,38.81,0,25.01,0ZM44.61,37.6l-1.28-1.28v-2.99c0-.13-.03-.26-.08-.37l-3.25-6.49v-3.14c0-.28-.14-.54-.37-.69l-2.5-1.67c-.2-.13-.44-.17-.67-.12l-3.06.76-5.14-2.21-.71-4.96,1.96-1.96h4.21l1.42,2.13c.13.19.33.32.56.36l5,.83c.13.02.27.01.4-.03l4.6-1.53c3.86,7.41,3.45,16.33-1.08,23.35ZM41.18,8.21l-1.35.9-3.78-.76-2.45-.82c-.15-.05-.31-.06-.46-.02l-3.1.77-1.36-.45,1.01-2.01h2.82c.13,0,.26-.03.37-.09l2.88-1.44c1.99,1.04,3.81,2.35,5.42,3.91ZM15.88,3.53l2,1.33c.1.07.21.11.33.13l4.04.67-.39,1.18-2.1.7c-.19.06-.35.19-.45.36l-2.39,3.99-3.84,2.31-5.67.81c-.41.06-.72.41-.72.82v2.5c0,.22.09.43.24.59l1.42,1.42v1.43l-3.47-2.31-1.26-3.77c2.39-5.47,6.78-9.82,12.26-12.16ZM13.5,30.85l-3.77-.75-1.4-2.79v-1.96l3.1-3.1,1.15,2.3c.14.28.43.46.75.46h5.36l2.26,3.76c.15.25.42.4.71.4h2.32l-.58,2.92-3.15,3.15c-.16.16-.24.37-.24.59v2.08l-3,2.25c-.21.16-.33.4-.33.67v3.01l-1.04-.34-1.46-3.66v-8.17c0-.4-.28-.74-.67-.82ZM11,43.66C3.14,37.77-.18,27.58,2.69,18.19l.69,2.08c.06.18.17.33.33.43l4.15,2.77-.95.95c-.16.16-.24.37-.24.59v2.5c0,.13.03.26.09.37l1.67,3.33c.12.23.33.39.58.44l3.5.7v7.65c0,.11.02.21.06.31l1.67,4.17c.09.23.28.4.51.48l2.5.83c.08.03.17.04.26.04.46,0,.83-.37.83-.83v-3.75l3-2.25c.21-.16.33-.4.33-.67v-2.15l3.09-3.09c.12-.12.2-.26.23-.43l.83-4.17c.09-.45-.2-.89-.65-.98-.05-.01-.11-.02-.16-.02h-2.86l-2.26-3.76c-.15-.25-.42-.4-.71-.4h-5.32l-1.43-2.87c-.12-.24-.35-.41-.61-.45-.26-.05-.53.04-.72.23l-1.08,1.08v-1.32c0-.22-.09-.43-.24-.59l-1.42-1.42v-1.43l5.12-.73c.11-.02.22-.05.31-.11l4.17-2.5c.12-.07.21-.17.28-.28l2.34-3.9,2.21-.74c.25-.08.44-.28.53-.53l.83-2.5c.14-.44-.09-.91-.53-1.05-.04-.01-.08-.02-.12-.03l-4.82-.8-.85-.56c5.24-1.71,10.92-1.5,16.02.6l-1.52.76h-3.14c-.32,0-.61.18-.75.46l-1.67,3.33c-.21.41-.04.91.37,1.12.04.02.07.03.11.04l2.5.83c.15.05.31.06.46.02l3.1-.77,2.27.76s.07.02.1.03l4.17.83c.22.04.44,0,.63-.12l1.9-1.26c.93,1.04,1.77,2.16,2.51,3.35l-4.1,1.37-4.44-.74-1.47-2.2c-.15-.23-.41-.37-.69-.37h-5c-.22,0-.43.09-.59.24l-2.5,2.5c-.19.19-.27.45-.24.71l.83,5.83c.04.29.23.53.5.65l5.83,2.5c.17.07.35.09.53.04l2.98-.74,1.82,1.22v2.89c0,.13.03.26.08.37l3.25,6.49v3.14c0,.22.09.43.24.59l1.74,1.74c-7.73,10.31-22.35,12.39-32.65,4.66Z"/>
</svg>