<?xml version="1.0" encoding="UTF-8"?>
<svg id="Iconos" xmlns="http://www.w3.org/2000/svg" viewBox="0 0 50.5 50.5">
  <defs>
    <style>
      .cls-1 {
        fill: #263a4e;
      }
    </style>
  </defs>
  <path class="cls-1" d="M49.66,3.93L30.14.02c-.34-.07-.69.04-.93.28L.3,29.22C.11,29.4,0,29.65,0,29.93v4.69c0,.49.35.91.83,1.01l3.32.66-3.86,3.87C.05,40.44,0,40.71,0,40.88v4.69c0,.49.35.91.83,1.01l19.53,3.91c.07.01.13.02.2.02.29,0,.54-.11.74-.3l28.91-28.91c.19-.19.3-.45.3-.73v-4.69c0-.49-.35-.91-.83-1.01l-3.32-.66,3.85-3.85c.19-.2.3-.45.3-.73v-4.7c0-.05,0-.1-.01-.16-.05-.47-.52-.77-.82-.84ZM48.44,18.37v1.77l-26.84,26.84v-1.77l26.84-26.84ZM19.53,45.63v2.58l-17.47-3.49v-2.58l17.47,3.49ZM2.06,33.78v-2.58l17.47,3.49v2.58l-17.47-3.49ZM10.13,41.65c.38-1.32.85-2.61,1.41-3.86l6.84,1.37c-.69,1.21-1.25,2.49-1.69,3.81l-6.56-1.31ZM9.47,37.37c-.54,1.26-1,2.56-1.37,3.87l-4.98-1,3.46-3.46,2.89.58ZM3.12,29.3L30.28,2.15l.18.04-3.15,3.15c-7.43,7.44-13.82,15.85-18.98,25.01l-5.2-1.04ZM10.45,30.77c5.01-8.77,11.17-16.83,18.3-23.98l4.12-4.12,1.52.3-3.36,3.53c-6.8,7.15-11.52,16.02-13.68,25.64l-6.91-1.38ZM35.44,28.45c.73-3.01,2.29-5.72,4.54-7.88l4.62-4.62,2.78.56-11.94,11.94ZM20.54,39.56s.02,0,.02,0c.15,0,.27-.03.4-.08.13-.05.24-.13.33-.22l12.51-12.51c-.44,1.39-.75,2.82-.93,4.26l-12.65,12.65-1.49-.3c.46-1.33,1.06-2.61,1.8-3.8ZM35.65,7.61c-5.24,4.92-8.45,11.58-9.05,18.74l-6.38,6.38-.83-.17c2.08-9.24,6.62-17.75,13.15-24.62l4.25-4.48,2.7.54-3.84,3.61ZM29,23.95c1.03-5.65,3.87-10.9,8.07-14.84l4.91-4.62,5.4,1.08-18.38,18.38ZM21.59,36.04v-1.77L48.44,7.43v1.77l-26.84,26.84Z"/>
</svg>