<?xml version="1.0" encoding="UTF-8"?>
<svg id="Iconos" xmlns="http://www.w3.org/2000/svg" viewBox="0 0 50 50">
  <defs>
    <style>
      .cls-1 {
        fill: #263a4e;
      }
    </style>
  </defs>
  <path class="cls-1" d="M49.99,40.76l-3.3-21.17c-.09-.56-.57-.97-1.14-.97h-14.47v-2.59h11.57c.63,0,1.15-.52,1.15-1.15v-5.81c0-.63-.52-1.15-1.15-1.15H7.36c-.64,0-1.15.52-1.15,1.15v5.81c0,.63.52,1.15,1.15,1.15h11.57v2.59H4.45c-.57,0-1.05.41-1.14.97L.01,40.76c-.1.63.33,1.22.96,1.31.06,0,.12.01.18.01h47.7c.31,0,.6-.12.81-.34.22-.22.34-.51.34-.81,0-.06,0-.12-.01-.18ZM41.49,10.21v3.5H8.51v-3.5h32.99ZM28.77,16.02v2.59h-7.54v-2.59h7.54ZM47.5,39.79H2.5l2.94-18.87h39.13l2.94,18.87Z"/>
  <path class="cls-1" d="M23.59,22.55H7.52c-.63,0-1.15.52-1.15,1.15v12.63c0,.64.52,1.15,1.15,1.15h16.08c.64,0,1.15-.52,1.15-1.15v-12.63c0-.64-.52-1.15-1.15-1.15ZM8.67,35.18v-10.33h13.77v10.33h-13.77Z"/>
  <path class="cls-1" d="M30.54,27.81h7.32c.63,0,1.15-.52,1.15-1.15s-.52-1.15-1.15-1.15h-7.32c-.63,0-1.15.52-1.15,1.15s.52,1.15,1.15,1.15Z"/>
  <path class="cls-1" d="M42.96,28.56h-12.42c-.63,0-1.15.52-1.15,1.15s.52,1.15,1.15,1.15h12.42c.64,0,1.15-.52,1.15-1.15s-.52-1.15-1.15-1.15Z"/>
  <path class="cls-1" d="M34.2,32.22h-3.66c-.63,0-1.15.52-1.15,1.15s.52,1.15,1.15,1.15h3.66c.64,0,1.15-.52,1.15-1.15s-.52-1.15-1.15-1.15Z"/>
  <path class="cls-1" d="M41.74,32.22h-3.87c-.64,0-1.15.52-1.15,1.15s.52,1.15,1.15,1.15h3.87c.64,0,1.15-.52,1.15-1.15s-.52-1.15-1.15-1.15Z"/>
</svg>