<?xml version="1.0" encoding="UTF-8"?>
<svg id="Iconos" xmlns="http://www.w3.org/2000/svg" viewBox="0 0 50 50">
  <defs>
    <style>
      .cls-1 {
        fill: #263a4e;
      }
    </style>
  </defs>
  <path class="cls-1" d="M44.82,14.11c.11-.25.18-.51.18-.78v-5.83h-.01c-.3-4.86-20.2-5-22.49-5S.31,2.64.01,7.5h-.01v5.83c0,1.58,2.05,2.82,5.09,3.75-.04.14-.07.28-.08.42h-.01v5.82C1.72,24.17.09,25.26,0,26.67h0v5.83c0,1.1,1,2.04,2.62,2.82-.06.17-.1.34-.11.52h-.01v5.83c0,2.77,6.25,4.49,13.18,5.3.05.01.1.03.15.03.02,0,.03,0,.04-.01,1.34.15,2.7.27,4.04.35.03,0,.05.02.08.02.02,0,.03,0,.04,0,1.71.1,3.39.16,4.96.16s3.25-.05,4.96-.16c.02,0,.03.01.04.01.03,0,.05-.01.08-.02,1.34-.08,2.7-.2,4.04-.35.02,0,.03,0,.04,0,.05,0,.1-.02.15-.03,6.93-.8,13.17-2.53,13.18-5.3v-5.83h-.01c-.06-1.02-.93-1.88-2.65-2.59.11-.24.16-.49.16-.75v-5.45c2.99-.92,5-2.15,5-3.72v-5.83h0c-.08-1.43-1.78-2.54-5.17-3.39ZM4.17,15.01c-1.62-.61-2.5-1.22-2.5-1.69v-3.45c.67.42,1.51.8,2.5,1.15v3.99ZM1.68,7.57c.13-1.24,7.08-3.4,20.82-3.4s20.69,2.16,20.82,3.4c-.1.56-1.38,1.31-3.65,2.01-2.95.91-7.56,1.75-13.41,2-.3.01-.6.02-.9.03-.25,0-.5.02-.75.02-.69.02-1.39.03-2.11.03s-1.42-.01-2.11-.03c-.25,0-.5-.01-.75-.02-.31,0-.6-.02-.9-.03-5.85-.26-10.46-1.09-13.41-2-2.27-.7-3.54-1.44-3.64-2.01ZM43.33,9.88v3.45c0,.13-.07.26-.19.41h-.02s-.3.23-.3.23c-.44.34-1.12.69-1.98,1.02v-3.96c.99-.34,1.83-.73,2.5-1.15ZM39.17,11.54v4.02c-.75.22-1.59.42-2.5.62v-4.06c.88-.17,1.72-.37,2.5-.58ZM35,12.41v4.09c-.79.14-1.62.27-2.5.38v-4.12c.86-.1,1.69-.22,2.5-.35ZM30.83,12.94v4.13c-.81.09-1.64.16-2.5.22v-4.15c.85-.06,1.68-.12,2.5-.2ZM26.67,13.24v4.16c-.14,0-.28.02-.42.02-.01,0-.02,0-.04,0-.56.02-1.13.04-1.71.06-.09,0-.18,0-.27,0-.3,0-.6,0-.9.01v-4.16c.23,0,.46,0,.69-.01.04,0,.09,0,.13,0,.84-.02,1.68-.04,2.51-.08ZM21.67,13.33v4.16c-1.12-.01-2.24-.04-3.33-.09v-4.16c.84.04,1.67.06,2.51.08h.13c.23,0,.46,0,.69.01ZM16.67,13.14v4.15c-.85-.06-1.68-.13-2.5-.22v-4.13c.82.08,1.65.15,2.5.2ZM12.5,12.76v4.12c-.16-.02-.34-.04-.5-.06-.11-.01-.21-.03-.31-.05-.48-.07-.95-.14-1.41-.22-.09-.02-.18-.03-.27-.05v-4.09c.81.13,1.64.25,2.5.35ZM5.83,15.56v-4.02c.78.21,1.62.4,2.5.58v4.07c-.1-.02-.21-.04-.31-.06-.44-.1-.87-.2-1.29-.31-.32-.08-.61-.16-.9-.25ZM6.67,19.88c.67.42,1.51.8,2.5,1.15v3.96c-1.31-.51-2.15-1.02-2.43-1.48l-.06-.09s-.01-.05-.01-.08v-3.45ZM5.7,24.86s.03.02.04.04c1.14,1.15,3.5,2.05,6.44,2.73.07.01.14.03.21.05.22.05.44.09.66.14,2.7.57,5.93.99,9.44,1.2h0c1.13.07,2.28.11,3.46.13.52.01,1.04.02,1.54.02.57,0,1.16,0,1.76-.02,1.09-.02,2.16-.07,3.22-.13,0,0,0,0,.01,0,0,0,.01,0,.02,0,3.52-.21,6.83-.63,9.62-1.23-.6.32-1.43.64-2.46.96-3.11.96-8.08,1.84-14.4,2.04-.19,0-.37.01-.56.02-.2,0-.41,0-.62.01-.52,0-1.05.02-1.59.02-.72,0-1.42-.01-2.11-.03-.25,0-.5-.01-.75-.02-.31,0-.6-.02-.9-.03-5.85-.26-10.46-1.09-13.41-2-2.29-.71-3.57-1.46-3.65-2.03.09-.31.93-1.1,4.03-1.85ZM10.83,25.55v-4.01c.78.21,1.62.4,2.5.58v4.06c-.92-.2-1.76-.41-2.5-.63ZM15,26.5v-4.09c.81.13,1.64.25,2.5.35v4.12c-.51-.07-1.01-.14-1.49-.21-.02,0-.04,0-.06-.01-.33-.05-.64-.11-.95-.16ZM19.17,27.08v-4.14c.82.08,1.66.15,2.5.2v4.15c-.07,0-.14,0-.21-.01-.11,0-.23-.02-.34-.02-.53-.04-1.05-.09-1.56-.14-.11-.01-.22-.02-.33-.03-.02,0-.04,0-.07,0ZM23.33,27.4v-4.16c.83.04,1.67.06,2.51.08.04,0,.09,0,.13,0,.23,0,.46,0,.69.01v4.16c-.41,0-.81,0-1.21-.01-.06,0-.12,0-.18,0-.63-.02-1.24-.04-1.84-.07-.03,0-.06,0-.1,0ZM28.33,27.49v-4.16c.23,0,.46,0,.69-.01.04,0,.09,0,.13,0,.84-.02,1.68-.04,2.51-.08v4.16c-1.09.05-2.21.08-3.33.1ZM33.33,27.29v-4.15c.85-.05,1.68-.12,2.5-.2v4.13c-.48.05-.97.1-1.46.14-.03,0-.06,0-.09,0-.31.03-.63.04-.95.07ZM37.5,26.88v-4.12c.86-.1,1.69-.22,2.5-.35v4.09s-.05.01-.08.01c-.37.06-.74.13-1.11.18-.22.03-.44.06-.66.1-.21.03-.43.05-.64.08ZM42.5,25.99c-.21.05-.42.1-.64.14-.06.01-.13.03-.2.04v-4.07c.88-.17,1.72-.37,2.5-.58v4.03c-.12.03-.24.07-.36.1-.41.12-.85.22-1.3.33ZM43.33,29.05v3.45c0,.09-.03.18-.09.27l-.28.25c-.44.39-1.17.78-2.13,1.15v-3.97c.99-.35,1.83-.73,2.5-1.15ZM39.17,30.7v4.02c-.74.21-1.58.42-2.5.62v-4.07c.88-.18,1.72-.37,2.5-.58ZM35,31.57v4.09c-.78.14-1.62.27-2.5.38v-4.12c.86-.1,1.69-.22,2.5-.35ZM30.83,32.11v4.14c-.52.05-1.04.11-1.58.15-.12.01-.24.02-.36.03-.18.01-.37.03-.55.04v-4.16c.85-.05,1.68-.12,2.5-.2ZM26.67,32.4v4.16c-.18,0-.36.02-.54.02-.5.02-1.01.04-1.52.05-.12,0-.24,0-.37,0-.3,0-.6,0-.91.01v-4.16c.23,0,.46,0,.69-.01.04,0,.09,0,.13,0,.84-.02,1.68-.04,2.51-.08ZM21.67,32.5v4.16c-.16,0-.32,0-.48,0-.07,0-.14,0-.22,0-.38,0-.76-.01-1.14-.03h-.14c-.45-.02-.91-.04-1.35-.06v-4.16c.84.04,1.67.06,2.51.08.04,0,.09,0,.13,0,.23,0,.46,0,.69.01ZM16.67,32.31v4.15c-.7-.05-1.39-.11-2.07-.17-.08-.01-.17-.02-.25-.03-.06,0-.12-.01-.18-.02v-4.14c.82.08,1.65.15,2.5.2ZM12.5,31.93v4.12c-.88-.12-1.72-.24-2.5-.38v-4.09c.81.13,1.64.25,2.5.35ZM8.33,31.28v4.07c-.77-.16-1.47-.33-2.11-.51-.1-.03-.21-.06-.31-.09-.03,0-.05-.02-.08-.02v-4.03c.78.21,1.62.4,2.5.58ZM3.68,33.99c-1.31-.54-2.01-1.07-2.01-1.5v-3.45c.67.42,1.51.8,2.5,1.15v3.97l-.48-.19h-.01ZM6.67,43.35c-1.62-.61-2.5-1.22-2.5-1.69v-3.45c.67.42,1.51.8,2.5,1.15v3.99ZM10.83,44.51c-.92-.2-1.76-.4-2.5-.62v-4.03c.78.21,1.61.4,2.5.58v4.07ZM15,45.21c-.88-.12-1.72-.24-2.5-.38v-4.09c.81.13,1.64.25,2.5.35v4.12ZM19.17,45.63c-.87-.06-1.7-.14-2.5-.22v-4.14c.82.08,1.66.15,2.5.2v4.16ZM24.17,45.83c-1.15-.01-2.26-.04-3.33-.1v-4.16c.84.04,1.67.06,2.51.08.04,0,.09,0,.13,0,.23,0,.46,0,.69,0v4.17ZM29.17,45.73c-1.07.05-2.18.09-3.33.1v-4.17c.23,0,.46,0,.69-.01.04,0,.09,0,.13,0,.84-.02,1.68-.04,2.51-.08v4.16ZM33.33,45.41c-.8.08-1.63.16-2.5.22v-4.16c.84-.06,1.68-.12,2.5-.2v4.14ZM37.5,44.83c-.78.14-1.62.27-2.5.38v-4.12c.86-.1,1.69-.22,2.5-.35v4.09ZM41.67,43.89c-.74.21-1.58.42-2.5.62v-4.07c.88-.18,1.72-.37,2.5-.58v4.03ZM45.83,41.66c0,.47-.88,1.08-2.5,1.69v-3.99c.99-.35,1.83-.73,2.5-1.15v3.45ZM45.82,35.9c-.09.56-1.37,1.31-3.65,2.02-2.95.91-7.56,1.75-13.41,2-.3.01-.6.03-.9.04-.25,0-.5.02-.75.02-.69.01-1.39.03-2.11.03s-1.42-.01-2.11-.03c-.25,0-.5-.01-.75-.02-.31-.01-.61-.02-.91-.03-5.85-.26-10.46-1.09-13.41-2-2.2-.68-3.48-1.4-3.64-1.96.25.09.51.17.77.25.03,0,.05.02.08.02.23.07.46.14.69.2.09.02.18.05.27.07.13.03.27.07.41.11,3.03.78,6.91,1.33,11.09,1.58h0c1.29.07,2.61.12,3.94.14.36,0,.71.01,1.05.01.46,0,.93,0,1.41-.01,1.22-.02,2.42-.06,3.59-.14,0,0,0,0,0,0,0,0,0,0,.01,0,1.43-.09,2.81-.21,4.14-.36,0,0,0,0,.02,0,.02,0,.03,0,.05-.01,1.48-.17,2.88-.38,4.19-.63.27-.05.53-.1.79-.15.06-.01.12-.02.17-.04,2.46-.51,4.59-1.16,6.05-1.97.08-.04.16-.09.23-.13.09-.05.18-.11.27-.17.08-.05.17-.1.25-.15,1.64.59,2.1,1.11,2.15,1.32ZM44.68,19.58c-2.95.91-7.56,1.75-13.41,2-.3.01-.6.02-.9.03-.25,0-.5.02-.75.02-.69.02-1.39.03-2.11.03s-1.42-.01-2.11-.03c-.25,0-.5-.01-.75-.02-.31-.01-.6-.02-.9-.04-5.85-.26-10.46-1.09-13.41-2-2.27-.7-3.55-1.45-3.64-2.01,0-.02,0-.03.01-.05.06.01.12.03.18.04.33.08.66.15,1,.22,1.66.36,3.49.65,5.45.87,0,0,.01,0,.02,0h0c1.33.15,2.71.27,4.13.35.01,0,.02,0,.03,0,0,0,0,0,.02,0,1.02.06,2.05.1,3.1.13.64.01,1.27.02,1.88.02.44,0,.89,0,1.34-.01,6.05-.09,11.67-.81,15.57-1.93.18-.05.36-.1.53-.16.11-.03.21-.06.32-.1.3-.1.59-.2.87-.3.05-.02.09-.04.14-.05.24-.09.46-.18.68-.28.06-.03.13-.05.19-.08.23-.11.45-.21.66-.32.09-.05.17-.1.26-.15.1-.06.2-.12.29-.17.05-.03.11-.06.16-.1,3.73.81,4.71,1.7,4.81,2.04-.08.57-1.36,1.32-3.65,2.03ZM48.33,23.33c0,.47-.88,1.08-2.5,1.69v-3.99c.99-.35,1.83-.73,2.5-1.15v3.45Z"/>
</svg>