<?xml version="1.0" encoding="UTF-8"?>
<svg id="Iconos" xmlns="http://www.w3.org/2000/svg" viewBox="0 0 50 50">
  <defs>
    <style>
      .cls-1 {
        fill: #263a4e;
      }
    </style>
  </defs>
  <path class="cls-1" d="M17.07,34.3h15.86c.77,0,1.38-.6,1.38-1.36,0-.31-.01-.61-.04-.92h0c-.06-.57-.18-1.16-.37-1.83-.33-1.04-.81-1.98-1.43-2.81-.39-.51-.81-.97-1.25-1.34-.18-.18-.37-.34-.55-.48-.32-.25-.66-.46-.93-.61-.23-.14-.47-.27-.7-.39.73-.84,1.19-1.9,1.29-2.99.02-.17.03-.35.03-.52,0-.58-.09-1.14-.27-1.69-.73-2.18-2.76-3.64-5.07-3.64-2.94,0-5.33,2.39-5.33,5.33,0,1.31.47,2.56,1.32,3.52-.23.12-.46.24-.68.38-.51.3-1,.65-1.49,1.09-1.27,1.13-2.21,2.57-2.7,4.16-.18.59-.31,1.2-.37,1.84-.03.29-.05.62-.05.91,0,.75.62,1.36,1.38,1.36ZM25.66,26.4c.89.09,1.76.38,2.53.83.43.23.83.51,1.21.85,0,0,.08.09.09.1.7.64,1.25,1.46,1.6,2.36.14.32.24.67.32,1.03h-12.83c.08-.34.18-.69.32-1.04.34-.88.88-1.68,1.61-2.36.39-.37.82-.69,1.3-.95,1.18-.65,2.52-.88,3.84-.81ZM25.97,23.43c-1.77.71-3.57-.65-3.57-2.4,0-1.44,1.17-2.6,2.6-2.6,1.34,0,2.47,1.05,2.58,2.44,0,.06,0,.1,0,.16,0,1.07-.63,2.01-1.61,2.4Z"/>
  <path class="cls-1" d="M1.53,20.41C.69,20.41,0,21.1,0,21.94v6.12c0,.84.68,1.53,1.53,1.53h5.16c.45,1.8,1.16,3.52,2.12,5.12l-3.65,3.65c-.59.59-.6,1.56,0,2.16l4.33,4.33c.6.59,1.57.59,2.16,0l3.65-3.65c1.6.96,3.31,1.67,5.12,2.12v5.16c0,.84.68,1.53,1.53,1.53h6.12c.84,0,1.53-.69,1.53-1.53v-5.16c1.8-.45,3.52-1.16,5.12-2.12l3.65,3.65c.6.59,1.57.59,2.16,0l4.33-4.33c.59-.6.59-1.56,0-2.16l-3.65-3.65c.96-1.6,1.67-3.31,2.12-5.12h5.16c.84,0,1.53-.68,1.53-1.53v-6.12c0-.84-.68-1.53-1.53-1.53h-5.16c-.45-1.8-1.16-3.52-2.12-5.12l3.65-3.65c.59-.6.59-1.56,0-2.16l-4.33-4.33c-.59-.59-1.57-.6-2.16,0l-3.65,3.65c-1.6-.96-3.31-1.67-5.12-2.12V1.53c0-.84-.68-1.53-1.53-1.53h-6.12c-.84,0-1.53.69-1.53,1.53v5.16c-1.8.45-3.52,1.16-5.12,2.12l-3.65-3.65c-.59-.59-1.57-.59-2.16,0l-4.33,4.33c-.59.59-.6,1.56,0,2.16l3.65,3.65c-.96,1.6-1.67,3.32-2.12,5.12H1.53ZM9.42,22.21c.4-2.25,1.27-4.36,2.59-6.24.42-.61.35-1.43-.17-1.95l-3.44-3.44,2.17-2.17,3.44,3.44c.53.52,1.35.6,1.95.17,1.89-1.32,3.99-2.19,6.24-2.59.73-.13,1.26-.76,1.26-1.5V3.05h3.07v4.87c0,.74.53,1.37,1.26,1.5,2.25.4,4.36,1.27,6.24,2.59.61.42,1.43.35,1.95-.17l3.44-3.44,2.17,2.17-3.44,3.44c-.52.52-.6,1.34-.17,1.95,1.32,1.89,2.19,3.99,2.59,6.24.13.73.76,1.26,1.5,1.26h4.87v3.07h-4.87c-.74,0-1.37.53-1.5,1.26-.4,2.25-1.27,4.35-2.59,6.24-.42.61-.35,1.43.17,1.95l3.44,3.44-2.17,2.17-3.44-3.44c-.52-.52-1.34-.6-1.95-.17-1.89,1.32-3.99,2.19-6.24,2.59-.73.13-1.26.76-1.26,1.5v4.86h-3.07v-4.86c0-.74-.53-1.37-1.26-1.5-2.25-.4-4.35-1.27-6.24-2.59-.61-.42-1.43-.35-1.95.17l-3.44,3.44-2.17-2.17,3.44-3.44c.52-.52.6-1.34.17-1.95-1.32-1.89-2.19-3.99-2.59-6.24-.13-.73-.76-1.26-1.5-1.26H3.05v-3.07h4.87c.74,0,1.37-.53,1.5-1.26Z"/>
</svg>