<?xml version="1.0" encoding="UTF-8"?>
<svg id="Iconos" xmlns="http://www.w3.org/2000/svg" viewBox="0 0 50 50">
  <defs>
    <style>
      .cls-1 {
        fill: #263a4e;
      }
    </style>
  </defs>
  <path class="cls-1" d="M7.37,13.15h16.89c.94,0,1.7-.77,1.7-1.7s-.76-1.7-1.7-1.7H7.37c-.94,0-1.7.76-1.7,1.7s.76,1.7,1.7,1.7Z"/>
  <path class="cls-1" d="M25.96,18.36c0-.94-.76-1.7-1.7-1.7H7.37c-.94,0-1.7.77-1.7,1.7s.76,1.7,1.7,1.7h16.89c.94,0,1.7-.76,1.7-1.7Z"/>
  <path class="cls-1" d="M46.96,24.23s0,0,0,0c-1.27-1.55-2.91-2.81-4.75-3.67v-8.43c0-.39-.22-.89-.53-1.2-.09-.09-9.78-9.78-10.22-10.25-.02-.03-.04-.05-.07-.07-.32-.27-.81-.46-1.19-.46H3.26C1.46.16,0,1.62,0,3.42v43.16c0,1.8,1.46,3.26,3.26,3.26h35.66c1.82,0,3.29-1.46,3.29-3.26v-1.65c.99-.44,1.96-1.03,2.87-1.77,2.79-2.29,4.51-5.52,4.85-9.09.34-3.55-.72-7.05-2.97-9.84ZM31.93,5.95l4.73,4.72-4.38.29c-.11-.01-.35-.11-.35-.33v-4.68ZM38.81,46.44H3.4V3.56h25.12v7.07c0,2.04,1.66,3.69,3.8,3.69h0l6.49-.36v5.55c-.3-.05-.63-.1-.93-.13-3.58-.37-7.09.68-9.89,2.97-4.49,3.7-6.07,10.04-3.87,15.45l-.39,3.99c-.05.43.08.87.36,1.21.29.35.69.55,1.12.58l4,.39c2.19,1.45,4.75,2.21,7.4,2.21.71,0,1.44-.06,2.2-.19v.44ZM46.65,33.76c-.24,2.67-1.54,5.12-3.65,6.88,0,0,0,0,0,0-.45.38-.99.74-1.59,1.04-.65.36-1.37.64-2.18.87-2.92.79-6.02.25-8.5-1.48-.2-.15-.46-.26-.79-.33l-2.75-.24.24-2.72c.06-.27.02-.55-.11-.88-1.84-4.17-.7-9.1,2.77-11.98,2.12-1.71,4.78-2.48,7.46-2.27.55.07,1.12.18,1.68.31.83.23,1.55.51,2.19.87,1.16.63,2.16,1.47,2.99,2.5,1.73,2.08,2.53,4.72,2.26,7.44Z"/>
  <path class="cls-1" d="M38.97,29.17s-.11.1-.12.13l-2.85,3.66-.94-.89c-.32-.32-.73-.51-1.21-.49-.46.01-.88.2-1.18.53-.32.32-.49.76-.48,1.21,0,.46.2.88.53,1.19l1.79,1.72c.43.41,1.01.64,1.6.64.06,0,.11,0,.17,0,.65-.05,1.24-.37,1.64-.88l3.59-4.58c.57-.73.45-1.77-.28-2.39-.68-.51-1.65-.45-2.26.16Z"/>
</svg>