<?xml version="1.0" encoding="UTF-8"?>
<svg id="Iconos" xmlns="http://www.w3.org/2000/svg" viewBox="0 0 50 50">
  <defs>
    <style>
      .cls-1 {
        fill: #263a4e;
      }
    </style>
  </defs>
  <path class="cls-1" d="M31.82,33.6v-10.72c0-2.14-1.75-3.89-3.91-3.89h-.73v-2.28c0-3.74-3.04-6.79-6.78-6.79s-6.78,3.05-6.78,6.79v2.28h-.71c-2.16,0-3.91,1.75-3.91,3.89v10.72c0,2.16,1.75,3.91,3.91,3.91h14.99c2.16,0,3.91-1.75,3.91-3.91ZM15.99,16.71c0-2.44,1.99-4.43,4.42-4.43s4.43,1.99,4.43,4.43v2.28h-8.85v-2.28ZM29.46,33.6c0,.86-.69,1.55-1.55,1.55h-14.99c-.86,0-1.57-.69-1.57-1.55v-10.72c0-.84.71-1.53,1.57-1.53h14.99c.86,0,1.55.69,1.55,1.53v10.72Z"/>
  <path class="cls-1" d="M25.63,26.54c-.22-.61-.88-.94-1.48-.74l-2.56.83v-2.68c0-.66-.52-1.18-1.18-1.18s-1.18.52-1.18,1.18v2.68l-2.55-.83c-.62-.2-1.3.14-1.5.76-.19.62.14,1.26.76,1.48l2.56.83-1.57,2.17c-.19.25-.27.56-.22.88.05.3.22.59.47.78.22.15.46.22.69.22.37,0,.73-.17.94-.49l1.58-2.17,1.58,2.17c.39.52,1.13.64,1.64.27.27-.19.42-.46.47-.78.05-.3-.02-.62-.2-.88l-1.58-2.17,2.56-.83c.62-.22.96-.86.76-1.48v-.02Z"/>
  <path class="cls-1" d="M49.99,10.37v-.02c0-.52-.35-.98-.91-1.13-6.95-1.82-11.14-2.92-18.85-7.72-.39-.24-.86-.24-1.25,0-1.45.89-2.76,1.67-4.05,2.34-1.2-.69-2.48-1.45-3.91-2.34-.37-.24-.86-.24-1.25,0C12.18,6.22,7.95,8.13.9,9.98c-.52.14-.88.59-.89,1.13-.05,6.98.25,15.02,2.92,21.78,2.87,7.25,8.06,12.27,15.9,15.36.39.17,1.35.51,1.8.41.47-.08.93-.22,1.38-.41,1.01-.39,2.02-.84,3-1.35.96.49,1.97.94,3,1.35.27.12,1.11.42,1.62.42.08,0,.14,0,.2-.02.46-.08.93-.22,1.37-.41,7.82-3.09,13.03-8.23,15.9-15.75,2.68-6.98,2.97-15.11,2.9-22.14ZM30.33,46.08c-.25.08-.49.17-.73.22-.27-.07-.51-.13-.73-.24-.49-.19-.94-.37-1.37-.57,4.82-3.05,8.23-7.18,10.37-12.59,2.68-6.76,2.97-14.8,2.92-21.78,0-.52-.37-1-.88-1.13-5.02-1.31-8.5-2.63-12.54-4.79.74-.42,1.48-.86,2.23-1.31,7.15,4.38,11.58,5.7,18.04,7.4.05,13.57-1.33,28.47-17.31,34.78v.02ZM21.13,46.08c-.24.08-.49.17-.73.22-.24-.05-.47-.13-.73-.24C3.68,39.75,2.3,25.81,2.36,12.02c6.61-1.8,10.91-3.74,18.04-8.14,7.15,4.4,11.45,6.36,18.06,8.14.05,13.79-1.33,27.73-17.31,34.04l-.02.02Z"/>
</svg>