<?xml version="1.0" encoding="UTF-8"?>
<svg id="Iconos" xmlns="http://www.w3.org/2000/svg" viewBox="0 0 50 50">
  <defs>
    <style>
      .cls-1 {
        fill: #263a4e;
      }
    </style>
  </defs>
  <path class="cls-1" d="M29.1,37.58c.43.3,1.02.21,1.34-.22.31-.42.21-1.02-.22-1.34l-4.74-3.46v-4.55c0-.88-.71-1.59-1.59-1.59h-2.54c-.88,0-1.6.71-1.6,1.59v.39l-3-2.18c-.62-.45-1.54-.45-2.15,0L1.1,36.02c-.43.31-.52.92-.21,1.34.18.25.49.4.77.4.19,0,.39-.07.56-.18l1.5-1.1v11.62h-1.4c-.52,0-.95.42-.95.95s.43.95.95.95h26.66c.52,0,.95-.43.95-.95s-.43-.95-.95-.95h-1.4v-11.62l1.5,1.1ZM21.67,28.33h1.9v2.85l-1.9-1.38v-1.47ZM17.78,48.1h-4.23v-8.64h4.23v8.64ZM25.69,48.1h-6.02v-9.12c0-.79-.64-1.43-1.44-1.43h-5.17c-.79,0-1.44.64-1.44,1.43v9.12h-5.99v-12.86c0-.06.07-.21.1-.24l9.92-7.2,9.89,7.2s.12.18.13.24v12.86Z"/>
  <path class="cls-1" d="M47.78,11.7c.43.3,1.02.21,1.34-.22.31-.42.21-1.02-.22-1.34l-4.74-3.46V2.13c0-.88-.71-1.59-1.59-1.59h-2.54c-.88,0-1.6.71-1.6,1.59v.39l-3-2.18c-.62-.45-1.54-.45-2.15,0l-13.49,9.8c-.43.31-.52.92-.21,1.34.18.25.49.4.77.4.19,0,.39-.07.56-.18l1.5-1.1v11.62h-1.4c-.52,0-.95.42-.95.95s.43.95.95.95h26.66c.52,0,.95-.43.95-.95s-.43-.95-.95-.95h-1.4v-11.62l1.5,1.1ZM40.35,2.44h1.9v2.85l-1.9-1.38v-1.47ZM36.46,22.21h-4.23v-8.64h4.23v8.64ZM44.38,22.21h-6.02v-9.12c0-.79-.64-1.43-1.44-1.43h-5.17c-.79,0-1.44.64-1.44,1.43v9.12h-5.99v-12.86c0-.06.07-.21.1-.24l9.92-7.2,9.89,7.2s.12.18.13.24v12.86Z"/>
</svg>