<?xml version="1.0" encoding="UTF-8"?>
<svg id="Iconos" xmlns="http://www.w3.org/2000/svg" viewBox="0 0 50 50">
  <defs>
    <style>
      .cls-1 {
        fill: #263a4e;
      }
    </style>
  </defs>
  <path class="cls-1" d="M45.01,31.43l-2.84-3.63c-.71-.91-1.94-1.57-2.93-1.57H10.76c-.99,0-2.22.66-2.93,1.57l-2.84,3.63c-.57.73-.71,1.53-.39,2.19.29.59.9.95,1.63.95h3.02v12.23c0,1.77,1.44,3.2,3.21,3.2h25.07c1.77,0,3.21-1.44,3.21-3.2v-12.23h3.02c.73,0,1.34-.35,1.63-.95.32-.66.18-1.46-.39-2.19ZM7.77,32.02l2.07-2.65c.27-.35.8-.59.92-.59h11.63l-2.07,2.65c-.28.35-.8.58-.92.59H7.77ZM23.72,47.45h-11.26c-.36,0-.65-.3-.65-.65v-12.23h7.59c.99,0,2.22-.66,2.93-1.57l1.4-1.79v16.24ZM38.19,46.8c0,.36-.29.65-.65.65h-11.26v-16.24l1.4,1.79c.71.91,1.94,1.57,2.93,1.57h7.59v12.23ZM30.6,32.02c-.12,0-.64-.24-.92-.59l-2.07-2.65h11.63c.12,0,.64.24.92.59l2.07,2.65h-11.63Z"/>
  <path class="cls-1" d="M17.62,14.67l-.73,5.17c-.13.86.22,1.72.92,2.23.4.3.89.46,1.39.46.34,0,.69-.08,1-.23l4.87-2.31,4.64,2.27c.77.4,1.69.35,2.41-.15.73-.5,1.11-1.35.99-2.22l-.7-5.34,3.64-3.77c.6-.62.81-1.51.55-2.34-.26-.82-.95-1.43-1.8-1.59l-5.29-.99-2.45-4.62c-.4-.77-1.18-1.24-2.05-1.25h0c-.86,0-1.65.47-2.06,1.22l-2.57,4.73-5.17.9c-.85.15-1.54.75-1.82,1.57-.27.82-.07,1.72.52,2.34l3.7,3.91ZM21.42,8.35c.38-.06.72-.31.9-.65l2.68-4.91,2.56,4.82c.18.34.51.58.89.66l5.5,1.03-3.8,3.92c-.27.28-.4.67-.35,1.05l.73,5.55-4.9-2.4c-.35-.18-.76-.17-1.11,0l-5.06,2.41.77-5.41c.05-.38-.07-.78-.34-1.05l-3.85-4.07,5.38-.94Z"/>
</svg>