<?xml version="1.0" encoding="UTF-8"?>
<svg id="Iconos" xmlns="http://www.w3.org/2000/svg" viewBox="0 0 50 50">
  <defs>
    <style>
      .cls-1 {
        fill: #263a4e;
      }
    </style>
  </defs>
  <path class="cls-1" d="M3.26,17.87c.41.14.85.12,1.25-.08.39-.19.68-.52.82-.93,2-5.92,6.76-10.63,12.69-12.58,8.42-2.8,17.83.34,22.88,7.61l.37.54-3.04-.79c-.89-.23-1.78.3-2,1.17-.11.42-.04.86.18,1.24.23.37.58.64,1.01.75l6.89,1.79c.42.11.86.05,1.24-.17.38-.22.64-.57.76-1l1.73-6.7c.11-.42.05-.86-.17-1.24s-.57-.64-1-.75c-.87-.23-1.76.3-1.99,1.17l-.76,2.92-.3-.45C39.39,3.78,32,0,24.33,0c-2.45,0-4.93.38-7.34,1.19-3.47,1.14-6.65,3.11-9.22,5.71-2.47,2.5-4.39,5.58-5.53,8.9-.14.41-.12.85.08,1.25.19.39.53.69.94.82Z"/>
  <path class="cls-1" d="M22.48,43.42c-5.93-.57-11.26-3.67-14.64-8.54l-.36-.53,3.03.79c.87.23,1.77-.29,2.01-1.15.11-.41.06-.86-.16-1.24-.21-.37-.55-.64-.95-.76l-.08-.02-6.89-1.79c-.87-.22-1.76.31-1.99,1.17l-1.73,6.7c-.12.44-.04.92.21,1.3.25.39.65.65,1.12.72.82.13,1.63-.44,1.86-1.3l.73-2.82.3.44c3.93,5.87,10.22,9.62,17.27,10.28.46.05.9-.11,1.25-.41.34-.32.54-.76.54-1.23,0-.84-.64-1.54-1.49-1.62Z"/>
  <g>
    <path class="cls-1" d="M47.31,34.9l-.78-.12c-.1-.29-.22-.57-.34-.84l.52-.61c.8-.94.74-2.35-.13-3.23l-1.23-1.23c-.83-.83-2.16-.93-3.1-.23l-.78.58c-.22-.1-.44-.19-.67-.28l-.08-.98c-.1-1.23-1.14-2.19-2.37-2.19h-1.75c-1.17,0-2.18.87-2.35,2.03l-.16,1.09c-.19.07-.38.14-.57.22l-.83-.71c-.94-.8-2.35-.74-3.23.13l-1.23,1.23c-.84.84-.94,2.14-.23,3.1l.65.88c-.09.19-.18.38-.26.57l-1.07.09c-1.23.1-2.19,1.14-2.19,2.37v1.75c0,1.19.85,2.18,2.03,2.36l.94.14c.08.24.16.48.26.72l-.6.71c-.8.94-.74,2.35.13,3.23l1.23,1.23c.83.83,2.16.93,3.1.23l.61-.45c.28.15.57.28.86.4l.06.73c.1,1.23,1.14,2.19,2.37,2.19h1.75c1.19,0,2.18-.85,2.36-2.03l.09-.63c.34-.11.68-.23,1-.37l.47.4c.94.8,2.35.74,3.23-.13l1.23-1.23c.84-.84.94-2.14.23-3.1l-.38-.52c.15-.31.29-.63.41-.96l.65-.05c1.23-.1,2.19-1.14,2.19-2.37v-1.75c0-1.17-.87-2.18-2.03-2.36ZM47.06,39s-.04.1-.09.1l-1.41.12c-.47.04-.88.37-1.01.83-.18.64-.44,1.26-.79,1.84-.24.4-.22.89.06,1.27l.82,1.1s.03.09,0,.13l-1.24,1.24s-.1.03-.13,0l-1.04-.88c-.36-.31-.86-.36-1.28-.13-.58.32-1.22.56-1.89.71-.46.11-.81.48-.87.94l-.2,1.36c0,.05-.05.08-.1.08h-1.75c-.05,0-.1-.04-.1-.09l-.12-1.46c-.04-.46-.35-.85-.79-.99-.6-.19-1.19-.47-1.74-.82-.18-.12-.39-.18-.61-.18-.24,0-.49.08-.68.22l-1.22.9s-.1.02-.13-.01l-1.23-1.23s-.04-.1,0-.14l1.07-1.26c.3-.35.36-.84.15-1.25-.27-.53-.47-1.09-.6-1.67-.11-.46-.48-.8-.94-.87l-1.67-.25c-.05,0-.09-.05-.09-.1v-1.75c0-.05.04-.1.09-.1l1.79-.15c.46-.04.85-.34.99-.78.17-.51.4-1.02.69-1.5.24-.4.21-.89-.06-1.26l-1.08-1.46s-.03-.09,0-.13l1.23-1.23s.1-.04.14,0l1.4,1.18c.36.3.86.36,1.27.14.47-.25.98-.45,1.53-.6.44-.12.76-.48.83-.93l.27-1.79s.05-.09.1-.09h1.75s.1.04.1.09l.14,1.73c.04.47.37.87.82,1,.57.16,1.11.39,1.61.67.39.22.88.19,1.23-.08l1.35-1s.1-.02.13.01l1.23,1.23s.04.1,0,.14l-1.01,1.2c-.31.36-.36.89-.12,1.3.31.54.55,1.13.72,1.75.12.44.48.76.93.83l1.48.22s.09.05.09.1v1.75Z"/>
    <path class="cls-1" d="M37.23,32.29c-3.09,0-5.6,2.51-5.6,5.6s2.51,5.6,5.6,5.6,5.6-2.51,5.6-5.6-2.51-5.6-5.6-5.6ZM37.23,41.21c-1.83,0-3.32-1.49-3.32-3.32s1.49-3.32,3.32-3.32,3.32,1.49,3.32,3.32-1.49,3.32-3.32,3.32Z"/>
  </g>
  <g>
    <path class="cls-1" d="M31.56,17.48h-9.76l-.39-9.75c-.01-.3-.14-.59-.37-.79-.23-.21-.51-.32-.82-.3-6.62.26-11.77,5.79-11.5,12.48.24,6.2,5.4,11.3,11.6,11.5,6.79.21,12.38-5.24,12.38-11.99,0-.63-.51-1.15-1.14-1.15ZM25.71,26.89c-.78.47-1.64.83-2.52,1.07-1.59.43-3.29.46-4.89.05-2.85-.72-5.32-2.82-6.49-5.52s-1.02-5.93.4-8.51c1.42-2.58,4.07-4.43,6.98-4.89.11,2.85.22,5.7.33,8.55.02.5.04,1.01.26,1.48.18.37.48.67.78.97,1.59,1.59,3.19,3.17,4.78,4.76.2.2.4.4.6.59.19.19.45.38.59.59.24.34-.58.72-.82.86ZM28.29,24.59l-4.83-4.83h6.79c-.21,1.77-.88,3.43-1.96,4.83Z"/>
    <path class="cls-1" d="M33.59,15.24c-.06-2.12-1.2-4.46-3.12-6.41-1.96-1.98-4.36-3.24-6.78-3.54-.3-.04-.6.04-.84.23-.24.19-.4.46-.44.8l.21,9.23c0,.3.13.59.36.8.22.21.51.32.82.31h0l8.68-.24c.63-.02,1.13-.54,1.11-1.17ZM24.88,14.34l-.15-6.4c1.53.46,2.98,1.34,4.12,2.49,1.07,1.09,1.86,2.43,2.19,3.73l-6.15.17Z"/>
  </g>
</svg>