<?xml version="1.0" encoding="UTF-8"?>
<svg id="Iconos" xmlns="http://www.w3.org/2000/svg" viewBox="0 0 50 50">
  <defs>
    <style>
      .cls-1 {
        fill: #263a4e;
      }
    </style>
  </defs>
  <path class="cls-1" d="M34.12,8.99V2.78H4.28v44.45h29.85v-6.22c0-.76.61-1.38,1.38-1.38s1.38.63,1.38,1.38v7.61c0,.76-.61,1.38-1.38,1.38H2.88c-.76,0-1.38-.62-1.38-1.38V1.38c0-.76.63-1.38,1.38-1.38h32.62c.77,0,1.38.63,1.38,1.38v7.6c0,.77-.61,1.39-1.38,1.39s-1.38-.62-1.38-1.39Z"/>
  <path class="cls-1" d="M48.5,24.98c-.01.42-.13.73-.4,1l-5.38,5.37c-.52.53-1.44.53-1.97,0-.26-.26-.4-.6-.4-.97s.14-.72.4-.98l3.01-3.01h-18.06c-.76,0-1.38-.61-1.38-1.38s.62-1.38,1.38-1.38h18.06l-3.01-3.01c-.53-.54-.53-1.42,0-1.97.52-.52,1.44-.52,1.97,0l5.38,5.38c.25.26.4.62.4.96Z"/>
</svg>