<?xml version="1.0" encoding="UTF-8"?>
<svg id="Iconos" xmlns="http://www.w3.org/2000/svg" viewBox="0 0 50 50">
  <defs>
    <style>
      .cls-1 {
        fill: #263a4e;
      }
    </style>
  </defs>
  <path class="cls-1" d="M43.93.63c-1.5.63-3.09,1.67-4.62,3.03-.27-.25-.57-.38-.98-.38l-14.29.3c-.35,0-.69.15-.94.4L.4,26.68C.14,26.94,0,27.28,0,27.65s.15.72.4.97l20.98,20.98c.26.26.61.4.97.4s.71-.14.97-.4l22.7-22.7c.25-.25.39-.59.4-.94l.3-14.29c0-.36-.13-.72-.38-.98,1.36-1.53,2.4-3.12,3.03-4.62.93-2.22.82-4.05-.28-5.15-1.11-1.11-2.94-1.21-5.16-.28ZM41.26,5.6c1.27-1.1,2.55-1.95,3.74-2.44,1.31-.55,2.02-.45,2.15-.31.13.14.24.84-.31,2.15h0c-.49,1.19-1.33,2.47-2.44,3.73l-3.14-3.14ZM36.55,12.28c.24.13.47.3.67.5s.37.43.51.67c-.74.17-1.09.05-1.16-.02h0c-.1-.1-.17-.49-.02-1.16ZM37.22,17.04c-1.14,1.14-3.12,1.14-4.26,0-.57-.57-.88-1.33-.88-2.13s.31-1.56.88-2.13c.24-.24.51-.43.81-.58-.19,1.33.1,2.42.85,3.17.75.75,1.82,1.05,3.17.85-.14.3-.34.57-.58.81ZM34.85,9.16c-1.45.06-2.8.65-3.83,1.68-1.09,1.09-1.69,2.54-1.69,4.07s.6,2.99,1.69,4.07c1.09,1.09,2.54,1.69,4.07,1.69s2.99-.6,4.07-1.69c1.09-1.09,1.69-2.53,1.69-4.07,0-.26-.02-.51-.05-.77-.17-1.26-.73-2.4-1.64-3.3-.44-.44-.94-.8-1.49-1.08.45-.73,1.01-1.49,1.65-2.22l4.65,4.65-.28,13.15-21.34,21.34L3.32,27.65,24.66,6.31l12.32-.26c-.86,1.02-1.58,2.08-2.13,3.11Z"/>
  <path class="cls-1" d="M19.88,22.04c-.88,1.26-1.12,2.82-.65,4.29.18.57.46,1.13.84,1.66l-3.2,3.2c-.04-.19-.06-.39-.06-.59,0-.78.3-1.52.86-2.08.26-.26.4-.6.4-.97s-.14-.71-.4-.97c-.54-.54-1.41-.54-1.94,0-1.07,1.07-1.66,2.5-1.66,4.02,0,.95.24,1.88.69,2.71l-.73.73c-.26.26-.4.61-.4.97s.14.71.4.97c.26.26.6.4.97.4s.71-.14.97-.4l.65-.65c1,.66,2.21,1,3.41.94,1.61-.08,3.05-.87,3.96-2.17.88-1.26,1.12-2.82.65-4.29-.18-.57-.46-1.13-.84-1.66l3.2-3.2c.04.19.06.39.06.59,0,.78-.3,1.52-.86,2.08-.26.26-.4.6-.4.97s.14.71.4.97c.52.52,1.42.52,1.94,0,1.07-1.07,1.66-2.5,1.66-4.02,0-.95-.24-1.88-.68-2.71l.73-.73c.26-.26.4-.6.4-.97s-.14-.71-.4-.97c-.54-.54-1.41-.53-1.94,0l-.65.65c-1.01-.67-2.2-1-3.41-.94-1.61.08-3.05.87-3.96,2.17ZM21.8,30.14c.09.17.16.33.21.5.2.64.1,1.33-.29,1.89-.42.6-1.09.96-1.84,1-.43.02-.86-.05-1.26-.22l3.17-3.17ZM24.11,22.6c.38,0,.77.08,1.12.22l-3.17,3.17c-.09-.17-.16-.34-.21-.5-.2-.64-.1-1.33.29-1.89.42-.6,1.09-.96,1.84-1,.04,0,.09,0,.14,0Z"/>
</svg>