<?xml version="1.0" encoding="UTF-8"?>
<svg id="Iconos" xmlns="http://www.w3.org/2000/svg" viewBox="0 0 50 50">
  <defs>
    <style>
      .cls-1 {
        fill: #263a4e;
      }
    </style>
  </defs>
  <path class="cls-1" d="M32.47,32.46c-.54.51-1.33.63-1.97.37-.21-.07-.4-.19-.58-.35l-6.19-6.19c-.33-.33-.51-.79-.51-1.28v-12.39c0-.96.79-1.77,1.77-1.77s1.79.81,1.79,1.77v11.67l5.68,5.65c.68.7.68,1.82,0,2.53Z"/>
  <path class="cls-1" d="M25,0C11.23,0,0,11.23,0,25s11.23,25,25,25,25-11.21,25-25S38.79,0,25,0ZM25,46.05c-11.6,0-21.05-9.44-21.05-21.05S13.4,3.95,25,3.95s21.05,9.46,21.05,21.05-9.44,21.05-21.05,21.05Z"/>
  <path class="cls-1" d="M32.47,32.46c-.54.51-1.33.63-1.97.37-.21-.07-.4-.19-.58-.35l-6.19-6.19c-.33-.33-.51-.79-.51-1.28v-12.39c0-.96.79-1.77,1.77-1.77s1.79.81,1.79,1.77v11.67l5.68,5.65c.68.7.68,1.82,0,2.53Z"/>
  <path class="cls-1" d="M32.47,32.46c-.54.51-1.33.63-1.97.37-.21-.07-.4-.19-.58-.35l-6.19-6.19c-.33-.33-.51-.79-.51-1.28v-12.39c0-.96.79-1.77,1.77-1.77s1.79.81,1.79,1.77v11.67l5.68,5.65c.68.7.68,1.82,0,2.53Z"/>
</svg>