<?xml version="1.0" encoding="UTF-8"?>
<svg id="Iconos" xmlns="http://www.w3.org/2000/svg" viewBox="0 0 50 50">
  <defs>
    <style>
      .cls-1 {
        fill: #263a4e;
      }
    </style>
  </defs>
  <path class="cls-1" d="M45.57,33.97c-1.13-.7-2.57-.78-3.76-.19l-7.88,3.82v-.16c0-2.16-1.63-3.78-3.8-3.78h-7.86c-1.5,0-3.09-.26-4.73-.76l-5.01-1.59v-1.94c0-.77-.53-1.32-1.26-1.32h-7.17c-.79,0-1.46.6-1.46,1.32v19.01c0,.73.7,1.4,1.46,1.4h7.17c.72,0,1.26-.6,1.26-1.4v-1.57l.59.46c2.21,1.78,4.99,2.76,7.82,2.76h6.91c2.49,0,4.91-.75,6.99-2.18l10.86-7.42c1.05-.72,1.67-1.9,1.67-3.17,0-1.34-.67-2.55-1.8-3.26ZM12.52,34.15l4.2,1.34c1.9.59,3.76.89,5.53.89h7.86c.65,0,1.08.42,1.08,1.06v1.32c-1.14.3-4.53,1.06-8,.5-.36-.06-.71.03-1,.24-.29.21-.48.53-.53.89-.12.74.39,1.44,1.14,1.56.97.16,2.01.24,3.08.24,3.92,0,7.08-1.07,7.21-1.12.05-.02.1-.04.16-.06l9.79-4.78c.35-.17.75-.15,1.08.06.33.21.52.55.52.94,0,.37-.18.71-.49.92l-10.86,7.43c-1.63,1.12-3.52,1.7-5.46,1.7h-6.91c-2.18,0-4.41-.79-6.12-2.16l-2.29-1.82v-9.15ZM9.8,30.75v16.29h-4.45v-16.29h4.45Z"/>
  <path class="cls-1" d="M20.07,21.37c3.22,0,5.84-2.62,5.84-5.84s-2.62-5.84-5.84-5.84-5.84,2.62-5.84,5.84,2.62,5.84,5.84,5.84ZM20.07,12.4c1.72,0,3.12,1.4,3.12,3.12s-1.4,3.12-3.12,3.12-3.12-1.4-3.12-3.12,1.4-3.12,3.12-3.12Z"/>
  <path class="cls-1" d="M29.75,11.69c3.22,0,5.84-2.62,5.84-5.84S32.97,0,29.75,0s-5.84,2.62-5.84,5.84,2.62,5.84,5.84,5.84ZM26.63,5.84c0-1.72,1.4-3.12,3.12-3.12s3.12,1.4,3.12,3.12-1.4,3.12-3.12,3.12-3.12-1.4-3.12-3.12Z"/>
  <path class="cls-1" d="M29.87,19.49c-3.22,0-5.84,2.62-5.84,5.84s2.62,5.84,5.84,5.84,5.84-2.62,5.84-5.84-2.62-5.84-5.84-5.84ZM32.99,25.33c0,1.72-1.4,3.12-3.12,3.12s-3.12-1.4-3.12-3.12,1.4-3.12,3.12-3.12,3.12,1.4,3.12,3.12Z"/>
</svg>