<?xml version="1.0" encoding="UTF-8"?>
<svg id="Iconos" xmlns="http://www.w3.org/2000/svg" viewBox="0 0 50.5 45.91">
  <defs>
    <style>
      .cls-1 {
        fill: #263a4e;
      }
    </style>
  </defs>
  <path class="cls-1" d="M5.86,13.68l4.39-.74c.28-.05.53-.21.69-.44.16-.23.23-.52.18-.8l-.76-4.25c-.1-.57-.65-.95-1.22-.86l-4.38.74c-.28.05-.53.2-.69.44-.16.23-.23.52-.18.8l.76,4.25c.09.51.53.87,1.04.87.06,0,.12,0,.18-.01ZM8.45,8.87l.39,2.16-2.29.39-.39-2.16,2.29-.39Z"/>
  <path class="cls-1" d="M46.56,7.66c-.16-.23-.41-.39-.69-.44l-4.58-.79c-.58-.1-1.13.29-1.23.86l-.8,4.54c-.05.28.01.56.18.79.16.23.41.39.69.44l4.58.79c.06.01.12.02.18.02.52,0,.96-.37,1.04-.88l.8-4.54c.05-.28-.01-.56-.18-.79ZM44.03,11.58l-2.49-.43.43-2.45,2.49.43-.43,2.45Z"/>
  <path class="cls-1" d="M25.52,14.48c.58,0,1.06-.48,1.06-1.06V4.53c0-.58-.48-1.06-1.06-1.06h-8.96c-.58,0-1.06.48-1.06,1.06v8.89c0,.58.48,1.06,1.06,1.06h8.96ZM17.62,5.6h6.84v6.76h-6.84v-6.76Z"/>
  <rect class="cls-1" x="29.17" y="5.15" width="6.46" height="2.12"/>
  <rect class="cls-1" x="29.17" y="9.52" width="6.46" height="2.12"/>
  <rect class="cls-1" x="15.93" y="16.96" width="10.36" height="2.12"/>
  <path class="cls-1" d="M48.06,17.38l2.43-13.82c.05-.29-.02-.59-.2-.83-.18-.24-.45-.39-.75-.41l-10.56-.94v-.32c0-.58-.48-1.06-1.06-1.06H13.1c-.58,0-1.06.48-1.06,1.06v.56L.94,2.84c-.29.03-.56.18-.73.42-.18.23-.25.53-.19.82l3.19,17.81c-.28.08-.53.22-.72.43-.3.31-.45.74-.42,1.18l1.49,20.93c.05.83.74,1.48,1.57,1.48h40.77c.84,0,1.53-.65,1.57-1.48l1.5-25.56c.02-.43-.14-.85-.43-1.16-.13-.13-.28-.24-.47-.32ZM38.98,16.7l3,.52h-3v-.52ZM14.16,2.12h22.7v15.09h-5.62c-.8,0-1.56.3-2.14.85l-4.01,3.76h-10.93V2.12ZM2.31,4.82l9.73-1.07v10.7l-5.76.99.36,2.09,5.4-.93v5.21h-6.69L2.31,4.82ZM45.37,43.79H5.63l-1.41-19.85h21.71l4.62-4.33c.19-.17.43-.27.69-.27h15.57l-1.43,24.45ZM45.93,17.22h-2.02l.3-1.77-5.24-.91V3.51l9.22.82-2.26,12.88Z"/>
  <path class="cls-1" d="M16.6,29.45c-.26.28-.4.67-.37,1.08l.41,6.11c.05.73.6,1.28,1.28,1.28h14.67c.68,0,1.23-.55,1.28-1.28l.41-6.12c.03-.4-.11-.8-.37-1.08-.24-.26-.56-.4-.91-.4h-15.48c-.35,0-.67.14-.91.4ZM32.1,31.17l-.31,4.63h-13.09l-.31-4.63h13.7Z"/>
  <rect class="cls-1" x="20.17" y="32.42" width="10.17" height="2.12"/>
</svg>