<?xml version="1.0" encoding="UTF-8"?>
<svg id="Iconos" xmlns="http://www.w3.org/2000/svg" viewBox="0 0 50 50">
  <defs>
    <style>
      .cls-1 {
        fill: #263a4e;
      }
    </style>
  </defs>
  <path class="cls-1" d="M46.44,27.64c.18-.31.28-.67.28-1.03v-6.52c0-1.14-.92-2.05-2.06-2.05h-2.98c-.39-1.35-.93-2.65-1.6-3.87l2.11-2.11c.8-.8.8-2.11,0-2.91l-4.61-4.62c-.79-.79-2.12-.79-2.91,0l-2.1,2.11c-1.23-.68-2.53-1.21-3.87-1.6v-2.98c0-1.14-.92-2.06-2.06-2.06h-6.52c-1.14,0-2.06.92-2.06,2.06v2.98c-1.34.39-2.64.93-3.87,1.6l-2.11-2.11c-.75-.75-2.16-.76-2.91,0l-4.61,4.61c-.39.39-.61.91-.61,1.46s.22,1.07.6,1.46l2.11,2.11c-.68,1.23-1.22,2.53-1.6,3.87h-2.98C.94,18.04.02,18.95.02,20.09v6.52c0,1.14.92,2.05,2.06,2.05h2.98c.39,1.34.93,2.64,1.6,3.87l-2.11,2.11c-.39.39-.6.9-.6,1.45s.21,1.07.6,1.46l4.61,4.62c.78.77,2.14.78,2.91,0l2.11-2.11c1.23.68,2.53,1.21,3.87,1.6v2.98c0,1.14.92,2.06,2.06,2.06h6.52c.36,0,.72-.1,1.03-.28,2.47,2.31,5.68,3.58,9.08,3.58s6.89-1.38,9.39-3.88c.04-.03.07-.08.11-.12l.07-.07c4.87-5.04,4.91-13.19.14-18.29ZM20.98,43.78v-2.78c0-.94-.64-1.76-1.56-1.99-1.52-.38-2.98-.99-4.34-1.8-.33-.19-.68-.28-1.04-.28-.53,0-1.06.21-1.45.6l-1.96,1.96-3.39-3.39,1.96-1.97c.66-.66.78-1.69.31-2.5-.81-1.34-1.41-2.8-1.79-4.33-.23-.91-1.05-1.54-1.99-1.54h-2.78v-4.8h2.78c.93,0,1.75-.64,1.99-1.56.38-1.52.99-2.98,1.8-4.34.47-.81.34-1.83-.32-2.49l-1.96-1.97,3.39-3.39,1.96,1.97c.65.66,1.69.78,2.51.31,1.34-.81,2.8-1.41,4.33-1.8.91-.23,1.55-1.05,1.55-1.99v-2.78h4.79v2.78c0,.94.64,1.76,1.56,1.99,1.51.38,2.97.99,4.34,1.8.81.47,1.83.34,2.49-.32l1.96-1.96,3.39,3.39-1.96,1.97c-.66.66-.79,1.69-.31,2.51.81,1.35,1.41,2.81,1.79,4.33.23.91,1.05,1.54,1.99,1.54h2.78v4.53c-2.1-1.32-4.58-2.03-7.08-2.03h-.07c.04-3.59-1.33-6.95-3.88-9.5-2.5-2.5-5.84-3.88-9.4-3.89-3.55,0-6.89,1.38-9.4,3.89-5.18,5.18-5.18,13.61,0,18.79,2.58,2.58,5.94,4,9.5,3.9-.01,2.51.7,5.01,2.02,7.12h-4.52ZM33.72,23.78c-2.41.56-4.61,1.78-6.37,3.54-1.76,1.76-2.98,3.96-3.54,6.37-2.93.15-5.71-.96-7.77-3.01-4.04-4.04-4.04-10.62,0-14.66,1.96-1.95,4.56-3.03,7.33-3.03s5.38,1.08,7.33,3.03c2.05,2.05,3.14,4.86,3.01,7.77ZM29.81,44.42c.49-2.76,2.93-4.83,5.75-4.83h2.35c2.82,0,5.26,2.06,5.75,4.83-3.92,3.53-9.94,3.53-13.85,0ZM34.13,34.06c0-1.44,1.17-2.62,2.61-2.62s2.61,1.17,2.61,2.62-1.17,2.61-2.61,2.61-2.61-1.17-2.61-2.61ZM45.83,41.68c-.94-1.96-2.61-3.54-4.62-4.36.7-.95,1.07-2.07,1.07-3.26,0-3.05-2.48-5.54-5.54-5.54s-5.54,2.48-5.54,5.54c0,1.2.37,2.31,1.07,3.26-2.01.82-3.68,2.41-4.62,4.36-2.22-4.03-1.53-9,1.76-12.29,1.95-1.95,4.56-3.03,7.33-3.03s5.37,1.08,7.33,3.03c3.29,3.29,3.97,8.26,1.76,12.29Z"/>
</svg>