<?xml version="1.0" encoding="UTF-8"?>
<svg id="Iconos" xmlns="http://www.w3.org/2000/svg" viewBox="0 0 50 50">
  <defs>
    <style>
      .cls-1 {
        fill: #263a4e;
      }
    </style>
  </defs>
  <path class="cls-1" d="M25,32.91c-.44,0-.79-.35-.79-.79,0-.64-.52-1.15-1.15-1.15s-1.15.52-1.15,1.15c0,1.28.78,2.41,1.94,2.87v.36c0,.64.52,1.15,1.15,1.15s1.15-.52,1.15-1.15v-.36c1.16-.47,1.94-1.6,1.94-2.87,0-1.71-1.39-3.1-3.1-3.1-.44,0-.79-.35-.79-.79s.35-.79.79-.79.79.35.79.79c0,.64.52,1.15,1.15,1.15s1.15-.52,1.15-1.15c0-1.28-.78-2.41-1.94-2.88v-.36c0-.64-.52-1.15-1.15-1.15s-1.15.52-1.15,1.15v.36c-1.16.47-1.94,1.6-1.94,2.88,0,1.71,1.39,3.1,3.1,3.1.43,0,.79.35.79.79s-.35.79-.79.79Z"/>
  <path class="cls-1" d="M25,39.11c4.92,0,8.93-4,8.93-8.93s-4-8.93-8.93-8.93-8.93,4.01-8.93,8.93,4,8.93,8.93,8.93ZM18.38,30.18c0-3.65,2.97-6.62,6.62-6.62s6.62,2.97,6.62,6.62-2.97,6.62-6.62,6.62-6.62-2.97-6.62-6.62Z"/>
  <path class="cls-1" d="M50,40.9v-21.43c0-1.26-.9-2.56-2.44-2.77l-.44-3.5c-.09-.75-.48-1.42-1.07-1.88-.6-.46-1.34-.66-2.1-.55l-.66.09-.61-2.43c-.18-.74-.65-1.35-1.3-1.74-.66-.38-1.42-.49-2.16-.29L2.66,16.67c-1.49.07-2.66,1.3-2.66,2.8v21.43c0,1.55,1.26,2.8,2.8,2.8h44.39c1.55,0,2.8-1.26,2.8-2.8ZM21.77,13.94l18.13-5.08c.09-.03.16,0,.2.03.03.02.1.07.12.16l.54,2.18-18.99,2.72ZM44.5,13.33s.09.08.1.17l.39,3.15h-24.31l23.62-3.38c.1-.01.16.03.19.05ZM47.46,19.47v21.43c0,.14-.12.26-.26.26H2.8c-.14,0-.26-.12-.26-.26v-21.43c0-.15.13-.25.27-.26h44.38c.14,0,.26.12.26.26Z"/>
</svg>