<?xml version="1.0" encoding="UTF-8"?>
<svg id="Iconos" xmlns="http://www.w3.org/2000/svg" viewBox="0 0 50 50">
  <defs>
    <style>
      .cls-1 {
        fill: #263a4e;
      }
    </style>
  </defs>
  <path class="cls-1" d="M49.87,42.85c-1.17-5.63-4.28-10.76-8.75-14.44-.37-.3-.76-.58-1.15-.86-.05-.05-.08-.11-.14-.16-.18-.13-.38-.25-.57-.38-.02-.02-.05-.03-.08-.05-1.94-1.31-4.02-2.35-6.22-3.07,3.23-2.43,5.33-6.29,5.33-10.63C38.3,5.95,32.34-.01,25.01-.01c0,0,0,0-.01,0s0,0-.01,0C17.66-.01,11.7,5.95,11.7,13.28c0,4.34,2.09,8.21,5.33,10.63-2.19.72-4.27,1.76-6.22,3.07-.02.02-.05.03-.07.05-.19.13-.38.24-.57.38-.06.04-.09.11-.14.16-.39.28-.78.55-1.15.86-4.47,3.68-7.57,8.8-8.75,14.44-.37,1.77.07,3.58,1.21,4.97,1.13,1.39,2.8,2.18,4.6,2.18h38.14c1.79,0,3.47-.8,4.6-2.18,1.14-1.4,1.58-3.21,1.21-4.97ZM24.99,22.64c-.15,0-.3,0-.45,0-4.95-.25-8.9-4.35-8.9-9.37S19.83,3.9,25,3.9c5.17,0,9.37,4.21,9.37,9.38s-3.95,9.12-8.9,9.37c-.15,0-.3,0-.45,0h-.02ZM45.63,45.36c-.23.28-.73.74-1.56.74H5.93c-.83,0-1.34-.47-1.56-.74-.39-.48-.54-1.1-.41-1.71,1.9-9.12,9.56-15.95,18.68-16.97,0,0,.02,0,.03,0,.61-.07,1.22-.11,1.83-.12.17,0,.33,0,.5,0h.02c.17,0,.33,0,.5,0,.62.01,1.23.06,1.83.12,0,0,.02,0,.03,0,9.12,1.02,16.78,7.84,18.68,16.97.13.61-.02,1.23-.41,1.71Z"/>
</svg>