<?xml version="1.0" encoding="UTF-8"?>
<svg id="Iconos" xmlns="http://www.w3.org/2000/svg" viewBox="0 0 50 50">
  <defs>
    <style>
      .cls-1 {
        fill: #263a4e;
      }
    </style>
  </defs>
  <path class="cls-1" d="M46.32,33.19c-.88-.88-1.91-1.56-3.02-2.04V9.36c0-3.69-3-6.69-6.69-6.69h-4.97v-.91c0-.97-.79-1.76-1.76-1.76s-1.76.79-1.76,1.76v.91h-12.13v-.91c0-.97-.79-1.76-1.76-1.76s-1.76.79-1.76,1.76v.91h-4.97C3.8,2.67.8,5.67.8,9.36v29.15c0,3.69,3,6.69,6.69,6.69h23.46c1.72,2.86,4.83,4.8,8.41,4.8h0c5.42,0,9.84-4.43,9.84-9.85,0-2.63-1.03-5.1-2.89-6.96ZM4.32,9.36c0-1.74,1.42-3.16,3.16-3.16h4.97v.93c0,.97.79,1.76,1.76,1.76s1.76-.79,1.76-1.76v-.93h12.13v.93c0,.97.79,1.76,1.76,1.76s1.76-.79,1.76-1.76v-.93h4.97c1.74,0,3.16,1.42,3.16,3.16v1.99H4.32v-1.99ZM32.39,33.19c-1.86,1.86-2.88,4.33-2.88,6.96,0,.52.08,1.02.15,1.51H7.49c-1.74,0-3.16-1.42-3.16-3.16V14.88h35.45v15.47c-.14,0-.27-.04-.42-.04h0c-2.63,0-5.1,1.03-6.96,2.89ZM43.82,44.63c-1.19,1.19-2.78,1.85-4.47,1.85h0c-1.69,0-3.27-.66-4.47-1.85-1.19-1.19-1.85-2.78-1.85-4.47s.66-3.27,1.85-4.47c1.19-1.19,2.78-1.85,4.47-1.85h0c3.48,0,6.31,2.84,6.32,6.32,0,1.69-.66,3.27-1.85,4.47Z"/>
  <path class="cls-1" d="M39.36,34.7c-.97,0-1.76.79-1.76,1.76v2.49l-1.14.44c-.87.34-1.33,1.3-1.04,2.18l.02.07s0,.02.01.03l.05.11c.3.63.93,1.02,1.6,1.02.21,0,.43-.04.64-.12l2.26-.88c.68-.27,1.12-.91,1.12-1.64v-3.7c0-.97-.79-1.76-1.76-1.76Z"/>
</svg>