<?xml version="1.0" encoding="UTF-8"?>
<svg id="Layer_1" xmlns="http://www.w3.org/2000/svg" version="1.1" viewBox="0 0 512 471.5">
  <!-- Generator: Adobe Illustrator 29.5.1, SVG Export Plug-In . SVG Version: 2.1.0 Build 141)  -->
  <defs>
    <style>
      .st0 {
        fill: #263a4e;
      }
    </style>
  </defs>
  <path class="st0" d="M401.6,274.2l-20.1-86.3h0c-2.1-9.1-11.2-14.7-20.3-12.6l-19.4,4.5c-9,2.2-14.7,11.2-12.6,20.3v.5c-13,4.4-19.8-.7-29.4-8.1-8.5-6.5-19.1-14.6-35.3-15.1-9-.4-17.8,3-24.1,9.5l-5.7,5.7h-52.6c-.4-1-.9-2-1.5-2.9-2.4-3.8-6.1-6.5-10.5-7.5l-19.4-4.5c-9.1-2.1-18.1,3.5-20.3,12.6h0s-20.1,86.3-20.1,86.3c-2.1,9.1,3.5,18.1,12.6,20.3l19.4,4.5c8.3,1.9,16.7-2.6,19.6-10.6l62,62c8.3,8.3,21.8,8.3,30.1,0,1.3-1.3,2.3-2.7,3.3-4.2l5.1,5.1c8.3,8.3,21.8,8.3,30.1,0,1.7-1.7,3.2-3.7,4.2-6,2.4.9,4.9,1.3,7.4,1.3,11.7,0,21.2-9.5,21.3-21.2,0,0,0,0,0,0,0-.8,0-1.6-.1-2.4,9.8-3,16.1-12.6,14.8-22.8l18.1-5c3.5,1.8,7.5,2.3,11.4,1.4l19.4-4.5c9.1-2.1,14.7-11.2,12.6-20.3ZM147,285.1c-.1.5-.6.7-1,.6l-19.4-4.5c-.2,0-.4-.2-.5-.4-.1-.2-.2-.4-.1-.7l20.1-86.3c.1-.5.6-.7,1-.7l19.4,4.5c.2,0,.4.2.5.4,0,.2.1.3.1.5,0,.2,0,.4-.1.6l-20,85.8ZM322.8,308.8c-2.1,2-5.4,2-7.4,0l-40.2-44.5c-3-3.3-8-3.5-11.3-.6-3.3,3-3.5,8-.6,11.3l40.4,44.8s0,0,.1.1.1.1.1.2l3.9,3.9c2,2.1,2,5.4,0,7.4-2.1,2-5.4,2-7.4,0l-7.8-7.8-36.6-40.4c-3-3.3-8-3.5-11.3-.6s-3.5,8-.6,11.3l36.7,40.6s0,0,.1.1,0,.1.1.2c2.1,2,2.1,5.4,0,7.4-2,2.1-5.4,2.1-7.4,0,0,0,0,0,0,0l-19.6-19.6-17.8-19.8c-3-3.3-8-3.5-11.3-.6-3.3,3-3.5,8-.6,11.3l18,19.9s0,0,.1.1,0,.1.1.2c2.1,2.1,2.1,5.4,0,7.4-2.1,2.1-5.4,2.1-7.4,0l-68.9-68.9,14.9-63.9h37.3l-29.7,29.7-.7.7c-.9.9-1.6,2-2,3.3h0c-.6,2.1-.4,4.3.6,6.2.1.2.3.5.4.7l.3.5c0,0,.1.2.2.3,7.4,12.7,18.3,19.1,30.7,18.1.2,0,.3,0,.5,0,.5,0,.9,0,1.4-.1s1-.2,1.4-.2c.2,0,.3,0,.5,0,8.2-1.6,16.4-6.4,23.6-13.8,0,0,0,0,0,0,.4-.4.7-.7,1.1-1.1.2-.2.4-.4.6-.6h0c.1-.1.3-.3.4-.4.3-.4.7-.8,1-1.1,1.8-1.9,3.8-3.4,6.1-4.5,0,0,.1,0,.1,0,.4-.2.7-.3,1.1-.5,0,0,.2,0,.2,0,.4-.1.8-.3,1.2-.4,0,0,.1,0,.2,0,3.7-1,8.1-.9,14.1-.1l51.3,57.4c1.4,2.1,1.1,4.8-.7,6.6h0ZM332.4,288.1l-32-35.9-18.4-20.4c0-.1-.2-.2-.3-.3,0,0-.1-.1-.2-.2-.1-.1-.2-.2-.3-.3,0,0-.1-.1-.2-.2-.1,0-.2-.2-.4-.3,0,0-.1-.1-.2-.1-.1,0-.3-.2-.4-.2,0,0-.1,0-.2-.1-.2,0-.3-.2-.5-.2,0,0,0,0-.1,0-.2,0-.4-.1-.6-.2,0,0,0,0,0,0-.2,0-.4-.1-.7-.2h0c-.2,0-.5,0-.7-.1-.5,0-.9-.1-1.4-.2-8.2-1.1-15.9-1.7-23.5.7h-.2c-.2.1-.4.2-.6.3-5.6,2-10.6,5.3-14.5,9.6-.5.5-.9.9-1.4,1.4-.3.3-.6.7-.9,1-.1.1-.2.3-.4.4-.2.2-.4.4-.6.6-.3.3-.5.5-.8.8-.2.2-.4.4-.6.5-.1.1-.3.3-.4.4-.2.2-.5.4-.7.6,0,0-.2.1-.3.2-3.3,2.9-7.2,5-11.4,6.1-.1,0-.3,0-.4,0-.2,0-.5,0-.7.1-.4,0-.9.1-1.3.2-4.9.4-9.3-1.7-13-6.4l47.6-47.6c3.2-3.3,7.7-5.1,12.3-4.8,11.1.4,18.4,6,26.1,11.8,10.2,7.8,22.5,17.2,42.9,11l15.7,67.4-16.3,4.5ZM385.4,278.9l-19.4,4.5c-.2,0-.5,0-.6-.1-.2-.1-.3-.3-.4-.5l-20.1-86.3c0-.5.2-.9.7-1l19.4-4.5c0,0,.1,0,.2,0,.4,0,.8.3.9.7l20.1,86.3c0,.5-.2.9-.6,1h0ZM256,61c16.8,0,30.5-13.6,30.5-30.5,0-16.8-13.6-30.5-30.5-30.5-16.8,0-30.5,13.6-30.5,30.5h0c0,16.8,13.7,30.5,30.5,30.5ZM256,16c8,0,14.5,6.5,14.5,14.5s-6.5,14.5-14.5,14.5c-8,0-14.5-6.5-14.5-14.5h0c0-8,6.5-14.5,14.5-14.5h0ZM512,371.3c-1.3-22.5-16-42-37.2-49.6-2.5-.9-5.3-.5-7.4,1.1-9.7,7-22.8,7-32.4,0-2.1-1.6-4.9-2-7.4-1.1-21.2,7.5-35.9,27.1-37.2,49.6-.1,2.4.8,4.8,2.6,6.4,33,29.9,83.4,29.9,116.4,0,1.8-1.6,2.8-4,2.6-6.4h0ZM451.2,384.1c-16.2,0-31.8-5.5-44.4-15.7,2-13.2,10.5-24.5,22.6-30.1,13.5,7.8,30.1,7.8,43.6,0,12.1,5.6,20.6,16.9,22.6,30.1-12.6,10.2-28.3,15.7-44.4,15.7h0ZM349.6,77.3c2.2-3.8,7.1-5.2,10.9-3h0c38.7,22.2,69.4,55.8,88,96.3l9.3-17.2c2.1-3.9,7-5.3,10.9-3.2s5.3,7,3.2,10.9l-17.3,32.1c-2.1,3.9-6.9,5.3-10.8,3.3,0,0,0,0,0,0l-32.1-17.3c-3.9-2.1-5.3-7-3.2-10.9s7-5.3,10.9-3.2h0l11.9,6.4c-17.4-34.9-44.8-63.8-78.6-83.2-3.8-2.2-5.2-7.1-3-10.9ZM451.2,255.5c-16.8,0-30.5,13.6-30.5,30.5s13.6,30.5,30.5,30.5,30.5-13.6,30.5-30.5h0c0-16.8-13.7-30.5-30.5-30.5h0ZM451.2,300.4c-8,0-14.5-6.5-14.5-14.5,0-8,6.5-14.5,14.5-14.5,8,0,14.5,6.5,14.5,14.5h0c0,8-6.5,14.5-14.5,14.5h0ZM374.3,425.4c2.4,3.7,1.4,8.7-2.3,11.1,0,0,0,0,0,0-73.2,48.2-168.4,46.6-239.9-4.1l1.9,17.4c.5,4.4-2.7,8.4-7.1,8.8-.3,0-.6,0-.9,0-4.1,0-7.5-3.1-7.9-7.1l-4-36.3c-.5-4.4,2.7-8.4,7.1-8.8,0,0,0,0,0,0l36.3-4c4.4-.5,8.4,2.7,8.8,7.1s-2.7,8.4-7.1,8.8h0l-16.6,1.8c66,46,153.4,47.2,220.6,2.9,3.7-2.4,8.7-1.4,11.1,2.3,0,0,0,0,0,0ZM121.6,371.3c-1.3-22.5-16-42-37.2-49.6-2.5-.9-5.3-.5-7.4,1.1-9.7,7-22.8,7-32.4,0-2.1-1.6-4.9-2-7.4-1.1-21.2,7.5-35.9,27.1-37.2,49.6-.1,2.4.8,4.8,2.6,6.4,33,29.9,83.4,29.9,116.4,0,1.8-1.6,2.8-4,2.6-6.4ZM60.8,384.1c-16.2,0-31.8-5.5-44.4-15.7,2-13.2,10.5-24.5,22.6-30.1,13.5,7.8,30.1,7.8,43.6,0,12.1,5.6,20.6,16.9,22.6,30.1-12.6,10.2-28.3,15.7-44.4,15.7ZM50.4,201.6c12.6-44.8,39.6-84.3,76.8-112.3l-16.2-1.8c-4.4-.5-7.6-4.4-7.1-8.8.5-4.4,4.4-7.6,8.8-7.1l36.3,4c4.4.5,7.6,4.4,7.1,8.8l-4,36.3c-.4,4.1-3.9,7.1-7.9,7.1-.3,0-.6,0-.9,0-4.4-.5-7.6-4.4-7.1-8.8l2-17.8c-35.1,26-60.5,62.9-72.3,104.8-1.2,4.3-5.6,6.7-9.9,5.6-4.3-1.2-6.7-5.6-5.6-9.9h0ZM256,144.7c21.5,0,42.2-8,58.2-22.4,1.8-1.6,2.8-4,2.6-6.4-1.3-22.5-15.9-42-37.1-49.6-2.5-.9-5.3-.5-7.4,1.1-9.6,7.1-22.8,7.1-32.4,0-2.1-1.6-4.9-2-7.4-1.1-21.2,7.6-35.9,27.1-37.2,49.6-.1,2.4.8,4.8,2.6,6.4,15.9,14.4,36.7,22.4,58.2,22.4ZM234.2,82.8c13.5,7.8,30.1,7.8,43.6,0,12.1,5.7,20.6,17,22.6,30.2-25.9,20.9-62.9,20.9-88.9,0,2.1-13.2,10.5-24.5,22.6-30.2ZM60.8,316.4c16.8,0,30.5-13.6,30.5-30.5s-13.6-30.5-30.5-30.5-30.5,13.6-30.5,30.5h0c0,16.8,13.7,30.5,30.5,30.5ZM60.8,271.5c8,0,14.5,6.5,14.5,14.5s-6.5,14.5-14.5,14.5-14.5-6.5-14.5-14.5c0-8,6.5-14.5,14.5-14.5h0Z"/>
</svg>