<?xml version="1.0" encoding="UTF-8"?>
<svg id="Iconos" xmlns="http://www.w3.org/2000/svg" viewBox="0 0 50 50">
  <defs>
    <style>
      .cls-1 {
        fill: #263a4e;
      }
    </style>
  </defs>
  <path class="cls-1" d="M47.75,23.39h-3.15c-1,0-1.89.68-2.16,1.64l-1.12,4.02c-.06.23-.23.41-.45.51l-3.42,1.47c-.29.12-.62.06-.85-.15l-4.02-3.81c-.16-.15-.24-.35-.24-.57v-7.14c0-.58-.22-1.13-.62-1.55l-5.45-5.73c-.42-.44-1.02-.7-1.63-.7h-3.35c-.21,0-.4-.08-.55-.22l-2.89-2.84c-.42-.42-.98-.64-1.58-.64h-2.39c-.11,0-.21-.02-.31-.06l-5.58-2.42c-.28-.12-.58-.19-.89-.19H2.25C1.01,5,0,6.01,0,7.25v7.43C0,15.03.09,15.38.25,15.7l7.45,14.57c.46.9,1.37,1.45,2.37,1.45.78,0,1.49-.39,1.9-1.05.41-.66.46-1.47.13-2.17l-2.99-6.28c-.17-.37-.61-.52-.98-.35-.37.17-.52.61-.35.98l2.99,6.28c.12.25.1.52-.05.75-.15.23-.39.36-.66.36-.45,0-.86-.25-1.07-.65L1.55,15.03c-.06-.11-.09-.23-.09-.36v-7.43c0-.43.35-.78.78-.78h4.86c.11,0,.21.02.31.06l5.58,2.42c.28.12.58.19.89.19h2.29v18.41l-1.78-.88c-.16-.08-.3-.22-.37-.39l-4.78-10.83c-.36-.81-1.17-1.34-2.06-1.34-.78,0-1.49.39-1.9,1.05-.41.66-.46,1.47-.13,2.17l1.37,2.88c.17.37.61.52.98.35.37-.17.52-.61.35-.98l-1.37-2.88c-.12-.25-.1-.52.04-.75.15-.23.39-.36.66-.36.31,0,.59.18.72.47l4.78,10.83c.21.48.59.88,1.07,1.11l3.66,1.8c.2.1.35.28.41.5l.88,3.27c.05.19.03.39-.06.56l-.4.78c-.28.54-.32,1.16-.13,1.73.19.58.6,1.04,1.14,1.31l12.89,6.34c.53.26,1.16.3,1.72.11l2.94-1.01c.21-.07.43-.05.63.05l2.44,1.32c.34.18.7.27,1.07.27.55,0,1.09-.2,1.52-.59l1.52-1.39c.67-.62.91-1.57.59-2.43l-.27-.74c-.11-.3-.02-.65.22-.86l4.69-4.07c.49-.43.78-1.05.78-1.7v-7.59c0-1.24-1.01-2.25-2.25-2.25h0ZM48.54,33.23c0,.23-.1.44-.27.59l-4.69,4.07c-.7.61-.96,1.6-.64,2.47l.27.74c.11.3.03.63-.21.85l-1.52,1.39c-.25.22-.61.27-.9.11l-2.44-1.32c-.55-.3-1.21-.35-1.8-.15l-2.52.87v-5.22c0-.4-.33-.73-.73-.73s-.73.33-.73.73v5.11l-12.45-6.12c-.19-.09-.33-.25-.4-.46-.07-.2-.05-.41.05-.6l.4-.78c.25-.5.31-1.07.17-1.61l-.88-3.27c-.17-.62-.6-1.15-1.18-1.43l-.41-.2V10.16l2.07,2.04c.42.42.98.64,1.58.64h3.35c.21,0,.42.09.57.24l5.45,5.73c.14.15.22.34.22.54v7.14c0,.61.26,1.21.7,1.63l.78.74v5.82c0,.4.33.73.73.73s.73-.33.73-.73v-4.43l1.77,1.68c.65.62,1.61.79,2.43.43l3.42-1.47c.63-.27,1.09-.8,1.28-1.46l1.12-4.02c.09-.34.4-.57.75-.57h3.15c.43,0,.78.35.78.78v7.59h0Z"/>
</svg>